<?xml version="1.0" standalone="no"?>
<!DOCTYPE svg PUBLIC "-//W3C//DTD SVG 1.1//EN" "http://www.w3.org/Graphics/SVG/1.1/DTD/svg11.dtd" >
<svg xmlns="http://www.w3.org/2000/svg" xmlns:xlink="http://www.w3.org/1999/xlink" version="1.1">
<metadata>
Created by FontForge 20170731 at Mon Aug 27 15:30:25 2018
 By Aleksey,,,
Copyright (c) 2018 by Swiss Typefaces. All rights reserved. |DCNT
</metadata>
<defs>
<font id="EuclidCircularA-Italic" horiz-adv-x="0" >
  <font-face 
    font-family="Euclid Circular A"
    font-weight="400"
    font-style="italic"
    font-stretch="normal"
    units-per-em="1000"
    panose-1="2 11 5 4 0 0 0 0 0 0"
    ascent="732"
    descent="-268"
    x-height="500"
    cap-height="710"
    bbox="-335 -273 1449 1000"
    underline-thickness="75"
    underline-position="-392"
    slope="-12"
    unicode-range="U+0020-FEFF"
  />
<missing-glyph horiz-adv-x="673" 
d="M86 0l151 710h500l-151 -710h-500zM400 355l-150 327l-139 -654zM421 355l152 -327l139 654zM698 691h-432l147 -321zM410 339l-285 -320h432z" />
    <glyph glyph-name="uni0407_uni0407" unicode="&#x407;&#x407;" horiz-adv-x="564" 
d="M36 0l151 710h93l-151 -710h-93zM317 0l151 710h93l-151 -710h-93zM149 785q-25 0 -42 17t-17 41t17 41.5t42 17.5q24 0 41 -17.5t17 -41.5t-17 -41t-41 -17zM403 785q-25 0 -42 17t-17 41t17 41.5t42 17.5q24 0 41 -17.5t17 -41.5t-17 -41t-41 -17zM658 785
q-25 0 -42 17t-17 41t17 41.5t42 17.5q24 0 41 -17.5t17 -41.5t-17 -41t-41 -17z" />
    <glyph glyph-name="uni0457_uni0457" unicode="&#x457;&#x457;" horiz-adv-x="498" 
d="M29 0l106 500h86l-106 -500h-86zM127 596q-25 0 -42.5 17.5t-17.5 43.5q0 25 17.5 42.5t42.5 17.5q26 0 43.5 -17.5t17.5 -42.5q0 -26 -17.5 -43.5t-43.5 -17.5zM333 596q-25 0 -42.5 17.5t-17.5 43.5q0 25 17.5 42.5t42.5 17.5q26 0 43.5 -17.5t17.5 -42.5
q0 -26 -17.5 -43.5t-43.5 -17.5zM277 0l106 500h86l-106 -500h-86zM540 596q-26 0 -43.5 17.5t-17.5 43.5q0 25 17.5 42.5t43.5 17.5q25 0 42.5 -17.5t17.5 -42.5q0 -26 -17.5 -43.5t-42.5 -17.5z" />
    <glyph glyph-name="uni0457_uni0458" unicode="&#x457;&#x458;" horiz-adv-x="498" 
d="M115 0h-86l106 500h86zM127 596q-25 0 -42.5 17.5t-17.5 43.5q0 25 17.5 42.5t42.5 17.5q26 0 43.5 -17.5t17.5 -42.5q0 -26 -17.5 -43.5t-43.5 -17.5zM333 596q-25 0 -42.5 17.5t-17.5 43.5q0 25 17.5 42.5t42.5 17.5q26 0 43.5 -17.5t17.5 -42.5q0 -26 -17.5 -43.5
t-43.5 -17.5zM540 596q-26 0 -43.5 17.5t-17.5 43.5q0 25 17.5 42.5t43.5 17.5q25 0 42.5 -17.5t17.5 -42.5q0 -26 -17.5 -43.5t-42.5 -17.5zM181 -219q-29 0 -55 7l16 77q18 -5 39 -5q34 0 54 17.5t29 60.5l119 562h86l-123 -577q-16 -75 -55.5 -108.5t-109.5 -33.5z" />
    <glyph glyph-name="_515" unicode="ff" horiz-adv-x="719" 
d="M67 0l90 421h-106l17 79h105l21 98q17 79 66 118.5t122 39.5q44 0 74 -13l-16 -76q-30 10 -60 10q-81 0 -102 -91l-19 -86h126l-16 -79h-126l-90 -421h-86zM423 0l89 421h-87l16 79h88l21 98q17 79 66 118.5t122 39.5q44 0 74 -13l-16 -76q-30 10 -60 10q-81 0 -102 -91
l-19 -86h145l-17 -79h-145l-89 -421h-86z" />
    <glyph glyph-name="f_i" unicode="fi" horiz-adv-x="613" 
d="M67 0l90 421h-106l17 79h105l21 98q17 79 66 118.5t122 39.5q44 0 74 -13l-16 -76q-30 10 -60 10q-81 0 -102 -91l-19 -86h145l-17 -79h-144l-90 -421h-86zM584 634q-26 0 -44 17.5t-18 43.5q0 25 18 43t44 18t43.5 -18t17.5 -43q0 -26 -17.5 -43.5t-43.5 -17.5zM392 0
l106 500h86l-106 -500h-86z" />
    <glyph glyph-name="_519" unicode="ffi" horiz-adv-x="969" 
d="M940 634q-26 0 -44 17.5t-18 43.5q0 25 18 43t44 18t43.5 -18t17.5 -43q0 -26 -17.5 -43.5t-43.5 -17.5zM748 0l106 500h86l-106 -500h-86zM67 0l90 421h-106l17 79h105l21 98q17 79 66 118.5t122 39.5q44 0 74 -13l-16 -76q-30 10 -60 10q-81 0 -102 -91l-19 -86h126
l-16 -79h-126l-90 -421h-86zM423 0l89 421h-87l16 79h88l21 98q17 79 66 118.5t122 39.5q44 0 74 -13l-16 -76q-30 10 -60 10q-81 0 -102 -91l-19 -86h145l-17 -79h-145l-89 -421h-86z" />
    <glyph glyph-name="f_l" unicode="fl" horiz-adv-x="613" 
d="M67 0l90 421h-106l17 79h105l21 98q17 79 66 118.5t122 39.5q44 0 74 -13l-16 -76q-30 10 -60 10q-81 0 -102 -91l-19 -86h145l-17 -79h-144l-90 -421h-86zM392 0l159 750h86l-159 -750h-86z" />
    <glyph glyph-name="_523" unicode="ffl" horiz-adv-x="969" 
d="M748 0l159 750h86l-159 -750h-86zM67 0l90 421h-106l17 79h105l21 98q17 79 66 118.5t122 39.5q44 0 74 -13l-16 -76q-30 10 -60 10q-81 0 -102 -91l-19 -86h126l-16 -79h-126l-90 -421h-86zM423 0l89 421h-87l16 79h88l21 98q17 79 66 118.5t122 39.5q44 0 74 -13
l-16 -76q-30 10 -60 10q-81 0 -102 -91l-19 -86h145l-17 -79h-145l-89 -421h-86z" />
    <glyph glyph-name="f_t" unicode="ft" horiz-adv-x="733" 
d="M67 0l90 421h-106l17 79h105l21 98q17 79 66 118.5t122 39.5q44 0 74 -13l-16 -76q-30 10 -60 10q-81 0 -102 -91l-19 -86h127l-17 -79h-126l-90 -421h-86zM599 -5q-76 0 -117.5 46t-22.5 131l54 249h-88l17 79h87l30 139h86l-30 -139h145l-17 -79h-144l-54 -256
q-21 -93 75 -93q28 0 51 7l-15 -77q-22 -7 -57 -7z" />
    <glyph glyph-name="t_t" unicode="tt" horiz-adv-x="725" 
d="M240 -5q-76 0 -117 46t-22 131l53 249h-106l17 79h106l30 139h86l-30 -139h123l-17 -79h-123l-54 -256q-21 -93 75 -93q26 0 52 7l-16 -77q-22 -7 -57 -7zM590 -5q-76 0 -117 46t-22 131l53 249h-85l16 79h86l30 139h86l-30 -139h145l-17 -79h-145l-54 -256
q-21 -93 75 -93q26 0 52 7l-16 -77q-22 -7 -57 -7z" />
    <glyph glyph-name=".notdef" horiz-adv-x="673" 
d="M86 0l151 710h500l-151 -710h-500zM400 355l-150 327l-139 -654zM421 355l152 -327l139 654zM698 691h-432l147 -321zM410 339l-285 -320h432z" />
    <glyph glyph-name=".null" 
 />
    <glyph glyph-name="nonmarkingreturn" horiz-adv-x="333" 
 />
    <glyph glyph-name="space" unicode=" " horiz-adv-x="241" 
 />
    <glyph glyph-name="exclam" unicode="!" horiz-adv-x="272" 
d="M100 222l27 203l61 285h86l-61 -285l-59 -203h-54zM94 -8q-32 0 -53 22t-21 53t21 53t53 22q30 0 52 -22.5t22 -52.5q0 -31 -21.5 -53t-52.5 -22z" />
    <glyph glyph-name="quotedbl" unicode="&#x22;" horiz-adv-x="411" 
d="M106 463l53 247h77l-52 -247h-78zM308 463l53 247h77l-52 -247h-78z" />
    <glyph glyph-name="numbersign" unicode="#" horiz-adv-x="706" 
d="M351 0l63 200h-181l-62 -200h-79l62 200h-116v73h139l53 171h-119v73h142l60 193h80l-60 -193h179l61 193h79l-60 -193h116v-73h-139l-54 -171h121v-73h-144l-62 -200h-79zM310 444l-54 -171h180l54 171h-180z" />
    <glyph glyph-name="dollar" unicode="$" horiz-adv-x="529" 
d="M167 -88l18 86q-71 18 -115.5 72.5t-38.5 129.5h87q-1 -44 22.5 -75.5t61.5 -44.5l53 249l-2 1q-74 41 -108 85.5t-34 114.5q0 85 59 138.5t162 53.5h7l16 76h54l-18 -84q63 -18 101.5 -64.5t36.5 -108.5h-87q-2 31 -20 55t-48 35l-50 -235l14 -7q127 -64 127 -198
q0 -90 -58.5 -145.5t-161.5 -55.5h-8l-16 -78h-54zM380 187q0 38 -18 64.5t-58 50.5l-49 -230q55 1 90 31.5t35 83.5zM197 534q0 -40 18.5 -65t59.5 -48l46 219q-53 0 -88.5 -31t-35.5 -75z" />
    <glyph glyph-name="percent" unicode="%" horiz-adv-x="1077" 
d="M309 0h-102l601 710h101zM829 -8q-82 0 -139.5 58t-57.5 139q0 82 57.5 139.5t139.5 57.5q81 0 139 -57.5t58 -139.5q0 -81 -58 -139t-139 -58zM829 70q50 0 84 35t34 84t-34 84t-84 35q-48 0 -83 -35.5t-35 -83.5t35 -83.5t83 -35.5zM287 324q-82 0 -139.5 58t-57.5 139
q0 82 57.5 139.5t139.5 57.5q81 0 139 -57.5t58 -139.5q0 -81 -58 -139t-139 -58zM287 402q50 0 84 35t34 84t-34 84t-84 35q-48 0 -83 -35.5t-35 -83.5t35 -83.5t83 -35.5z" />
    <glyph glyph-name="ampersand" unicode="&#x26;" horiz-adv-x="719" 
d="M239 -10q-79 0 -132 50t-53 128t46 130.5t135 100.5l6 3q-62 78 -62 143q0 74 54.5 125.5t143.5 51.5q73 0 118 -43.5t45 -103.5q0 -35 -14 -64t-43.5 -53t-54.5 -39.5t-66 -36.5l122 -150l101 110h107l-159 -170l140 -172h-103l-93 113q-64 -66 -116.5 -94.5
t-121.5 -28.5zM249 68q48 0 87.5 24t92.5 80l-139 170l-23 -12q-67 -37 -97 -72t-30 -84q0 -47 30.5 -76.5t78.5 -29.5zM262 548q0 -47 52 -107l10 5l26 13t25.5 13t21 12t20.5 14t15 14.5t13.5 18t6.5 19.5t3 24q0 31 -23.5 52t-60.5 21q-51 0 -80 -29.5t-29 -69.5z" />
    <glyph glyph-name="quotesingle" unicode="'" horiz-adv-x="209" 
d="M106 463l53 247h77l-52 -247h-78z" />
    <glyph glyph-name="parenleft" unicode="(" horiz-adv-x="283" 
d="M197 -157h-69q-75 221 -71 404q2 297 213 558h83q-214 -256 -220 -550q-2 -224 64 -412z" />
    <glyph glyph-name="parenright" unicode=")" horiz-adv-x="284" 
d="M113 805h69q75 -221 71 -404q-2 -297 -213 -558h-83q214 256 220 550q2 224 -64 412z" />
    <glyph glyph-name="asterisk" unicode="*" horiz-adv-x="447" 
d="M201 372l-54 39l78 107l-126 42l19 64l128 -42v128h66v-128l128 41l21 -63l-127 -42l78 -107l-53 -39l-80 107z" />
    <glyph glyph-name="plus" unicode="+" horiz-adv-x="505" 
d="M47 251v77h172v172h79v-172h172v-77h-172v-172h-79v172h-172z" />
    <glyph glyph-name="comma" unicode="," horiz-adv-x="255" 
d="M149 15l-130 -158h-59l93 148q-32 26 -32 62q0 30 22 52.5t52 22.5q32 0 53 -22t21 -53q0 -27 -20 -52z" />
    <glyph glyph-name="hyphen" unicode="-" horiz-adv-x="385" 
d="M59 237l18 86h255l-18 -86h-255z" />
    <glyph glyph-name="period" unicode="." horiz-adv-x="250" 
d="M93 -8q-32 0 -53 22t-21 53t21 53t53 22q30 0 52 -22.5t22 -52.5q0 -31 -21.5 -53t-52.5 -22z" />
    <glyph glyph-name="slash" unicode="/" horiz-adv-x="380" 
d="M-36 -110l386 820h81l-386 -820h-81z" />
    <glyph glyph-name="zero" unicode="0" horiz-adv-x="619" 
d="M276 -10q-116 0 -177 77.5t-36 198.5l41 193q28 127 94.5 195t184.5 68q116 0 177.5 -78.5t35.5 -197.5l-41 -193q-55 -263 -279 -263zM283 74q147 0 186 181l43 200q18 83 -20.5 133t-115.5 50q-147 0 -186 -181l-43 -200q-18 -85 20.5 -134t115.5 -49z" />
    <glyph glyph-name="one" unicode="1" horiz-adv-x="330" 
d="M94 0l132 625h-137l89 85h153l-151 -710h-86z" />
    <glyph glyph-name="two" unicode="2" horiz-adv-x="562" 
d="M-2 0l9 41q7 32 19.5 61t25.5 50t35 43t37.5 35t44.5 30.5t44 26t48 25t45 23.5q91 48 128.5 92t37.5 102q0 49 -35.5 79t-87.5 30q-58 0 -103.5 -36.5t-53.5 -103.5h-87q9 106 80 165t171 59q83 0 143.5 -51.5t60.5 -134.5q0 -94 -46.5 -151t-170.5 -125
q-11 -6 -52 -27.5t-57 -31.5t-43.5 -30t-42.5 -41t-23 -47h353l-18 -83h-462z" />
    <glyph glyph-name="three" unicode="3" horiz-adv-x="586" 
d="M284 -12q-99 0 -173.5 64t-65.5 164h87q-4 -66 41.5 -104t110.5 -38q70 0 112.5 38.5t42.5 106.5q0 52 -32.5 81.5t-91.5 29.5h-77l17 79h55q63 0 109 33.5t46 92.5q0 47 -34.5 75t-86.5 28q-57 0 -104.5 -36t-58.5 -104h-88q14 104 87 164t170 60q81 0 142 -49t61 -131
q0 -123 -121 -175q93 -45 93 -152q0 -97 -64 -162t-177 -65z" />
    <glyph glyph-name="four" unicode="4" horiz-adv-x="615" 
d="M340 0l41 193h-378l15 69l483 448h75l-93 -436h99l-17 -81h-98l-42 -193h-85zM143 274h254l62 293z" />
    <glyph glyph-name="five" unicode="5" horiz-adv-x="559" 
d="M262 -10q-88 0 -161.5 54t-82.5 148h89q15 -56 57 -87t103 -31q71 0 112.5 44t41.5 117q0 63 -36.5 103t-97.5 40q-89 0 -140 -71l-75 24l153 379h336l-18 -84h-263l-75 -188q47 22 100 22q85 0 144.5 -63t59.5 -153q0 -111 -64 -182.5t-183 -71.5z" />
    <glyph glyph-name="six" unicode="6" horiz-adv-x="566" 
d="M279 -10q-104 0 -173 65t-69 161q0 67 27 114.5t80 98.5l299 281h118l-271 -256q3 1 15 1q88 0 151.5 -65.5t63.5 -162.5q0 -96 -68 -166.5t-173 -70.5zM278 73q67 0 110.5 46.5t43.5 109.5q0 66 -43.5 108t-107.5 42q-69 0 -112 -45.5t-43 -109.5q0 -65 44.5 -108
t107.5 -43z" />
    <glyph glyph-name="seven" unicode="7" horiz-adv-x="505" 
d="M2 0l457 626h-355l18 84h466l-15 -72l-465 -638h-106z" />
    <glyph glyph-name="eight" unicode="8" horiz-adv-x="579" 
d="M521 229q0 -112 -69.5 -176.5t-176.5 -64.5q-108 0 -170.5 68.5t-62.5 147.5q0 72 38.5 129t104.5 81q-51 45 -51 121q0 90 62.5 138.5t145.5 48.5q91 0 140 -54t49 -122q1 -52 -25.5 -93t-70.5 -62q43 -26 64.5 -72t21.5 -90zM129 208q0 -51 38.5 -94.5t112.5 -43.5
q67 0 111 44t44 110q0 50 -35.5 94.5t-112.5 44.5q-71 0 -114.5 -44t-43.5 -111zM219 529q0 -17 7 -37t33.5 -40.5t68.5 -20.5q53 0 86 30t33 83q0 12 -4.5 26t-15 31.5t-33.5 28.5t-55 11q-53 0 -86.5 -29.5t-33.5 -82.5z" />
    <glyph glyph-name="nine" unicode="9" horiz-adv-x="566" 
d="M42 0l272 257h-13q-88 0 -152 65.5t-64 162.5q0 96 68 166.5t174 70.5q104 0 173 -65.5t69 -161.5q0 -65 -27.5 -113.5t-79.5 -98.5l-301 -283h-119zM325 333q68 0 111.5 45.5t43.5 109.5q0 65 -44.5 108t-107.5 43q-67 0 -110.5 -46.5t-43.5 -109.5q0 -66 43 -108
t108 -42z" />
    <glyph glyph-name="colon" unicode=":" horiz-adv-x="278" 
d="M98 -8q-32 0 -53 22t-21 53t21 53t53 22q30 0 52 -22.5t22 -52.5q0 -31 -21.5 -53t-52.5 -22zM176 362q-32 0 -53 22t-21 53t21 53t53 22q30 0 52 -22.5t22 -52.5q0 -31 -21.5 -53t-52.5 -22z" />
    <glyph glyph-name="semicolon" unicode=";" horiz-adv-x="287" 
d="M182 362q-32 0 -53 22t-21 53t21 53t53 22q30 0 52 -22.5t22 -52.5q0 -31 -21.5 -53t-52.5 -22zM157 15l-130 -158h-59l93 148q-32 26 -32 62q0 30 22 52.5t52 22.5q32 0 53 -22t21 -53q0 -27 -20 -52z" />
    <glyph glyph-name="less" unicode="&#x3c;" horiz-adv-x="480" 
d="M405 543l-253 -253l253 -253h-108l-253 253l253 253h108z" />
    <glyph glyph-name="equal" unicode="=" horiz-adv-x="618" 
d="M101 143v76h423v-76h-423zM101 360v77h423v-77h-423z" />
    <glyph glyph-name="greater" unicode="&#x3e;" horiz-adv-x="484" 
d="M87 37l253 253l-253 253h108l253 -253l-253 -253h-108z" />
    <glyph glyph-name="question" unicode="?" horiz-adv-x="516" 
d="M282 236h-91q7 35 31.5 67t45 48.5t49.5 36.5q121 78 121 149q0 45 -31 73t-82 28q-57 0 -101 -35.5t-50 -97.5h-86q8 100 77 158.5t169 58.5q84 0 138 -50t54 -128q0 -67 -40 -116.5t-110 -93.5q-78 -50 -94 -98zM200 -8q-32 0 -53 22t-21 53t21 53t53 22q30 0 52 -22.5
t22 -52.5q0 -31 -21.5 -53t-52.5 -22z" />
    <glyph glyph-name="at" unicode="@" horiz-adv-x="816" 
d="M421 -10q-158 0 -253.5 99t-95.5 248q0 167 115.5 276t273.5 109q147 0 243.5 -87t96.5 -229q0 -121 -51.5 -184t-126.5 -63q-80 0 -105 60q-19 -26 -55 -42.5t-74 -16.5q-65 0 -109 47t-44 126q0 93 59 155.5t143 62.5q43 0 73.5 -21t41.5 -50l11 62h76l-49 -238
q-16 -79 38 -79q47 0 74.5 46t27.5 137q0 112 -76.5 180.5t-194.5 68.5q-130 0 -223.5 -89t-93.5 -231q0 -125 75 -203.5t203 -78.5q105 0 184 39v-71q-85 -33 -184 -33zM401 228q47 0 82.5 32.5t44.5 81.5q10 60 -14.5 100.5t-74.5 40.5q-46 0 -82 -32.5t-44 -81.5
q-12 -60 14 -100.5t74 -40.5z" />
    <glyph glyph-name="A" unicode="A" horiz-adv-x="717" 
d="M-52 0l464 710h78l163 -710h-89l-47 207h-330l-135 -207h-104zM432 583l-191 -292h257z" />
    <glyph glyph-name="B" unicode="B" horiz-adv-x="633" 
d="M36 0l151 710h199q94 0 147.5 -51.5t53.5 -119.5q0 -125 -112 -175q95 -39 95 -142q0 -101 -74 -161.5t-208 -60.5h-252zM147 84h154q84 0 130.5 38t46.5 97q0 45 -34 75.5t-97 30.5h-149zM215 405h127q71 0 112.5 34t41.5 88q0 42 -30 70.5t-85 28.5h-120z" />
    <glyph glyph-name="C" unicode="C" horiz-adv-x="793" 
d="M397 -12q-150 0 -242 95t-92 234q0 171 111.5 288t294.5 117q123 0 208.5 -69.5t108.5 -176.5h-99q-21 71 -80.5 114.5t-145.5 43.5q-130 0 -217 -89.5t-87 -218.5q0 -111 66.5 -180.5t184.5 -69.5q85 0 151 42t105 116h98q-44 -113 -137 -179.5t-228 -66.5z" />
    <glyph glyph-name="D" unicode="D" horiz-adv-x="724" 
d="M147 87h143q132 0 221.5 85t89.5 215q0 108 -66 172t-184 64h-89zM36 0l151 710h177q147 0 238.5 -89.5t91.5 -223.5q0 -175 -114 -286t-301 -111h-243z" />
    <glyph glyph-name="E" unicode="E" horiz-adv-x="557" 
d="M36 0l151 710h414l-18 -88h-322l-46 -215h262l-19 -88h-261l-50 -231h322l-19 -88h-414z" />
    <glyph glyph-name="F" unicode="F" horiz-adv-x="535" 
d="M36 0l151 710h413l-18 -88h-321l-46 -215h253l-18 -88h-253l-68 -319h-93z" />
    <glyph glyph-name="G" unicode="G" horiz-adv-x="823" 
d="M397 -12q-149 0 -241 95t-92 234q0 172 110.5 288.5t296.5 116.5q117 0 200 -61.5t114 -160.5h-100q-58 134 -225 134q-129 0 -215.5 -89t-86.5 -218q0 -112 65.5 -181.5t184.5 -69.5q110 0 186.5 67.5t97.5 175.5h-277l18 87h358v-13q0 -175 -104.5 -290t-289.5 -115z
" />
    <glyph glyph-name="H" unicode="H" horiz-adv-x="764" 
d="M36 0l151 710h93l-65 -303h390l64 303h93l-151 -710h-93l68 320h-389l-68 -320h-93z" />
    <glyph glyph-name="I" unicode="I" horiz-adv-x="283" 
d="M36 0l151 710h93l-151 -710h-93z" />
    <glyph glyph-name="J" unicode="J" horiz-adv-x="523" 
d="M327 207l107 503h93l-111 -522q-20 -100 -72 -150t-150 -50q-83 0 -145 54t-53 148h92q-4 -54 29.5 -84.5t80.5 -30.5q56 0 85 32.5t44 99.5z" />
    <glyph glyph-name="K" unicode="K" horiz-adv-x="668" 
d="M517 0l-317 338l-72 -338h-92l151 710h92l-66 -309l370 309h127l-414 -347l340 -363h-119z" />
    <glyph glyph-name="L" unicode="L" horiz-adv-x="542" 
d="M36 0l151 710h93l-133 -622h343l-18 -88h-436z" />
    <glyph glyph-name="M" unicode="M" horiz-adv-x="887" 
d="M36 0l151 710h85l182 -377l346 377h84l-151 -710h-92l113 534l-324 -355l-183 378l-118 -557h-93z" />
    <glyph glyph-name="N" unicode="N" horiz-adv-x="795" 
d="M642 0h-81l-313 563l-119 -563h-93l151 710h81l312 -564l120 564h93z" />
    <glyph glyph-name="O" unicode="O" horiz-adv-x="832" 
d="M406 76q128 0 215 89.5t87 218.5q0 112 -65 181t-183 69q-128 0 -215 -89.5t-87 -218.5q0 -112 64.5 -181t183.5 -69zM394 -12q-149 0 -239.5 94.5t-90.5 234.5q0 172 111 288.5t296 116.5q149 0 239.5 -94.5t90.5 -234.5q0 -172 -111 -288.5t-296 -116.5z" />
    <glyph glyph-name="P" unicode="P" horiz-adv-x="588" 
d="M36 0l151 710h198q102 0 159 -57.5t57 -142.5q0 -110 -76.5 -180.5t-216.5 -70.5h-124l-55 -259h-93zM201 343h125q81 0 132 47t51 116q0 51 -33 84t-98 33h-117z" />
    <glyph glyph-name="Q" unicode="Q" horiz-adv-x="844" 
d="M394 -12q-149 0 -239.5 94.5t-90.5 234.5q0 172 111 288.5t296 116.5q149 0 239.5 -94.5t90.5 -234.5q0 -174 -113 -290l90 -103h-113l-43 49q-99 -61 -228 -61zM406 76q86 0 156 42l-99 114l62 56l102 -116q81 89 81 212q0 112 -65 181t-183 69q-128 0 -215 -89.5
t-87 -218.5q0 -112 64.5 -181t183.5 -69z" />
    <glyph glyph-name="R" unicode="R" horiz-adv-x="632" 
d="M36 0l151 710h223q86 0 140.5 -51t54.5 -125q0 -94 -59.5 -150t-170.5 -63l213 -321h-106l-213 323h-72l-68 -323h-93zM215 406h139q76 0 116 31.5t41 87.5q1 44 -29 71.5t-83 27.5h-137z" />
    <glyph glyph-name="S" unicode="S" horiz-adv-x="560" 
d="M267 -12q-111 0 -178 60.5t-69 141.5h92q9 -53 53.5 -84t106.5 -31q54 0 93 32t39 76q0 45 -25.5 73.5t-80.5 55.5l-43 21q-145 70 -141 191q0 87 63.5 142.5t161.5 55.5q102 0 157.5 -59t58.5 -133h-92q-7 50 -42.5 77.5t-87.5 27.5q-56 0 -91.5 -30t-35.5 -73
q1 -41 21 -64t64 -46l52 -26q77 -38 115.5 -87t38.5 -118q0 -89 -62 -146t-168 -57z" />
    <glyph glyph-name="T" unicode="T" horiz-adv-x="564" 
d="M176 0l133 622h-220l18 88h533l-19 -88h-220l-133 -622h-92z" />
    <glyph glyph-name="U" unicode="U" horiz-adv-x="727" 
d="M733 710l-93 -437q-30 -142 -106.5 -213.5t-211.5 -71.5q-128 0 -196 80t-40 208l91 434h93l-92 -437q-21 -95 21 -146t128 -51t143 49.5t77 145.5l93 439h93z" />
    <glyph glyph-name="V" unicode="V" horiz-adv-x="699" 
d="M252 0l-152 710h91l121 -572l364 572h107l-453 -710h-78z" />
    <glyph glyph-name="W" unicode="W" horiz-adv-x="948" 
d="M588 0l-68 478l-279 -478h-82l-44 710h93l31 -552l329 564l82 -564l266 552h101l-346 -710h-83z" />
    <glyph glyph-name="X" unicode="X" horiz-adv-x="664" 
d="M66 0h-117l347 361l-196 349h101l158 -282l270 282h115l-341 -359l200 -351h-101l-162 286z" />
    <glyph glyph-name="Y" unicode="Y" horiz-adv-x="672" 
d="M231 0l64 300l-189 410h99l147 -321l283 321h115l-363 -410l-64 -300h-92z" />
    <glyph glyph-name="Z" unicode="Z" horiz-adv-x="582" 
d="M-25 0l13 62l495 560h-365l18 88h498l-14 -62l-496 -560h387l-18 -88h-518z" />
    <glyph glyph-name="bracketleft" unicode="[" horiz-adv-x="305" 
d="M3 -160l204 960h187l-15 -72h-109l-174 -816h109l-15 -72h-187z" />
    <glyph glyph-name="backslash" unicode="\" horiz-adv-x="671" 
d="M192 710l386 -820h-81l-386 820h81z" />
    <glyph glyph-name="bracketright" unicode="]" horiz-adv-x="305" 
d="M326 800l-204 -960h-187l15 72h109l174 816h-109l15 72h187z" />
    <glyph glyph-name="asciicircum" unicode="^" horiz-adv-x="407" 
d="M178 500h-72l126 210h52l126 -210h-72l-80 132z" />
    <glyph glyph-name="underscore" unicode="_" horiz-adv-x="529" 
d="M-15 -73l16 73h423l-15 -73h-424z" />
    <glyph glyph-name="grave" unicode="`" 
d="M200 560h-61l-62 190h97z" />
    <glyph glyph-name="a" unicode="a" horiz-adv-x="632" 
d="M257 -10q-91 0 -153 62.5t-62 164.5q0 124 79.5 208.5t204.5 84.5q62 0 107.5 -29t65.5 -70l18 89h86l-106 -500h-86l15 63q-25 -33 -71.5 -53t-97.5 -20zM275 68q83 0 141 58.5t58 148.5q0 75 -39.5 115.5t-106.5 40.5q-83 0 -141 -58.5t-58 -148.5q0 -75 40 -115.5
t106 -40.5z" />
    <glyph glyph-name="b" unicode="b" horiz-adv-x="632" 
d="M306 -10q-61 0 -107.5 29.5t-64.5 69.5l-19 -89h-86l159 750h86l-67 -313q24 32 70.5 52.5t97.5 20.5q92 0 153.5 -62t61.5 -165q0 -124 -79.5 -208.5t-204.5 -84.5zM304 69q83 0 141 58.5t58 148.5q0 75 -39.5 115.5t-106.5 40.5q-83 0 -141 -58.5t-58 -148.5
q0 -75 40 -115.5t106 -40.5z" />
    <glyph glyph-name="c" unicode="c" horiz-adv-x="593" 
d="M286 -10q-114 0 -178 70.5t-64 171.5q0 118 77 198t203 80q97 0 158.5 -52t78.5 -134h-92q-16 51 -55.5 79t-96.5 28q-80 0 -132.5 -55.5t-52.5 -136.5q0 -78 43.5 -124t116.5 -46q56 0 100.5 29t66.5 78h92q-26 -84 -95.5 -135t-169.5 -51z" />
    <glyph glyph-name="d" unicode="d" horiz-adv-x="632" 
d="M257 -10q-91 0 -153 62t-62 164q0 125 79.5 209.5t204.5 84.5q61 0 107 -29.5t66 -69.5l71 339h86l-159 -750h-86l15 62q-25 -32 -71 -52t-98 -20zM275 68q83 0 141 58.5t58 148.5q0 74 -39.5 114.5t-106.5 40.5q-83 0 -141 -58.5t-58 -148.5q0 -74 40 -114.5t106 -40.5z
" />
    <glyph glyph-name="e" unicode="e" horiz-adv-x="584" 
d="M270 -10q-99 0 -163 66t-64 170q0 121 77.5 202.5t200.5 81.5q114 0 177 -76t41 -207h-413q0 -70 41 -114.5t109 -44.5q109 0 154 84h91q-28 -73 -92 -117.5t-159 -44.5zM312 434q-60 0 -108 -36t-65 -103h315q0 65 -38 102t-104 37z" />
    <glyph glyph-name="f" unicode="f" horiz-adv-x="363" 
d="M67 0l90 421h-106l17 79h105l21 98q17 79 66 118.5t122 39.5q44 0 74 -13l-16 -76q-30 10 -60 10q-81 0 -102 -91l-19 -86h145l-17 -79h-144l-90 -421h-86z" />
    <glyph glyph-name="g" unicode="g" horiz-adv-x="632" 
d="M232 -219q-99 0 -162 50t-69 123h84q10 -45 50 -71t103 -26q66 0 115.5 42t63.5 120l10 55q-25 -33 -71.5 -53t-97.5 -20q-90 0 -152.5 61t-62.5 160q0 122 79.5 205t204.5 83q62 0 107.5 -29t65.5 -70l18 89h86l-104 -491q-48 -228 -268 -228zM276 79q82 0 140.5 57
t58.5 145q0 72 -40 111t-106 39q-82 0 -140.5 -56.5t-58.5 -144.5q0 -72 40.5 -111.5t105.5 -39.5z" />
    <glyph glyph-name="h" unicode="h" horiz-adv-x="590" 
d="M29 0l159 750h86l-67 -314q60 74 163 74q87 0 131.5 -63t24.5 -159l-63 -288h-86l61 285q15 68 -10.5 107t-83.5 39q-63 0 -109 -42.5t-64 -126.5l-56 -262h-86z" />
    <glyph glyph-name="i" unicode="i" horiz-adv-x="250" 
d="M221 634q-26 0 -44 17.5t-18 43.5q0 25 18 43t44 18t43.5 -18t17.5 -43q0 -26 -17.5 -43.5t-43.5 -17.5zM29 0l106 500h86l-106 -500h-86z" />
    <glyph glyph-name="j" unicode="j" horiz-adv-x="257" 
d="M-60 -219q-29 0 -55 7l16 77q18 -5 39 -5q34 0 54 17.5t29 60.5l119 562h86l-123 -577q-16 -75 -55 -108.5t-110 -33.5zM228 634q-26 0 -44 17.5t-18 43.5q0 25 18 43t44 18t43.5 -18t17.5 -43q0 -26 -17.5 -43.5t-43.5 -17.5z" />
    <glyph glyph-name="k" unicode="k" horiz-adv-x="537" 
d="M394 0l-226 251l-53 -251h-86l159 750h86l-95 -445l253 195h121l-296 -228l245 -272h-108z" />
    <glyph glyph-name="l" unicode="l" horiz-adv-x="250" 
d="M29 0l159 750h86l-159 -750h-86z" />
    <glyph glyph-name="m" unicode="m" horiz-adv-x="885" 
d="M29 0l106 500h86l-14 -64q59 74 155 74q98 0 131 -91q26 40 72 65.5t104 25.5q92 0 132.5 -65t19.5 -158l-62 -287h-86l61 285q14 66 -7 106t-71 40q-58 0 -101.5 -43t-59.5 -117l-58 -271h-86l61 285q14 66 -7 106t-71 40q-58 0 -102 -43.5t-61 -125.5l-56 -262h-86z
" />
    <glyph glyph-name="n" unicode="n" horiz-adv-x="590" 
d="M29 0l106 500h86l-14 -64q60 74 163 74q87 0 131.5 -63t24.5 -159l-63 -288h-86l61 285q15 68 -10.5 107t-83.5 39q-63 0 -109 -42.5t-64 -126.5l-56 -262h-86z" />
    <glyph glyph-name="o" unicode="o" horiz-adv-x="609" 
d="M292 70q80 0 133 55.5t53 136.5q0 78 -44 123t-117 45q-80 0 -132.5 -55.5t-52.5 -135.5q0 -78 43.5 -123.5t116.5 -45.5zM286 -10q-114 0 -178 70.5t-64 171.5q0 118 77 198t203 80q114 0 177.5 -70t63.5 -171q0 -117 -77 -198t-202 -81z" />
    <glyph glyph-name="p" unicode="p" horiz-adv-x="632" 
d="M-13 -197l148 697h85l-13 -63q24 32 70.5 52.5t97.5 20.5q92 0 153.5 -62t61.5 -165q0 -124 -79.5 -208.5t-204.5 -84.5q-61 0 -107.5 29.5t-64.5 69.5l-61 -286h-86zM304 69q83 0 141 58.5t58 148.5q0 75 -39.5 115.5t-106.5 40.5q-83 0 -141 -58.5t-58 -148.5
q0 -75 40 -115.5t106 -40.5z" />
    <glyph glyph-name="q" unicode="q" horiz-adv-x="632" 
d="M367 -209l59 271q-25 -32 -71 -52t-98 -20q-91 0 -153 62t-62 164q0 125 79.5 209.5t204.5 84.5q61 0 107 -29.5t66 -69.5l18 89h86l-150 -709h-86zM275 68q83 0 141 58.5t58 148.5q0 74 -39.5 114.5t-106.5 40.5q-83 0 -141 -58.5t-58 -148.5q0 -74 40 -114.5t106 -40.5
z" />
    <glyph glyph-name="r" unicode="r" horiz-adv-x="370" 
d="M29 0l106 500h86l-19 -88q23 46 67.5 69.5t92.5 23.5q22 0 37 -4l-18 -89q-21 8 -45 8q-52 0 -102 -45t-67 -127l-52 -248h-86z" />
    <glyph glyph-name="s" unicode="s" horiz-adv-x="457" 
d="M207 -10q-85 0 -138.5 43t-55.5 112h87q5 -41 35 -61.5t76 -20.5q39 0 67 20t28 48q0 29 -17 47t-54 33l-50 19q-105 40 -105 136q0 67 47.5 105.5t125.5 38.5q75 0 123 -42.5t52 -100.5h-85q-6 32 -31 51.5t-63 19.5q-34 0 -58.5 -17.5t-24.5 -45.5q0 -49 59 -72l48 -19
q57 -23 88.5 -56t31.5 -88q0 -69 -50 -109.5t-136 -40.5z" />
    <glyph glyph-name="t" unicode="t" horiz-adv-x="375" 
d="M240 -5q-76 0 -117 46t-22 131l53 249h-106l17 79h106l30 139h86l-30 -139h145l-17 -79h-145l-54 -256q-21 -93 75 -93q26 0 52 7l-16 -77q-22 -7 -57 -7z" />
    <glyph glyph-name="u" unicode="u" horiz-adv-x="580" 
d="M219 -10q-87 0 -130.5 64t-23.5 158l62 288h86l-61 -287q-14 -66 10.5 -105t78.5 -39q61 -1 105.5 42t62.5 126l56 263h86l-106 -500h-86l14 64q-58 -74 -154 -74z" />
    <glyph glyph-name="v" unicode="v" horiz-adv-x="544" 
d="M183 0l-125 500h87l92 -385l256 385h99l-337 -500h-72z" />
    <glyph glyph-name="w" unicode="w" horiz-adv-x="761" 
d="M128 0l-64 500h85l44 -367l204 367h66l46 -364l198 364h96l-276 -500h-76l-47 358l-200 -358h-76z" />
    <glyph glyph-name="x" unicode="x" horiz-adv-x="524" 
d="M364 0l-111 186l-189 -186h-111l258 253l-135 247h94l103 -187l182 187h108l-249 -256l146 -244h-96z" />
    <glyph glyph-name="y" unicode="y" horiz-adv-x="545" 
d="M17 -209l160 238l-118 471h89l91 -381l254 381h100l-478 -709h-98z" />
    <glyph glyph-name="z" unicode="z" horiz-adv-x="480" 
d="M-14 0l15 68l353 353h-275l17 79h393l-15 -69l-351 -352h286l-17 -79h-406z" />
    <glyph glyph-name="braceleft" unicode="{" horiz-adv-x="314" 
d="M199 -160h-45q-63 0 -94 39t-16 109l49 233q9 37 -0.5 54t-42.5 17h-15l16 72h15q35 0 49.5 15.5t23.5 55.5l50 233q15 74 46.5 103t106.5 29h61l-15 -72h-48q-37 0 -53 -15.5t-24 -57.5l-48 -227q-9 -49 -26 -71t-51 -37q27 -14 33.5 -40.5t-3.5 -73.5l-48 -228
q-14 -66 46 -66h48z" />
    <glyph glyph-name="bar" unicode="|" horiz-adv-x="306" 
d="M122 -110v820h78v-820h-78z" />
    <glyph glyph-name="braceright" unicode="}" horiz-adv-x="314" 
d="M139 801h45q63 0 94 -39t16 -109l-49 -233q-9 -37 0.5 -54t42.5 -17h15l-16 -72h-15q-35 0 -49.5 -15.5t-23.5 -55.5l-50 -233q-15 -74 -46.5 -103t-106.5 -29h-61l15 72h48q37 0 53 15.5t24 57.5l48 227q9 49 26 71t51 37q-27 14 -33.5 40.5t3.5 73.5l48 228
q14 66 -46 66h-48z" />
    <glyph glyph-name="asciitilde" unicode="~" horiz-adv-x="387" 
d="M61 230l55 119h46l80 -58l27 58h68l-55 -119h-46l-82 58l-26 -58h-67z" />
    <glyph glyph-name="uni00A0" unicode="&#xa0;" horiz-adv-x="241" 
 />
    <glyph glyph-name="exclamdown" unicode="&#xa1;" horiz-adv-x="258" 
d="M161 279l-27 -203l-61 -285h-86l61 285l59 203h54zM166 362q-32 0 -53 22t-21 53t21 53t53 22q30 0 52 -22.5t22 -52.5q0 -31 -21.5 -53t-52.5 -22z" />
    <glyph glyph-name="cent" unicode="&#xa2;" horiz-adv-x="607" 
d="M288 -10h-12l-16 -78h-54l18 85q-84 19 -131 84.5t-47 150.5q0 118 77 198t203 80h7l17 78h54l-18 -84q72 -15 117 -63t60 -117h-92q-26 81 -102 100l-76 -355h1q56 0 100.5 29t66.5 78h92q-26 -84 -95.5 -135t-169.5 -51zM134 239q0 -63 28 -105.5t79 -57.5l75 355
q-78 -2 -130 -57t-52 -135z" />
    <glyph glyph-name="sterling" unicode="&#xa3;" horiz-adv-x="556" 
d="M68 336l11 55h62q-2 46 -2 70q0 115 63.5 188t177.5 73q91 0 144 -65t44 -150h-86q6 53 -23.5 92t-87.5 39q-67 0 -106 -48t-39 -118q0 -48 4 -81h191l-11 -55h-174q3 -32 3 -63q0 -121 -64 -189h305l-18 -84h-466l18 84h61q77 64 77 166q0 22 -6 86h-78z" />
    <glyph glyph-name="yen" unicode="&#xa5;" horiz-adv-x="678" 
d="M96 300l11 54h173l-154 356h97l135 -324l271 324h111l-305 -356h173l-12 -54h-207l-16 -75h207l-11 -54h-208l-36 -171h-86l36 171h-207l12 54h207l16 75h-207z" />
    <glyph glyph-name="brokenbar" unicode="&#xa6;" horiz-adv-x="306" 
d="M122 -110v362h78v-362h-78zM122 348v362h78v-362h-78z" />
    <glyph glyph-name="section" unicode="&#xa7;" horiz-adv-x="458" 
d="M161 -219q-57 0 -109.5 34.5t-54.5 104.5h80q3 -35 30 -52t56 -17q44 0 68.5 26.5t24.5 71.5q0 65 -73 110l-53 34q-80 51 -80 148q2 134 145 180q-75 63 -75 148q0 65 46 109t120 44q60 0 102.5 -33t50.5 -106h-80q-2 38 -25.5 54t-50.5 16q-39 0 -61.5 -22.5
t-21.5 -60.5q0 -63 73 -108l53 -34q82 -52 82 -148q0 -61 -37.5 -107.5t-108.5 -72.5q74 -61 74 -141q0 -82 -47 -130t-128 -48zM270 369l-4 2q-137 -36 -137 -120q0 -29 16.5 -55t41.5 -43l5 -4q137 39 137 120q0 58 -59 100z" />
    <glyph glyph-name="dieresis" unicode="&#xa8;" 
d="M27 596q-25 0 -42 17t-17 41t17 41.5t42 17.5q24 0 41 -17.5t17 -41.5t-17 -41t-41 -17zM252 596q-25 0 -42 17t-17 41t17 41.5t42 17.5q24 0 41 -17.5t17 -41.5t-17 -41t-41 -17z" />
    <glyph glyph-name="copyright" unicode="&#xa9;" horiz-adv-x="837" 
d="M442 163q-84 0 -139.5 55.5t-55.5 136.5t55.5 137t139.5 56q66 0 115.5 -37t65.5 -96h-77q-12 30 -40.5 47.5t-63.5 17.5q-54 0 -88.5 -36.5t-34.5 -88.5q0 -54 34 -89t89 -35q35 0 63.5 17.5t40.5 46.5h77q-16 -58 -65.5 -95t-115.5 -37zM438 59q122 0 209 87t87 209
t-87 209t-209 87t-209 -87t-87 -209t87 -209t209 -87zM438 -12q-151 0 -259 108t-108 259t108 259t259 108q152 0 259.5 -108t107.5 -259t-107.5 -259t-259.5 -108z" />
    <glyph glyph-name="ordfeminine" unicode="&#xaa;" horiz-adv-x="419" 
d="M225 404q-54 0 -88 38t-34 98q0 75 46.5 125.5t117.5 50.5q35 0 61.5 -16t35.5 -36l10 46h69l-64 -300h-69l7 32q-30 -38 -92 -38zM247 466q42 0 70.5 30t28.5 77q0 38 -19.5 59t-53.5 21q-43 0 -71.5 -30t-28.5 -77q0 -38 20 -59t54 -21z" />
    <glyph glyph-name="guillemotleft" unicode="&#xab;" horiz-adv-x="479" 
d="M213 250l186 217h75l-164 -229l71 -205h-69zM40 250l186 217h75l-164 -229l71 -205h-69z" />
    <glyph glyph-name="uni00AD" unicode="&#xad;" horiz-adv-x="385" 
d="M59 237l18 86h255l-18 -86h-255z" />
    <glyph glyph-name="registered" unicode="&#xae;" horiz-adv-x="837" 
d="M438 -12q-151 0 -259 108t-108 259t108 259t259 108q152 0 259.5 -108t107.5 -259t-107.5 -259t-259.5 -108zM438 59q122 0 209 87t87 209t-87 209t-209 87t-209 -87t-87 -209t87 -209t209 -87zM319 169v373h139q52 0 83.5 -30.5t31.5 -78.5q0 -75 -80 -99l135 -165h-85
l-131 159h-22v-159h-71zM390 389h61q23 0 37 12t14 32q0 43 -51 43h-61v-87z" />
    <glyph glyph-name="macron" unicode="&#xaf;" 
d="M-25 641l15 69h322l-15 -69h-322z" />
    <glyph glyph-name="degree" unicode="&#xb0;" horiz-adv-x="346" 
d="M238 517q28 0 47.5 19.5t19.5 47.5t-19.5 48t-47.5 20q-29 0 -48.5 -20t-19.5 -48t19.5 -47.5t48.5 -19.5zM238 455q-54 0 -92 37.5t-38 91.5t38 92t92 38t91.5 -38t37.5 -92t-37.5 -91.5t-91.5 -37.5z" />
    <glyph glyph-name="twosuperior" unicode="&#xb2;" horiz-adv-x="355" 
d="M66 410l7 35q4 19 11.5 36.5t14 29.5t21.5 26t21.5 20.5t27.5 19t25.5 15t29.5 15.5t27 14q49 27 71 49.5t22 53.5q0 26 -17 41t-45 15q-31 0 -53.5 -18.5t-27.5 -52.5h-71q6 66 51 103t107 37q53 0 90.5 -32t37.5 -86q0 -58 -28.5 -94t-99.5 -73l-21 -10.5t-24 -12.5
t-21 -12.5t-21 -15t-14.5 -16t-10.5 -19.5h192l-14 -68h-288z" />
    <glyph glyph-name="threesuperior" unicode="&#xb3;" horiz-adv-x="366" 
d="M244 403q-61 0 -107.5 38.5t-40.5 104.5h68q-2 -35 22.5 -54.5t58.5 -19.5q36 0 58 19.5t22 53.5q0 27 -17 42.5t-49 15.5h-45l14 60h32q35 0 58 17t22 48q0 24 -17.5 38t-44.5 14q-30 0 -54.5 -18.5t-30.5 -52.5h-70q8 66 53.5 103t106.5 37q53 0 90.5 -31.5t37.5 -81.5
q0 -76 -71 -107q53 -26 53 -89q0 -57 -39.5 -97t-109.5 -40z" />
    <glyph glyph-name="acute" unicode="&#xb4;" 
d="M8 560l144 190h118l-190 -190h-72z" />
    <glyph glyph-name="paragraph" unicode="&#xb6;" horiz-adv-x="634" 
d="M168 -184l94 444q-75 10 -128.5 71t-53.5 149t76 159t202 71h265l-190 -894h-79l174 815h-108l-173 -815h-79z" />
    <glyph glyph-name="periodcentered" unicode="&#xb7;" horiz-adv-x="269" 
d="M136 197q-32 0 -53 22t-21 53t21 53t53 22q30 0 52 -22.5t22 -52.5q0 -31 -21.5 -53t-52.5 -22z" />
    <glyph glyph-name="cedilla" unicode="&#xb8;" 
d="M-151 -204l11 53q31 -15 76 -15q32 0 53.5 11.5t21.5 31.5q0 28 -41 28q-23 0 -47 -10l-28 21l67 87h58l-43 -55q18 6 35 6q32 0 51 -19t19 -49q0 -52 -38.5 -78.5t-104.5 -26.5q-59 0 -90 15z" />
    <glyph glyph-name="onesuperior" unicode="&#xb9;" horiz-adv-x="227" 
d="M127 410l78 363h-89l68 69h105l-92 -432h-70z" />
    <glyph glyph-name="ordmasculine" unicode="&#xba;" horiz-adv-x="399" 
d="M253 468q41 0 67 28.5t26 70.5q0 39 -21.5 61.5t-58.5 22.5q-41 0 -67 -28t-26 -70q0 -39 21.5 -62t58.5 -23zM247 404q-68 0 -106.5 42t-38.5 101q0 72 47 120.5t123 48.5q68 0 106.5 -42t38.5 -101q0 -72 -47 -120.5t-123 -48.5z" />
    <glyph glyph-name="guillemotright" unicode="&#xbb;" horiz-adv-x="480" 
d="M435 251l-186 -217h-75l164 229l-71 205h69zM262 251l-186 -217h-75l164 229l-71 205h69z" />
    <glyph glyph-name="onequarter" unicode="&#xbc;" horiz-adv-x="820" 
d="M99 278l78 363h-89l68 69h105l-92 -432h-70zM102 0h-87l651 710h87zM615 1l22 107h-221l12 56l286 269h62l-55 -261h58l-14 -64h-58l-23 -107h-69zM524 172h127l31 147z" />
    <glyph glyph-name="onehalf" unicode="&#xbd;" horiz-adv-x="812" 
d="M99 278l78 363h-89l68 69h105l-92 -432h-70zM102 0h-87l651 710h87zM437 1l7 35q4 19 11.5 36.5t14 29.5t21.5 26t21.5 20.5t27.5 19t25.5 15t29.5 15.5t27 14q49 27 71 49.5t22 53.5q0 26 -17.5 41t-44.5 15q-31 0 -53.5 -18.5t-27.5 -52.5h-71q6 66 51 103t107 37
q53 0 90.5 -32t37.5 -86q0 -58 -28.5 -94t-99.5 -73l-21 -10.5t-24 -12.5t-21 -12.5t-21 -15t-14.5 -16t-10.5 -19.5h192l-14 -68h-288z" />
    <glyph glyph-name="threequarters" unicode="&#xbe;" horiz-adv-x="915" 
d="M216 271q-61 0 -107.5 38.5t-40.5 104.5h68q-2 -35 22.5 -54.5t58.5 -19.5q36 0 58 19.5t22 53.5q0 27 -17 42.5t-49 15.5h-45l14 60h32q35 0 58 17t22 48q0 24 -17.5 38t-44.5 14q-30 0 -54.5 -18.5t-30.5 -52.5h-70q8 66 53.5 103t106.5 37q53 0 90.5 -31.5t37.5 -81.5
q0 -76 -71 -107q53 -26 53 -89q0 -57 -39.5 -97t-109.5 -40zM197 0h-87l651 710h87zM710 1l22 107h-221l12 56l286 269h62l-55 -261h58l-14 -64h-58l-23 -107h-69zM619 172h127l31 147z" />
    <glyph glyph-name="questiondown" unicode="&#xbf;" horiz-adv-x="503" 
d="M170 -220q-84 0 -138 50t-54 128q0 68 40 117t110 93q78 50 94 98h90q-11 -48 -47.5 -87t-77.5 -65q-122 -78 -122 -149q0 -45 31 -73t82 -28q57 0 101 35.5t50 97.5h86q-8 -100 -76.5 -158.5t-168.5 -58.5zM302 360q-32 0 -53 22t-21 53t21 53t53 22q30 0 52 -22.5
t22 -52.5q0 -31 -21.5 -53t-52.5 -22z" />
    <glyph glyph-name="Agrave" unicode="&#xc0;" horiz-adv-x="717" 
d="M-52 0l464 710h78l163 -710h-89l-47 207h-330l-135 -207h-104zM432 583l-191 -292h257zM481 770h-66l-89 157h106z" />
    <glyph glyph-name="Aacute" unicode="&#xc1;" horiz-adv-x="717" 
d="M-52 0l464 710h78l163 -710h-89l-47 207h-330l-135 -207h-104zM432 583l-191 -292h257zM438 770l107 157h111l-144 -157h-74z" />
    <glyph glyph-name="Acircumflex" unicode="&#xc2;" horiz-adv-x="717" 
d="M-52 0l464 710h78l163 -710h-89l-47 207h-330l-135 -207h-104zM432 583l-191 -292h257zM301 767l16 81l177 84l147 -94l-17 -71l-138 87z" />
    <glyph glyph-name="Atilde" unicode="&#xc3;" horiz-adv-x="717" 
d="M-52 0l464 710h78l163 -710h-89l-47 207h-330l-135 -207h-104zM432 583l-191 -292h257zM294 786l4 18q11 44 45 69.5t74 25.5q29 0 73 -22t57 -22q34 0 52 44h65l-4 -19q-11 -43 -45 -68.5t-74 -25.5q-30 0 -73 22t-57 22q-34 0 -52 -44h-65z" />
    <glyph glyph-name="Adieresis" unicode="&#xc4;" horiz-adv-x="717" 
d="M-52 0l464 710h78l163 -710h-89l-47 207h-330l-135 -207h-104zM432 583l-191 -292h257zM368 785q-25 0 -42.5 17t-17.5 41t17.5 41.5t42.5 17.5q23 0 40 -17.5t17 -41.5t-17 -41t-40 -17zM593 785q-25 0 -42.5 17t-17.5 41t17.5 41.5t42.5 17.5q24 0 40.5 -17.5
t16.5 -41.5t-16.5 -41t-40.5 -17z" />
    <glyph glyph-name="Aring" unicode="&#xc5;" horiz-adv-x="717" 
d="M-52 0l464 710h78l163 -710h-89l-47 207h-330l-135 -207h-104zM432 583l-191 -292h257zM485 753q-50 0 -85.5 35t-35.5 85t35.5 85t85.5 35t86 -35.5t36 -84.5t-36 -84.5t-86 -35.5zM485 804q29 0 49.5 20t20.5 49t-20.5 49.5t-49.5 20.5t-49.5 -20.5t-20.5 -49.5
t20.5 -49t49.5 -20z" />
    <glyph glyph-name="AE" unicode="&#xc6;" horiz-adv-x="929" 
d="M409 0l44 207h-255l-170 -207h-107l587 710h466l-18 -88h-322l-46 -215h262l-19 -88h-261l-50 -231h322l-19 -88h-414zM268 291h203l70 331h-1z" />
    <glyph glyph-name="Ccedilla" unicode="&#xc7;" horiz-adv-x="793" 
d="M397 -12q-150 0 -242 95t-92 234q0 171 111.5 288t294.5 117q123 0 208.5 -69.5t108.5 -176.5h-99q-21 71 -80.5 114.5t-145.5 43.5q-130 0 -217 -89.5t-87 -218.5q0 -111 66.5 -180.5t184.5 -69.5q85 0 151 42t105 116h98q-44 -113 -137 -179.5t-228 -66.5zM238 -204
l11 53q31 -15 75 -15q32 0 54 12t22 32q0 27 -41 27q-23 0 -47 -10l-28 21l68 87h57l-43 -54q17 5 39 5q30 0 48 -18t18 -45q0 -52 -40.5 -81t-105.5 -29q-50 0 -87 15z" />
    <glyph glyph-name="Egrave" unicode="&#xc8;" horiz-adv-x="557" 
d="M36 0l151 710h414l-18 -88h-322l-46 -215h262l-19 -88h-261l-50 -231h322l-19 -88h-414zM424 770h-66l-89 157h106z" />
    <glyph glyph-name="Eacute" unicode="&#xc9;" horiz-adv-x="557" 
d="M36 0l151 710h414l-18 -88h-322l-46 -215h262l-19 -88h-261l-50 -231h322l-19 -88h-414zM381 770l107 157h111l-144 -157h-74z" />
    <glyph glyph-name="Ecircumflex" unicode="&#xca;" horiz-adv-x="557" 
d="M36 0l151 710h414l-18 -88h-322l-46 -215h262l-19 -88h-261l-50 -231h322l-19 -88h-414zM244 767l16 81l177 84l147 -94l-17 -71l-138 87z" />
    <glyph glyph-name="Edieresis" unicode="&#xcb;" horiz-adv-x="557" 
d="M36 0l151 710h414l-18 -88h-322l-46 -215h262l-19 -88h-261l-50 -231h322l-19 -88h-414zM310 785q-25 0 -42.5 17t-17.5 41t17.5 41.5t42.5 17.5q23 0 40 -17.5t17 -41.5t-17 -41t-40 -17zM535 785q-25 0 -42.5 17t-17.5 41t17.5 41.5t42.5 17.5q24 0 40.5 -17.5
t16.5 -41.5t-16.5 -41t-40.5 -17z" />
    <glyph glyph-name="Igrave" unicode="&#xcc;" horiz-adv-x="283" 
d="M36 0l151 710h93l-151 -710h-93zM264 770h-66l-89 157h106z" />
    <glyph glyph-name="Iacute" unicode="&#xcd;" horiz-adv-x="283" 
d="M36 0l151 710h93l-151 -710h-93zM221 770l107 157h111l-144 -157h-74z" />
    <glyph glyph-name="Icircumflex" unicode="&#xce;" horiz-adv-x="283" 
d="M36 0l151 710h93l-151 -710h-93zM84 767l16 81l177 84l147 -94l-17 -71l-138 87z" />
    <glyph glyph-name="Idieresis" unicode="&#xcf;" horiz-adv-x="283" 
d="M36 0l151 710h93l-151 -710h-93zM151 785q-25 0 -42.5 17t-17.5 41t17.5 41.5t42.5 17.5q23 0 40 -17.5t17 -41.5t-17 -41t-40 -17zM376 785q-25 0 -42.5 17t-17.5 41t17.5 41.5t42.5 17.5q24 0 40.5 -17.5t16.5 -41.5t-16.5 -41t-40.5 -17z" />
    <glyph glyph-name="Eth" unicode="&#xd0;" horiz-adv-x="731" 
d="M154 87h143q132 0 221.5 85t89.5 215q0 108 -66 172t-184 64h-89zM43 0l151 710h177q147 0 238.5 -89.5t91.5 -223.5q0 -175 -114 -286t-301 -111h-243zM38 319l17 82h326l-17 -82h-326z" />
    <glyph glyph-name="Ntilde" unicode="&#xd1;" horiz-adv-x="795" 
d="M642 0h-81l-313 563l-119 -563h-93l151 710h81l312 -564l120 564h93zM330 786l4 18q11 44 45 69.5t74 25.5q29 0 73 -22t57 -22q34 0 52 44h65l-4 -19q-11 -43 -45 -68.5t-74 -25.5q-30 0 -73 22t-57 22q-34 0 -52 -44h-65z" />
    <glyph glyph-name="Ograve" unicode="&#xd2;" horiz-adv-x="832" 
d="M406 76q128 0 215 89.5t87 218.5q0 112 -65 181t-183 69q-128 0 -215 -89.5t-87 -218.5q0 -112 64.5 -181t183.5 -69zM394 -12q-149 0 -239.5 94.5t-90.5 234.5q0 172 111 288.5t296 116.5q149 0 239.5 -94.5t90.5 -234.5q0 -172 -111 -288.5t-296 -116.5zM526 770h-66
l-89 157h106z" />
    <glyph glyph-name="Oacute" unicode="&#xd3;" horiz-adv-x="832" 
d="M406 76q128 0 215 89.5t87 218.5q0 112 -65 181t-183 69q-128 0 -215 -89.5t-87 -218.5q0 -112 64.5 -181t183.5 -69zM394 -12q-149 0 -239.5 94.5t-90.5 234.5q0 172 111 288.5t296 116.5q149 0 239.5 -94.5t90.5 -234.5q0 -172 -111 -288.5t-296 -116.5zM483 770
l107 157h111l-144 -157h-74z" />
    <glyph glyph-name="Ocircumflex" unicode="&#xd4;" horiz-adv-x="832" 
d="M406 76q128 0 215 89.5t87 218.5q0 112 -65 181t-183 69q-128 0 -215 -89.5t-87 -218.5q0 -112 64.5 -181t183.5 -69zM394 -12q-149 0 -239.5 94.5t-90.5 234.5q0 172 111 288.5t296 116.5q149 0 239.5 -94.5t90.5 -234.5q0 -172 -111 -288.5t-296 -116.5zM346 767l16 81
l177 84l147 -94l-17 -71l-138 87z" />
    <glyph glyph-name="Otilde" unicode="&#xd5;" horiz-adv-x="832" 
d="M406 76q128 0 215 89.5t87 218.5q0 112 -65 181t-183 69q-128 0 -215 -89.5t-87 -218.5q0 -112 64.5 -181t183.5 -69zM394 -12q-149 0 -239.5 94.5t-90.5 234.5q0 172 111 288.5t296 116.5q149 0 239.5 -94.5t90.5 -234.5q0 -172 -111 -288.5t-296 -116.5zM339 786l4 18
q11 44 45 69.5t74 25.5q29 0 73 -22t57 -22q34 0 52 44h65l-4 -19q-11 -43 -45 -68.5t-74 -25.5q-30 0 -73 22t-57 22q-34 0 -52 -44h-65z" />
    <glyph glyph-name="Odieresis" unicode="&#xd6;" horiz-adv-x="832" 
d="M406 76q128 0 215 89.5t87 218.5q0 112 -65 181t-183 69q-128 0 -215 -89.5t-87 -218.5q0 -112 64.5 -181t183.5 -69zM394 -12q-149 0 -239.5 94.5t-90.5 234.5q0 172 111 288.5t296 116.5q149 0 239.5 -94.5t90.5 -234.5q0 -172 -111 -288.5t-296 -116.5zM413 785
q-25 0 -42.5 17t-17.5 41t17.5 41.5t42.5 17.5q23 0 40 -17.5t17 -41.5t-17 -41t-40 -17zM638 785q-25 0 -42.5 17t-17.5 41t17.5 41.5t42.5 17.5q24 0 40.5 -17.5t16.5 -41.5t-16.5 -41t-40.5 -17z" />
    <glyph glyph-name="multiply" unicode="&#xd7;" horiz-adv-x="523" 
d="M123 94l-56 55l143 141l-143 140l56 56l143 -140l142 140l56 -56l-143 -140l143 -141l-56 -55l-142 140z" />
    <glyph glyph-name="Oslash" unicode="&#xd8;" horiz-adv-x="832" 
d="M406 76q128 0 215 89.5t87 218.5q0 112 -65 181t-183 69q-128 0 -215 -89.5t-87 -218.5q0 -112 64.5 -181t183.5 -69zM394 -12q-149 0 -239.5 94.5t-90.5 234.5q0 172 111 288.5t296 116.5q149 0 239.5 -94.5t90.5 -234.5q0 -172 -111 -288.5t-296 -116.5zM845 676
l-774 -696l-48 53l774 697z" />
    <glyph glyph-name="Ugrave" unicode="&#xd9;" horiz-adv-x="727" 
d="M733 710l-93 -437q-30 -142 -106.5 -213.5t-211.5 -71.5q-128 0 -196 80t-40 208l91 434h93l-92 -437q-21 -95 21 -146t128 -51t143 49.5t77 145.5l93 439h93zM485 770h-66l-89 157h106z" />
    <glyph glyph-name="Uacute" unicode="&#xda;" horiz-adv-x="727" 
d="M733 710l-93 -437q-30 -142 -106.5 -213.5t-211.5 -71.5q-128 0 -196 80t-40 208l91 434h93l-92 -437q-21 -95 21 -146t128 -51t143 49.5t77 145.5l93 439h93zM443 770l107 157h111l-144 -157h-74z" />
    <glyph glyph-name="Ucircumflex" unicode="&#xdb;" horiz-adv-x="727" 
d="M733 710l-93 -437q-30 -142 -106.5 -213.5t-211.5 -71.5q-128 0 -196 80t-40 208l91 434h93l-92 -437q-21 -95 21 -146t128 -51t143 49.5t77 145.5l93 439h93zM306 767l16 81l177 84l147 -94l-17 -71l-138 87z" />
    <glyph glyph-name="Udieresis" unicode="&#xdc;" horiz-adv-x="727" 
d="M733 710l-93 -437q-30 -142 -106.5 -213.5t-211.5 -71.5q-128 0 -196 80t-40 208l91 434h93l-92 -437q-21 -95 21 -146t128 -51t143 49.5t77 145.5l93 439h93zM372 785q-25 0 -42.5 17t-17.5 41t17.5 41.5t42.5 17.5q23 0 40 -17.5t17 -41.5t-17 -41t-40 -17zM597 785
q-25 0 -42.5 17t-17.5 41t17.5 41.5t42.5 17.5q24 0 40.5 -17.5t16.5 -41.5t-16.5 -41t-40.5 -17z" />
    <glyph glyph-name="Yacute" unicode="&#xdd;" horiz-adv-x="672" 
d="M231 0l64 300l-189 410h99l147 -321l283 321h115l-363 -410l-64 -300h-92zM407 770l107 157h111l-144 -157h-74z" />
    <glyph glyph-name="Thorn" unicode="&#xde;" horiz-adv-x="596" 
d="M36 0l151 710h93l-27 -129h104q102 0 159.5 -57.5t57.5 -142.5q0 -110 -76.5 -180.5t-217.5 -70.5h-123l-28 -130h-93zM174 215h124q82 0 133 47t51 115q0 51 -33 84.5t-98 33.5h-117z" />
    <glyph glyph-name="germandbls" unicode="&#xdf;" horiz-adv-x="577" 
d="M29 0l121 572q18 87 76 135.5t146 48.5q79 0 133 -51.5t54 -127.5q0 -65 -35 -116.5t-99 -74.5q53 -27 78.5 -70.5t25.5 -90.5q0 -102 -71.5 -163.5t-198.5 -61.5h-58l17 81h47q77 0 128 39.5t51 105.5q0 51 -38 87.5t-94 36.5h-34l17 80h25q65 0 108.5 38.5t43.5 97.5
q0 49 -29 79t-77 30q-50 0 -86 -31.5t-47 -85.5l-118 -558h-86z" />
    <glyph glyph-name="agrave" unicode="&#xe0;" horiz-adv-x="632" 
d="M257 -10q-91 0 -153 62.5t-62 164.5q0 124 79.5 208.5t204.5 84.5q62 0 107.5 -29t65.5 -70l18 89h86l-106 -500h-86l15 63q-25 -33 -71.5 -53t-97.5 -20zM275 68q83 0 141 58.5t58 148.5q0 75 -39.5 115.5t-106.5 40.5q-83 0 -141 -58.5t-58 -148.5q0 -75 40 -115.5
t106 -40.5zM407 560h-61l-62 190h97z" />
    <glyph glyph-name="aacute" unicode="&#xe1;" horiz-adv-x="632" 
d="M257 -10q-91 0 -153 62.5t-62 164.5q0 124 79.5 208.5t204.5 84.5q62 0 107.5 -29t65.5 -70l18 89h86l-106 -500h-86l15 63q-25 -33 -71.5 -53t-97.5 -20zM275 68q83 0 141 58.5t58 148.5q0 75 -39.5 115.5t-106.5 40.5q-83 0 -141 -58.5t-58 -148.5q0 -75 40 -115.5
t106 -40.5zM348 560l144 190h118l-190 -190h-72z" />
    <glyph glyph-name="acircumflex" unicode="&#xe2;" horiz-adv-x="632" 
d="M257 -10q-91 0 -153 62.5t-62 164.5q0 124 79.5 208.5t204.5 84.5q62 0 107.5 -29t65.5 -70l18 89h86l-106 -500h-86l15 63q-25 -33 -71.5 -53t-97.5 -20zM275 68q83 0 141 58.5t58 148.5q0 75 -39.5 115.5t-106.5 40.5q-83 0 -141 -58.5t-58 -148.5q0 -75 40 -115.5
t106 -40.5zM419 756l137 -107l-16 -73l-132 102l-189 -102l20 83z" />
    <glyph glyph-name="atilde" unicode="&#xe3;" horiz-adv-x="632" 
d="M257 -10q-91 0 -153 62.5t-62 164.5q0 124 79.5 208.5t204.5 84.5q62 0 107.5 -29t65.5 -70l18 89h86l-106 -500h-86l15 63q-25 -33 -71.5 -53t-97.5 -20zM275 68q83 0 141 58.5t58 148.5q0 75 -39.5 115.5t-106.5 40.5q-83 0 -141 -58.5t-58 -148.5q0 -75 40 -115.5
t106 -40.5zM514 706h67l-5 -18q-14 -46 -46 -70.5t-73 -24.5q-30 0 -70.5 22t-57.5 22q-35 0 -52 -44h-67l5 18q14 47 46 71t74 24q30 0 70 -22t57 -22q35 0 52 44z" />
    <glyph glyph-name="adieresis" unicode="&#xe4;" horiz-adv-x="632" 
d="M257 -10q-91 0 -153 62.5t-62 164.5q0 124 79.5 208.5t204.5 84.5q62 0 107.5 -29t65.5 -70l18 89h86l-106 -500h-86l15 63q-25 -33 -71.5 -53t-97.5 -20zM275 68q83 0 141 58.5t58 148.5q0 75 -39.5 115.5t-106.5 40.5q-83 0 -141 -58.5t-58 -148.5q0 -75 40 -115.5
t106 -40.5zM284 596q-25 0 -42 17t-17 41t17 41.5t42 17.5q24 0 41 -17.5t17 -41.5t-17 -41t-41 -17zM509 596q-25 0 -42 17t-17 41t17 41.5t42 17.5q24 0 41 -17.5t17 -41.5t-17 -41t-41 -17z" />
    <glyph glyph-name="aring" unicode="&#xe5;" horiz-adv-x="632" 
d="M257 -10q-91 0 -153 62.5t-62 164.5q0 124 79.5 208.5t204.5 84.5q62 0 107.5 -29t65.5 -70l18 89h86l-106 -500h-86l15 63q-25 -33 -71.5 -53t-97.5 -20zM275 68q83 0 141 58.5t58 148.5q0 75 -39.5 115.5t-106.5 40.5q-83 0 -141 -58.5t-58 -148.5q0 -75 40 -115.5
t106 -40.5zM397 543q-50 0 -85.5 35t-35.5 85t35.5 85t85.5 35t86 -35.5t36 -84.5t-36 -84.5t-86 -35.5zM397 594q29 0 50 20t21 49t-21 49.5t-50 20.5t-49 -20.5t-20 -49.5t20 -49t49 -20z" />
    <glyph glyph-name="ae" unicode="&#xe6;" horiz-adv-x="916" 
d="M601 -10q-133 0 -196 109q-64 -106 -202 -106q-83 0 -132.5 38.5t-48.5 104.5q0 70 59 105.5t188 53.5q86 11 103 21q17 11 22 31q8 38 -20.5 62.5t-85.5 24.5q-50 0 -85 -25t-43 -74h-87q8 78 71 126.5t150 48.5q118 0 160 -79q79 79 198 79q114 0 177 -76t41 -207h-413
q0 -70 41 -114.5t109 -44.5q109 0 154 84h91q-28 -73 -92 -117.5t-159 -44.5zM643 434q-60 0 -108 -36t-65 -103h315q0 65 -38 102t-104 37zM361 177l13 68v3q1 1 1 3q-14 -6 -39.5 -12t-58 -11.5t-43.5 -7.5q-71 -17 -94.5 -33.5t-23.5 -50.5t28.5 -53t74.5 -19
q55 0 93 28.5t49 84.5z" />
    <glyph glyph-name="ccedilla" unicode="&#xe7;" horiz-adv-x="593" 
d="M286 -10q-114 0 -178 70.5t-64 171.5q0 118 77 198t203 80q97 0 158.5 -52t78.5 -134h-92q-16 51 -55.5 79t-96.5 28q-80 0 -132.5 -55.5t-52.5 -136.5q0 -78 43.5 -124t116.5 -46q56 0 100.5 29t66.5 78h92q-26 -84 -95.5 -135t-169.5 -51zM138 -204l11 53
q31 -15 76 -15q32 0 53.5 11.5t21.5 31.5q0 28 -41 28q-23 0 -47 -10l-28 21l67 87h58l-43 -55q18 6 35 6q32 0 51 -19t19 -49q0 -52 -38.5 -78.5t-104.5 -26.5q-59 0 -90 15z" />
    <glyph glyph-name="egrave" unicode="&#xe8;" horiz-adv-x="584" 
d="M270 -10q-99 0 -163 66t-64 170q0 121 77.5 202.5t200.5 81.5q114 0 177 -76t41 -207h-413q0 -70 41 -114.5t109 -44.5q109 0 154 84h91q-28 -73 -92 -117.5t-159 -44.5zM312 434q-60 0 -108 -36t-65 -103h315q0 65 -38 102t-104 37zM375 560h-61l-62 190h97z" />
    <glyph glyph-name="eacute" unicode="&#xe9;" horiz-adv-x="584" 
d="M270 -10q-99 0 -163 66t-64 170q0 121 77.5 202.5t200.5 81.5q114 0 177 -76t41 -207h-413q0 -70 41 -114.5t109 -44.5q109 0 154 84h91q-28 -73 -92 -117.5t-159 -44.5zM312 434q-60 0 -108 -36t-65 -103h315q0 65 -38 102t-104 37zM317 560l144 190h118l-190 -190h-72z
" />
    <glyph glyph-name="ecircumflex" unicode="&#xea;" horiz-adv-x="584" 
d="M270 -10q-99 0 -163 66t-64 170q0 121 77.5 202.5t200.5 81.5q114 0 177 -76t41 -207h-413q0 -70 41 -114.5t109 -44.5q109 0 154 84h91q-28 -73 -92 -117.5t-159 -44.5zM312 434q-60 0 -108 -36t-65 -103h315q0 65 -38 102t-104 37zM387 756l137 -107l-16 -73l-132 102
l-189 -102l20 83z" />
    <glyph glyph-name="edieresis" unicode="&#xeb;" horiz-adv-x="584" 
d="M270 -10q-99 0 -163 66t-64 170q0 121 77.5 202.5t200.5 81.5q114 0 177 -76t41 -207h-413q0 -70 41 -114.5t109 -44.5q109 0 154 84h91q-28 -73 -92 -117.5t-159 -44.5zM312 434q-60 0 -108 -36t-65 -103h315q0 65 -38 102t-104 37zM252 596q-25 0 -42 17t-17 41
t17 41.5t42 17.5q24 0 41 -17.5t17 -41.5t-17 -41t-41 -17zM477 596q-25 0 -42 17t-17 41t17 41.5t42 17.5q24 0 41 -17.5t17 -41.5t-17 -41t-41 -17z" />
    <glyph glyph-name="igrave" unicode="&#xec;" horiz-adv-x="250" 
d="M29 0l106 500h86l-106 -500h-86zM221 560h-61l-62 190h97z" />
    <glyph glyph-name="iacute" unicode="&#xed;" horiz-adv-x="250" 
d="M29 0l106 500h86l-106 -500h-86zM163 560l144 190h118l-190 -190h-72z" />
    <glyph glyph-name="icircumflex" unicode="&#xee;" horiz-adv-x="250" 
d="M29 0l106 500h86l-106 -500h-86zM233 756l137 -107l-16 -73l-132 102l-189 -102l20 83z" />
    <glyph glyph-name="idieresis" unicode="&#xef;" horiz-adv-x="250" 
d="M29 0l106 500h86l-106 -500h-86zM113 596q-26 0 -43.5 17.5t-17.5 43.5q0 25 17.5 42.5t43.5 17.5q25 0 42.5 -17.5t17.5 -42.5q0 -26 -17.5 -43.5t-42.5 -17.5zM309 596q-26 0 -43.5 17.5t-17.5 43.5q0 25 17.5 42.5t43.5 17.5q25 0 42.5 -17.5t17.5 -42.5
q0 -26 -17.5 -43.5t-42.5 -17.5z" />
    <glyph glyph-name="eth" unicode="&#xf0;" horiz-adv-x="610" 
d="M452 574l83 -177q31 -66 31 -128q0 -117 -77 -198t-203 -81q-114 0 -178 70.5t-64 171.5q0 118 77 198t203 80q36 0 75 -12l-36 76h-148l14 68h103l-50 108h89l50 -108h123l-14 -68h-78zM293 70q80 0 132.5 55.5t52.5 136.5q0 78 -44 123t-117 45q-80 0 -132.5 -55.5
t-52.5 -135.5q0 -78 44 -123.5t117 -45.5z" />
    <glyph glyph-name="ntilde" unicode="&#xf1;" horiz-adv-x="590" 
d="M29 0l106 500h86l-14 -64q60 74 163 74q87 0 131.5 -63t24.5 -159l-63 -288h-86l61 285q15 68 -10.5 107t-83.5 39q-63 0 -109 -42.5t-64 -126.5l-56 -262h-86zM502 706h67l-5 -18q-14 -46 -46 -70.5t-73 -24.5q-30 0 -70.5 22t-57.5 22q-35 0 -52 -44h-67l5 18
q14 47 46 71t74 24q30 0 70 -22t57 -22q35 0 52 44z" />
    <glyph glyph-name="ograve" unicode="&#xf2;" horiz-adv-x="609" 
d="M292 70q80 0 133 55.5t53 136.5q0 78 -44 123t-117 45q-80 0 -132.5 -55.5t-52.5 -135.5q0 -78 43.5 -123.5t116.5 -45.5zM286 -10q-114 0 -178 70.5t-64 171.5q0 118 77 198t203 80q114 0 177.5 -70t63.5 -171q0 -117 -77 -198t-202 -81zM399 560h-61l-62 190h97z" />
    <glyph glyph-name="oacute" unicode="&#xf3;" horiz-adv-x="609" 
d="M292 70q80 0 133 55.5t53 136.5q0 78 -44 123t-117 45q-80 0 -132.5 -55.5t-52.5 -135.5q0 -78 43.5 -123.5t116.5 -45.5zM286 -10q-114 0 -178 70.5t-64 171.5q0 118 77 198t203 80q114 0 177.5 -70t63.5 -171q0 -117 -77 -198t-202 -81zM340 560l144 190h118l-190 -190
h-72z" />
    <glyph glyph-name="ocircumflex" unicode="&#xf4;" horiz-adv-x="609" 
d="M292 70q80 0 133 55.5t53 136.5q0 78 -44 123t-117 45q-80 0 -132.5 -55.5t-52.5 -135.5q0 -78 43.5 -123.5t116.5 -45.5zM286 -10q-114 0 -178 70.5t-64 171.5q0 118 77 198t203 80q114 0 177.5 -70t63.5 -171q0 -117 -77 -198t-202 -81zM410 756l137 -107l-16 -73
l-132 102l-189 -102l20 83z" />
    <glyph glyph-name="otilde" unicode="&#xf5;" horiz-adv-x="609" 
d="M292 70q80 0 133 55.5t53 136.5q0 78 -44 123t-117 45q-80 0 -132.5 -55.5t-52.5 -135.5q0 -78 43.5 -123.5t116.5 -45.5zM286 -10q-114 0 -178 70.5t-64 171.5q0 118 77 198t203 80q114 0 177.5 -70t63.5 -171q0 -117 -77 -198t-202 -81zM506 706h67l-5 -18
q-14 -46 -46 -70.5t-73 -24.5q-30 0 -70.5 22t-57.5 22q-35 0 -52 -44h-67l5 18q14 47 46 71t74 24q30 0 70 -22t57 -22q35 0 52 44z" />
    <glyph glyph-name="odieresis" unicode="&#xf6;" horiz-adv-x="609" 
d="M292 70q80 0 133 55.5t53 136.5q0 78 -44 123t-117 45q-80 0 -132.5 -55.5t-52.5 -135.5q0 -78 43.5 -123.5t116.5 -45.5zM286 -10q-114 0 -178 70.5t-64 171.5q0 118 77 198t203 80q114 0 177.5 -70t63.5 -171q0 -117 -77 -198t-202 -81zM275 596q-25 0 -42 17t-17 41
t17 41.5t42 17.5q24 0 41 -17.5t17 -41.5t-17 -41t-41 -17zM500 596q-25 0 -42 17t-17 41t17 41.5t42 17.5q24 0 41 -17.5t17 -41.5t-17 -41t-41 -17z" />
    <glyph glyph-name="oslash" unicode="&#xf8;" horiz-adv-x="613" 
d="M293 70q80 0 133 55.5t53 136.5q0 78 -44 123t-117 45q-80 0 -132.5 -55.5t-52.5 -135.5q0 -78 43.5 -123.5t116.5 -45.5zM287 -10q-114 0 -178 70.5t-64 171.5q0 118 77 198t203 80q114 0 177.5 -70t63.5 -171q0 -117 -77 -198t-202 -81zM617 468l-577 -478l-35 42
l577 478z" />
    <glyph glyph-name="ugrave" unicode="&#xf9;" horiz-adv-x="580" 
d="M219 -10q-87 0 -130.5 64t-23.5 158l62 288h86l-61 -287q-14 -66 10.5 -105t78.5 -39q61 -1 105.5 42t62.5 126l56 263h86l-106 -500h-86l14 64q-58 -74 -154 -74zM381 560h-61l-62 190h97z" />
    <glyph glyph-name="uacute" unicode="&#xfa;" horiz-adv-x="580" 
d="M219 -10q-87 0 -130.5 64t-23.5 158l62 288h86l-61 -287q-14 -66 10.5 -105t78.5 -39q61 -1 105.5 42t62.5 126l56 263h86l-106 -500h-86l14 64q-58 -74 -154 -74zM323 560l144 190h118l-190 -190h-72z" />
    <glyph glyph-name="ucircumflex" unicode="&#xfb;" horiz-adv-x="580" 
d="M219 -10q-87 0 -130.5 64t-23.5 158l62 288h86l-61 -287q-14 -66 10.5 -105t78.5 -39q61 -1 105.5 42t62.5 126l56 263h86l-106 -500h-86l14 64q-58 -74 -154 -74zM393 756l137 -107l-16 -73l-132 102l-189 -102l20 83z" />
    <glyph glyph-name="udieresis" unicode="&#xfc;" horiz-adv-x="580" 
d="M219 -10q-87 0 -130.5 64t-23.5 158l62 288h86l-61 -287q-14 -66 10.5 -105t78.5 -39q61 -1 105.5 42t62.5 126l56 263h86l-106 -500h-86l14 64q-58 -74 -154 -74zM258 596q-25 0 -42 17t-17 41t17 41.5t42 17.5q24 0 41 -17.5t17 -41.5t-17 -41t-41 -17zM483 596
q-25 0 -42 17t-17 41t17 41.5t42 17.5q24 0 41 -17.5t17 -41.5t-17 -41t-41 -17z" />
    <glyph glyph-name="yacute" unicode="&#xfd;" horiz-adv-x="545" 
d="M17 -209l160 238l-118 471h89l91 -381l254 381h100l-478 -709h-98zM306 560l144 190h118l-190 -190h-72z" />
    <glyph glyph-name="thorn" unicode="&#xfe;" horiz-adv-x="632" 
d="M-15 -209l202 959h85l-65 -313q24 32 70.5 52.5t97.5 20.5q92 0 153.5 -62t61.5 -165q0 -124 -79.5 -208.5t-204.5 -84.5q-61 0 -107.5 29.5t-64.5 69.5l-63 -298h-86zM304 69q83 0 141 58.5t58 148.5q0 75 -39.5 115.5t-106.5 40.5q-83 0 -141 -58.5t-58 -148.5
q0 -75 40 -115.5t106 -40.5z" />
    <glyph glyph-name="ydieresis" unicode="&#xff;" horiz-adv-x="545" 
d="M17 -209l160 238l-118 471h89l91 -381l254 381h100l-478 -709h-98zM241 596q-25 0 -42 17t-17 41t17 41.5t42 17.5q24 0 41 -17.5t17 -41.5t-17 -41t-41 -17zM466 596q-25 0 -42 17t-17 41t17 41.5t42 17.5q24 0 41 -17.5t17 -41.5t-17 -41t-41 -17z" />
    <glyph glyph-name="Amacron" unicode="&#x100;" horiz-adv-x="717" 
d="M-52 0l464 710h78l163 -710h-89l-47 207h-330l-135 -207h-104zM432 583l-191 -292h257zM310 805l15 69h322l-15 -69h-322z" />
    <glyph glyph-name="amacron" unicode="&#x101;" horiz-adv-x="632" 
d="M257 -10q-91 0 -153 62.5t-62 164.5q0 124 79.5 208.5t204.5 84.5q62 0 107.5 -29t65.5 -70l18 89h86l-106 -500h-86l15 63q-25 -33 -71.5 -53t-97.5 -20zM275 68q83 0 141 58.5t58 148.5q0 75 -39.5 115.5t-106.5 40.5q-83 0 -141 -58.5t-58 -148.5q0 -75 40 -115.5
t106 -40.5zM233 641l15 69h322l-15 -69h-322z" />
    <glyph glyph-name="Abreve" unicode="&#x102;" horiz-adv-x="717" 
d="M-52 0l464 710h78l163 -710h-89l-47 207h-330l-135 -207h-104zM432 583l-191 -292h257zM477 759q-67 0 -112 44.5t-29 113.5h56q-9 -50 16.5 -75.5t71.5 -25.5q91 0 114 101h59q-11 -73 -58.5 -115.5t-117.5 -42.5z" />
    <glyph glyph-name="abreve" unicode="&#x103;" horiz-adv-x="632" 
d="M257 -10q-91 0 -153 62.5t-62 164.5q0 124 79.5 208.5t204.5 84.5q62 0 107.5 -29t65.5 -70l18 89h86l-106 -500h-86l15 63q-25 -33 -71.5 -53t-97.5 -20zM275 68q83 0 141 58.5t58 148.5q0 75 -39.5 115.5t-106.5 40.5q-83 0 -141 -58.5t-58 -148.5q0 -75 40 -115.5
t106 -40.5zM395 562q-67 0 -112 48t-30 124h59q-11 -55 15.5 -84.5t73.5 -29.5q42 0 71.5 28t38.5 86h59q-8 -81 -54 -126.5t-121 -45.5z" />
    <glyph glyph-name="Aogonek" unicode="&#x104;" horiz-adv-x="717" 
d="M-52 0l464 710h78l163 -710q-116 -63 -116 -118q0 -27 34 -27q29 0 55 17l-15 -68q-34 -23 -81 -23q-36 0 -59.5 20.5t-23.5 54.5q0 44 35 83t82 61l-47 207h-330l-135 -207h-104zM432 583l-191 -292h257z" />
    <glyph glyph-name="aogonek" unicode="&#x105;" horiz-adv-x="632" 
d="M257 -10q-91 0 -153 62.5t-62 164.5q0 124 79.5 208.5t204.5 84.5q62 0 107.5 -29t65.5 -70l18 89h86l-106 -500h-86l15 63q-25 -33 -71.5 -53t-97.5 -20zM275 68q83 0 141 58.5t58 148.5q0 75 -39.5 115.5t-106.5 40.5q-83 0 -141 -58.5t-58 -148.5q0 -75 40 -115.5
t106 -40.5zM380 -219q-38 0 -61 21.5t-23 56.5q0 39 33.5 76.5t82.5 64.5h86q-61 -33 -90 -66t-29 -57q0 -29 33 -29q32 0 57 18l-13 -63q-35 -22 -76 -22z" />
    <glyph glyph-name="Cacute" unicode="&#x106;" horiz-adv-x="793" 
d="M397 -12q-150 0 -242 95t-92 234q0 171 111.5 288t294.5 117q123 0 208.5 -69.5t108.5 -176.5h-99q-21 71 -80.5 114.5t-145.5 43.5q-130 0 -217 -89.5t-87 -218.5q0 -111 66.5 -180.5t184.5 -69.5q85 0 151 42t105 116h98q-44 -113 -137 -179.5t-228 -66.5zM473 770
l107 157h111l-144 -157h-74z" />
    <glyph glyph-name="cacute" unicode="&#x107;" horiz-adv-x="593" 
d="M286 -10q-114 0 -178 70.5t-64 171.5q0 118 77 198t203 80q97 0 158.5 -52t78.5 -134h-92q-16 51 -55.5 79t-96.5 28q-80 0 -132.5 -55.5t-52.5 -136.5q0 -78 43.5 -124t116.5 -46q56 0 100.5 29t66.5 78h92q-26 -84 -95.5 -135t-169.5 -51zM327 560l144 190h118
l-190 -190h-72z" />
    <glyph glyph-name="Ccircumflex" unicode="&#x108;" horiz-adv-x="793" 
d="M397 -12q-150 0 -242 95t-92 234q0 171 111.5 288t294.5 117q123 0 208.5 -69.5t108.5 -176.5h-99q-21 71 -80.5 114.5t-145.5 43.5q-130 0 -217 -89.5t-87 -218.5q0 -111 66.5 -180.5t184.5 -69.5q85 0 151 42t105 116h98q-44 -113 -137 -179.5t-228 -66.5zM336 767
l16 81l177 84l147 -94l-17 -71l-138 87z" />
    <glyph glyph-name="ccircumflex" unicode="&#x109;" horiz-adv-x="593" 
d="M286 -10q-114 0 -178 70.5t-64 171.5q0 118 77 198t203 80q97 0 158.5 -52t78.5 -134h-92q-16 51 -55.5 79t-96.5 28q-80 0 -132.5 -55.5t-52.5 -136.5q0 -78 43.5 -124t116.5 -46q56 0 100.5 29t66.5 78h92q-26 -84 -95.5 -135t-169.5 -51zM397 756l137 -107l-16 -73
l-132 102l-189 -102l20 83z" />
    <glyph glyph-name="Cdotaccent" unicode="&#x10a;" horiz-adv-x="793" 
d="M397 -12q-150 0 -242 95t-92 234q0 171 111.5 288t294.5 117q123 0 208.5 -69.5t108.5 -176.5h-99q-21 71 -80.5 114.5t-145.5 43.5q-130 0 -217 -89.5t-87 -218.5q0 -111 66.5 -180.5t184.5 -69.5q85 0 151 42t105 116h98q-44 -113 -137 -179.5t-228 -66.5zM515 785
q-25 0 -42 17t-17 41t17 41.5t42 17.5q24 0 41 -17.5t17 -41.5t-17 -41t-41 -17z" />
    <glyph glyph-name="cdotaccent" unicode="&#x10b;" horiz-adv-x="593" 
d="M286 -10q-114 0 -178 70.5t-64 171.5q0 118 77 198t203 80q97 0 158.5 -52t78.5 -134h-92q-16 51 -55.5 79t-96.5 28q-80 0 -132.5 -55.5t-52.5 -136.5q0 -78 43.5 -124t116.5 -46q56 0 100.5 29t66.5 78h92q-26 -84 -95.5 -135t-169.5 -51zM376 596q-25 0 -42.5 17
t-17.5 41t17.5 41.5t42.5 17.5q24 0 40.5 -17.5t16.5 -41.5t-16.5 -41t-40.5 -17z" />
    <glyph glyph-name="Ccaron" unicode="&#x10c;" horiz-adv-x="793" 
d="M397 -12q-150 0 -242 95t-92 234q0 171 111.5 288t294.5 117q123 0 208.5 -69.5t108.5 -176.5h-99q-21 71 -80.5 114.5t-145.5 43.5q-130 0 -217 -89.5t-87 -218.5q0 -111 66.5 -180.5t184.5 -69.5q85 0 151 42t105 116h98q-44 -113 -137 -179.5t-228 -66.5zM693 932
l-15 -82l-177 -83l-147 93l17 72l138 -88z" />
    <glyph glyph-name="ccaron" unicode="&#x10d;" horiz-adv-x="593" 
d="M286 -10q-114 0 -178 70.5t-64 171.5q0 118 77 198t203 80q97 0 158.5 -52t78.5 -134h-92q-16 51 -55.5 79t-96.5 28q-80 0 -132.5 -55.5t-52.5 -136.5q0 -78 43.5 -124t116.5 -46q56 0 100.5 29t66.5 78h92q-26 -84 -95.5 -135t-169.5 -51zM358 576l-137 109l16 71
l127 -104l194 104l-19 -85z" />
    <glyph glyph-name="Dcaron" unicode="&#x10e;" horiz-adv-x="724" 
d="M147 87h143q132 0 221.5 85t89.5 215q0 108 -66 172t-184 64h-89zM36 0l151 710h177q147 0 238.5 -89.5t91.5 -223.5q0 -175 -114 -286t-301 -111h-243zM635 932l-15 -82l-177 -83l-147 93l17 72l138 -88z" />
    <glyph glyph-name="dcaron" unicode="&#x10f;" horiz-adv-x="636" 
d="M257 -10q-91 0 -153 62t-62 164q0 125 79.5 209.5t204.5 84.5q61 0 107 -29.5t66 -69.5l71 339h86l-159 -750h-86l15 62q-25 -32 -71 -52t-98 -20zM275 68q83 0 141 58.5t58 148.5q0 74 -39.5 114.5t-106.5 40.5q-83 0 -141 -58.5t-58 -148.5q0 -74 40 -114.5t106 -40.5z
M657 585l57 165h88l-85 -165h-60z" />
    <glyph glyph-name="Dcroat" unicode="&#x110;" horiz-adv-x="731" 
d="M154 87h143q132 0 221.5 85t89.5 215q0 108 -66 172t-184 64h-89zM43 0l151 710h177q147 0 238.5 -89.5t91.5 -223.5q0 -175 -114 -286t-301 -111h-243zM38 319l17 82h326l-17 -82h-326z" />
    <glyph glyph-name="dcroat" unicode="&#x111;" horiz-adv-x="632" 
d="M257 -10q-91 0 -153 62t-62 164q0 125 79.5 209.5t204.5 84.5q61 0 107 -29.5t66 -69.5l71 339h86l-159 -750h-86l15 62q-25 -32 -71 -52t-98 -20zM275 68q83 0 141 58.5t58 148.5q0 74 -39.5 114.5t-106.5 40.5q-83 0 -141 -58.5t-58 -148.5q0 -74 40 -114.5t106 -40.5z
M368 577l14 68h323l-14 -68h-323z" />
    <glyph glyph-name="Emacron" unicode="&#x112;" horiz-adv-x="557" 
d="M36 0l151 710h414l-18 -88h-322l-46 -215h262l-19 -88h-261l-50 -231h322l-19 -88h-414zM252 805l15 69h322l-15 -69h-322z" />
    <glyph glyph-name="emacron" unicode="&#x113;" horiz-adv-x="584" 
d="M270 -10q-99 0 -163 66t-64 170q0 121 77.5 202.5t200.5 81.5q114 0 177 -76t41 -207h-413q0 -70 41 -114.5t109 -44.5q109 0 154 84h91q-28 -73 -92 -117.5t-159 -44.5zM312 434q-60 0 -108 -36t-65 -103h315q0 65 -38 102t-104 37zM201 641l15 69h322l-15 -69h-322z
" />
    <glyph glyph-name="Ebreve" unicode="&#x114;" horiz-adv-x="557" 
d="M36 0l151 710h414l-18 -88h-322l-46 -215h262l-19 -88h-261l-50 -231h322l-19 -88h-414zM419 759q-67 0 -112 44.5t-29 113.5h56q-9 -50 16.5 -75.5t71.5 -25.5q91 0 114 101h59q-11 -73 -58.5 -115.5t-117.5 -42.5z" />
    <glyph glyph-name="ebreve" unicode="&#x115;" horiz-adv-x="584" 
d="M270 -10q-99 0 -163 66t-64 170q0 121 77.5 202.5t200.5 81.5q114 0 177 -76t41 -207h-413q0 -70 41 -114.5t109 -44.5q109 0 154 84h91q-28 -73 -92 -117.5t-159 -44.5zM312 434q-60 0 -108 -36t-65 -103h315q0 65 -38 102t-104 37zM364 562q-67 0 -112 48t-30 124h59
q-11 -55 15.5 -84.5t73.5 -29.5q42 0 71.5 28t38.5 86h59q-8 -81 -54 -126.5t-121 -45.5z" />
    <glyph glyph-name="Edotaccent" unicode="&#x116;" horiz-adv-x="557" 
d="M36 0l151 710h414l-18 -88h-322l-46 -215h262l-19 -88h-261l-50 -231h322l-19 -88h-414zM423 785q-25 0 -42 17t-17 41t17 41.5t42 17.5q24 0 41 -17.5t17 -41.5t-17 -41t-41 -17z" />
    <glyph glyph-name="edotaccent" unicode="&#x117;" horiz-adv-x="584" 
d="M270 -10q-99 0 -163 66t-64 170q0 121 77.5 202.5t200.5 81.5q114 0 177 -76t41 -207h-413q0 -70 41 -114.5t109 -44.5q109 0 154 84h91q-28 -73 -92 -117.5t-159 -44.5zM312 434q-60 0 -108 -36t-65 -103h315q0 65 -38 102t-104 37zM366 596q-25 0 -42.5 17t-17.5 41
t17.5 41.5t42.5 17.5q24 0 40.5 -17.5t16.5 -41.5t-16.5 -41t-40.5 -17z" />
    <glyph glyph-name="Eogonek" unicode="&#x118;" horiz-adv-x="557" 
d="M36 0l151 710h414l-18 -88h-322l-46 -215h262l-19 -88h-261l-50 -231h322l-19 -88h-414zM326 -219q-36 0 -59 20t-23 55q0 80 114 144h92q-61 -33 -89 -63.5t-28 -54.5q0 -27 35 -27q26 0 55 17l-15 -68q-34 -23 -82 -23z" />
    <glyph glyph-name="eogonek" unicode="&#x119;" horiz-adv-x="585" 
d="M370 -219q-38 0 -60.5 21.5t-22.5 56.5q0 61 70 141q-41 -10 -84 -10q-100 0 -165 66t-65 170q0 121 77.5 202.5t200.5 81.5q114 0 177 -76t41 -207h-413q0 -70 41.5 -114.5t111.5 -44.5q105 0 151 84h91q-19 -47 -43 -76q-74 -94 -93 -137q-15 -33 -15 -57q0 -34 35 -34
q27 0 55 18l-13 -63q-35 -22 -77 -22zM312 434q-60 0 -108 -36t-65 -103h315q0 65 -38 102t-104 37z" />
    <glyph glyph-name="Ecaron" unicode="&#x11a;" horiz-adv-x="557" 
d="M36 0l151 710h414l-18 -88h-322l-46 -215h262l-19 -88h-261l-50 -231h322l-19 -88h-414zM601 932l-15 -82l-177 -83l-147 93l17 72l138 -88z" />
    <glyph glyph-name="ecaron" unicode="&#x11b;" horiz-adv-x="584" 
d="M270 -10q-99 0 -163 66t-64 170q0 121 77.5 202.5t200.5 81.5q114 0 177 -76t41 -207h-413q0 -70 41 -114.5t109 -44.5q109 0 154 84h91q-28 -73 -92 -117.5t-159 -44.5zM312 434q-60 0 -108 -36t-65 -103h315q0 65 -38 102t-104 37zM348 576l-137 109l16 71l127 -104
l194 104l-19 -85z" />
    <glyph glyph-name="Gcircumflex" unicode="&#x11c;" horiz-adv-x="823" 
d="M397 -12q-149 0 -241 95t-92 234q0 172 110.5 288.5t296.5 116.5q117 0 200 -61.5t114 -160.5h-100q-58 134 -225 134q-129 0 -215.5 -89t-86.5 -218q0 -112 65.5 -181.5t184.5 -69.5q110 0 186.5 67.5t97.5 175.5h-277l18 87h358v-13q0 -175 -104.5 -290t-289.5 -115z
M332 767l16 81l177 84l147 -94l-17 -71l-138 87z" />
    <glyph glyph-name="gcircumflex" unicode="&#x11d;" horiz-adv-x="632" 
d="M232 -219q-99 0 -162 50t-69 123h84q10 -45 50 -71t103 -26q66 0 115.5 42t63.5 120l10 55q-25 -33 -71.5 -53t-97.5 -20q-90 0 -152.5 61t-62.5 160q0 122 79.5 205t204.5 83q62 0 107.5 -29t65.5 -70l18 89h86l-104 -491q-48 -228 -268 -228zM276 79q82 0 140.5 57
t58.5 145q0 72 -40 111t-106 39q-82 0 -140.5 -56.5t-58.5 -144.5q0 -72 40.5 -111.5t105.5 -39.5zM420 756l137 -107l-16 -73l-132 102l-189 -102l20 83z" />
    <glyph glyph-name="Gbreve" unicode="&#x11e;" horiz-adv-x="823" 
d="M397 -12q-149 0 -241 95t-92 234q0 172 110.5 288.5t296.5 116.5q117 0 200 -61.5t114 -160.5h-100q-58 134 -225 134q-129 0 -215.5 -89t-86.5 -218q0 -112 65.5 -181.5t184.5 -69.5q110 0 186.5 67.5t97.5 175.5h-277l18 87h358v-13q0 -175 -104.5 -290t-289.5 -115z
M507 759q-67 0 -112 44.5t-29 113.5h56q-9 -50 16.5 -75.5t71.5 -25.5q91 0 114 101h59q-11 -73 -58.5 -115.5t-117.5 -42.5z" />
    <glyph glyph-name="gbreve" unicode="&#x11f;" horiz-adv-x="632" 
d="M232 -219q-99 0 -162 50t-69 123h84q10 -45 50 -71t103 -26q66 0 115.5 42t63.5 120l10 55q-25 -33 -71.5 -53t-97.5 -20q-90 0 -152.5 61t-62.5 160q0 122 79.5 205t204.5 83q62 0 107.5 -29t65.5 -70l18 89h86l-104 -491q-48 -228 -268 -228zM276 79q82 0 140.5 57
t58.5 145q0 72 -40 111t-106 39q-82 0 -140.5 -56.5t-58.5 -144.5q0 -72 40.5 -111.5t105.5 -39.5zM397 562q-67 0 -112 48t-30 124h59q-11 -55 15.5 -84.5t73.5 -29.5q42 0 71.5 28t38.5 86h59q-8 -81 -54 -126.5t-121 -45.5z" />
    <glyph glyph-name="Gdotaccent" unicode="&#x120;" horiz-adv-x="823" 
d="M397 -12q-149 0 -241 95t-92 234q0 172 110.5 288.5t296.5 116.5q117 0 200 -61.5t114 -160.5h-100q-58 134 -225 134q-129 0 -215.5 -89t-86.5 -218q0 -112 65.5 -181.5t184.5 -69.5q110 0 186.5 67.5t97.5 175.5h-277l18 87h358v-13q0 -175 -104.5 -290t-289.5 -115z
M511 785q-25 0 -42 17t-17 41t17 41.5t42 17.5q24 0 41 -17.5t17 -41.5t-17 -41t-41 -17z" />
    <glyph glyph-name="gdotaccent" unicode="&#x121;" horiz-adv-x="632" 
d="M232 -219q-99 0 -162 50t-69 123h84q10 -45 50 -71t103 -26q66 0 115.5 42t63.5 120l10 55q-25 -33 -71.5 -53t-97.5 -20q-90 0 -152.5 61t-62.5 160q0 122 79.5 205t204.5 83q62 0 107.5 -29t65.5 -70l18 89h86l-104 -491q-48 -228 -268 -228zM276 79q82 0 140.5 57
t58.5 145q0 72 -40 111t-106 39q-82 0 -140.5 -56.5t-58.5 -144.5q0 -72 40.5 -111.5t105.5 -39.5zM399 596q-25 0 -42.5 17t-17.5 41t17.5 41.5t42.5 17.5q24 0 40.5 -17.5t16.5 -41.5t-16.5 -41t-40.5 -17z" />
    <glyph glyph-name="uni0122" unicode="&#x122;" horiz-adv-x="823" 
d="M397 -12q-149 0 -241 95t-92 234q0 172 110.5 288.5t296.5 116.5q117 0 200 -61.5t114 -160.5h-100q-58 134 -225 134q-129 0 -215.5 -89t-86.5 -218q0 -112 65.5 -181.5t184.5 -69.5q110 0 186.5 67.5t97.5 175.5h-277l18 87h358v-13q0 -175 -104.5 -290t-289.5 -115z
M407 -172l-82 -97h-44l52 88q-27 17 -27 49q0 24 17 41.5t42 17.5q24 0 41 -17.5t17 -41.5q0 -18 -16 -40z" />
    <glyph glyph-name="uni0123" unicode="&#x123;" horiz-adv-x="632" 
d="M232 -219q-99 0 -162 50t-69 123h84q10 -45 50 -71t103 -26q66 0 115.5 42t63.5 120l10 55q-25 -33 -71.5 -53t-97.5 -20q-90 0 -152.5 61t-62.5 160q0 122 79.5 205t204.5 83q62 0 107.5 -29t65.5 -70l18 89h86l-104 -491q-48 -228 -268 -228zM276 79q82 0 140.5 57
t58.5 145q0 72 -40 111t-106 39q-82 0 -140.5 -56.5t-58.5 -144.5q0 -72 40.5 -111.5t105.5 -39.5zM397 596q-24 0 -41 17t-17 41q0 22 16 40l82 98h44l-52 -89q27 -17 27 -49q0 -24 -17 -41t-42 -17z" />
    <glyph glyph-name="Hcircumflex" unicode="&#x124;" horiz-adv-x="764" 
d="M36 0l151 710h93l-65 -303h390l64 303h93l-151 -710h-93l68 320h-389l-68 -320h-93zM325 767l16 81l177 84l147 -94l-17 -71l-138 87z" />
    <glyph glyph-name="hcircumflex" unicode="&#x125;" horiz-adv-x="590" 
d="M29 0l159 750h86l-67 -314q60 74 163 74q87 0 131.5 -63t24.5 -159l-63 -288h-86l61 285q15 68 -10.5 107t-83.5 39q-63 0 -109 -42.5t-64 -126.5l-56 -262h-86zM245 767l16 81l177 84l147 -94l-17 -71l-138 87z" />
    <glyph glyph-name="Hbar" unicode="&#x126;" horiz-adv-x="777" 
d="M43 0l151 710h93l-65 -303h390l64 303h93l-151 -710h-93l68 320h-389l-68 -320h-93zM81 523l15 72h721l-15 -72h-721z" />
    <glyph glyph-name="hbar" unicode="&#x127;" horiz-adv-x="590" 
d="M29 0l159 750h86l-67 -314q60 74 163 74q87 0 131.5 -63t24.5 -159l-63 -288h-86l61 285q15 68 -10.5 107t-83.5 39q-63 0 -109 -42.5t-64 -126.5l-56 -262h-86zM80 577l14 68h323l-14 -68h-323z" />
    <glyph glyph-name="Itilde" unicode="&#x128;" horiz-adv-x="283" 
d="M36 0l151 710h93l-151 -710h-93zM77 786l4 18q11 44 45 69.5t74 25.5q29 0 73 -22t57 -22q34 0 52 44h65l-4 -19q-11 -43 -45 -68.5t-74 -25.5q-30 0 -73 22t-57 22q-34 0 -52 -44h-65z" />
    <glyph glyph-name="itilde" unicode="&#x129;" horiz-adv-x="250" 
d="M29 0l106 500h86l-106 -500h-86zM328 706h67l-5 -18q-14 -46 -46 -70.5t-73 -24.5q-30 0 -70.5 22t-57.5 22q-36 0 -52 -44h-67l5 18q14 47 46 71t74 24q30 0 70 -22t57 -22q35 0 52 44z" />
    <glyph glyph-name="Imacron" unicode="&#x12a;" horiz-adv-x="283" 
d="M36 0l151 710h93l-151 -710h-93zM93 805l15 69h322l-15 -69h-322z" />
    <glyph glyph-name="imacron" unicode="&#x12b;" horiz-adv-x="250" 
d="M29 0l106 500h86l-106 -500h-86zM47 641l15 69h322l-15 -69h-322z" />
    <glyph glyph-name="Ibreve" unicode="&#x12c;" horiz-adv-x="283" 
d="M36 0l151 710h93l-151 -710h-93zM260 759q-67 0 -112 44.5t-29 113.5h56q-9 -50 16.5 -75.5t71.5 -25.5q91 0 114 101h59q-11 -73 -58.5 -115.5t-117.5 -42.5z" />
    <glyph glyph-name="ibreve" unicode="&#x12d;" horiz-adv-x="250" 
d="M29 0l106 500h86l-106 -500h-86zM210 562q-67 0 -112 48t-30 124h59q-11 -55 15.5 -84.5t73.5 -29.5q42 0 71.5 28t38.5 86h59q-8 -81 -54 -126.5t-121 -45.5z" />
    <glyph glyph-name="Iogonek" unicode="&#x12e;" horiz-adv-x="283" 
d="M36 0l151 710h93l-151 -710h-93zM5 -219q-36 0 -59 20t-23 55q0 80 114 144h92q-61 -33 -89 -63.5t-28 -54.5q0 -27 35 -27q26 0 55 17l-15 -68q-34 -23 -82 -23z" />
    <glyph glyph-name="iogonek" unicode="&#x12f;" horiz-adv-x="250" 
d="M221 634q-26 0 -44 17.5t-18 43.5q0 25 18 43t44 18t43.5 -18t17.5 -43q0 -26 -17.5 -43.5t-43.5 -17.5zM29 0l106 500h86l-106 -500h-86zM-2 -219q-38 0 -61 21.5t-23 56.5q0 39 33.5 76.5t82.5 64.5h86q-61 -33 -90 -66t-29 -57q0 -29 33 -29q32 0 57 18l-13 -63
q-35 -22 -76 -22z" />
    <glyph glyph-name="Idotaccent" unicode="&#x130;" horiz-adv-x="283" 
d="M36 0l151 710h93l-151 -710h-93zM263 785q-25 0 -42 17t-17 41t17 41.5t42 17.5q24 0 41 -17.5t17 -41.5t-17 -41t-41 -17z" />
    <glyph glyph-name="dotlessi" unicode="&#x131;" horiz-adv-x="250" 
d="M29 0l106 500h86l-106 -500h-86z" />
    <glyph glyph-name="Jcircumflex" unicode="&#x134;" horiz-adv-x="523" 
d="M327 207l107 503h93l-111 -522q-20 -100 -72 -150t-150 -50q-83 0 -145 54t-53 148h92q-4 -54 29.5 -84.5t80.5 -30.5q56 0 85 32.5t44 99.5zM331 767l16 81l177 84l147 -94l-17 -71l-138 87z" />
    <glyph glyph-name="jcircumflex" unicode="&#x135;" horiz-adv-x="257" 
d="M-60 -219q-29 0 -55 7l16 77q18 -5 39 -5q34 0 54 17.5t29 60.5l119 562h86l-123 -577q-16 -75 -55 -108.5t-110 -33.5zM234 756l137 -107l-16 -73l-132 102l-189 -102l20 83z" />
    <glyph glyph-name="uni0136" unicode="&#x136;" horiz-adv-x="668" 
d="M517 0l-317 338l-72 -338h-92l151 710h92l-66 -309l370 309h127l-414 -347l340 -363h-119zM337 -172l-82 -97h-44l52 88q-27 17 -27 49q0 24 17 41.5t42 17.5q24 0 41 -17.5t17 -41.5q0 -18 -16 -40z" />
    <glyph glyph-name="uni0137" unicode="&#x137;" horiz-adv-x="537" 
d="M394 0l-226 251l-53 -251h-86l159 750h86l-95 -445l253 195h121l-296 -228l245 -272h-108zM270 -172l-82 -97h-44l52 88q-27 17 -27 49q0 24 17 41.5t42 17.5q24 0 41 -17.5t17 -41.5q0 -18 -16 -40z" />
    <glyph glyph-name="Lacute" unicode="&#x139;" horiz-adv-x="542" 
d="M36 0l151 710h93l-133 -622h343l-18 -88h-436zM222 770l107 157h111l-144 -157h-74z" />
    <glyph glyph-name="lacute" unicode="&#x13a;" horiz-adv-x="250" 
d="M29 0l159 750h86l-159 -750h-86zM217 810l144 190h118l-190 -190h-72z" />
    <glyph glyph-name="uni013B" unicode="&#x13b;" horiz-adv-x="542" 
d="M36 0l151 710h93l-133 -622h343l-18 -88h-436zM263 -172l-82 -97h-44l52 88q-27 17 -27 49q0 24 17 41.5t42 17.5q24 0 41 -17.5t17 -41.5q0 -18 -16 -40z" />
    <glyph glyph-name="uni013C" unicode="&#x13c;" horiz-adv-x="250" 
d="M29 0l159 750h86l-159 -750h-86zM87 -172l-82 -97h-44l52 88q-27 17 -27 49q0 24 17 41.5t42 17.5q24 0 41 -17.5t17 -41.5q0 -18 -16 -40z" />
    <glyph glyph-name="Lcaron" unicode="&#x13d;" horiz-adv-x="543" 
d="M36 0l151 710h93l-133 -622h343l-18 -88h-436zM355 585l57 165h88l-85 -165h-60z" />
    <glyph glyph-name="lcaron" unicode="&#x13e;" horiz-adv-x="254" 
d="M29 0l159 750h86l-159 -750h-86zM275 585l57 165h88l-85 -165h-60z" />
    <glyph glyph-name="Ldot" unicode="&#x13f;" horiz-adv-x="547" 
d="M36 0l151 710h93l-133 -622h343l-18 -88h-436zM441 341q-25 0 -42 17t-17 41t17 41.5t42 17.5q24 0 41 -17.5t17 -41.5t-17 -41t-41 -17z" />
    <glyph glyph-name="ldot" unicode="&#x140;" horiz-adv-x="385" 
d="M29 0l159 750h86l-159 -750h-86zM342 307q-25 0 -42 17t-17 41t17 41.5t42 17.5q24 0 41 -17.5t17 -41.5t-17 -41t-41 -17z" />
    <glyph glyph-name="Lslash" unicode="&#x141;" horiz-adv-x="560" 
d="M54 0l151 710h93l-133 -622h343l-18 -88h-436zM395 419l-369 -206l19 88l369 206z" />
    <glyph glyph-name="lslash" unicode="&#x142;" horiz-adv-x="315" 
d="M62 0l159 750h86l-159 -750h-86zM311 401l-276 -154l17 82l276 154z" />
    <glyph glyph-name="Nacute" unicode="&#x143;" horiz-adv-x="795" 
d="M642 0h-81l-313 563l-119 -563h-93l151 710h81l312 -564l120 564h93zM474 770l107 157h111l-144 -157h-74z" />
    <glyph glyph-name="nacute" unicode="&#x144;" horiz-adv-x="590" 
d="M29 0l106 500h86l-14 -64q60 74 163 74q87 0 131.5 -63t24.5 -159l-63 -288h-86l61 285q15 68 -10.5 107t-83.5 39q-63 0 -109 -42.5t-64 -126.5l-56 -262h-86zM337 560l144 190h118l-190 -190h-72z" />
    <glyph glyph-name="uni0145" unicode="&#x145;" horiz-adv-x="795" 
d="M642 0h-81l-313 563l-119 -563h-93l151 710h81l312 -564l120 564h93zM357 -172l-82 -97h-44l52 88q-27 17 -27 49q0 24 17 41.5t42 17.5q24 0 41 -17.5t17 -41.5q0 -18 -16 -40z" />
    <glyph glyph-name="uni0146" unicode="&#x146;" horiz-adv-x="590" 
d="M29 0l106 500h86l-14 -64q60 74 163 74q87 0 131.5 -63t24.5 -159l-63 -288h-86l61 285q15 68 -10.5 107t-83.5 39q-63 0 -109 -42.5t-64 -126.5l-56 -262h-86zM261 -172l-82 -97h-44l52 88q-27 17 -27 49q0 24 17 41.5t42 17.5q24 0 41 -17.5t17 -41.5q0 -18 -16 -40z
" />
    <glyph glyph-name="Ncaron" unicode="&#x147;" horiz-adv-x="795" 
d="M642 0h-81l-313 563l-119 -563h-93l151 710h81l312 -564l120 564h93zM694 932l-15 -82l-177 -83l-147 93l17 72l138 -88z" />
    <glyph glyph-name="ncaron" unicode="&#x148;" horiz-adv-x="590" 
d="M29 0l106 500h86l-14 -64q60 74 163 74q87 0 131.5 -63t24.5 -159l-63 -288h-86l61 285q15 68 -10.5 107t-83.5 39q-63 0 -109 -42.5t-64 -126.5l-56 -262h-86zM368 576l-137 109l16 71l127 -104l194 104l-19 -85z" />
    <glyph glyph-name="Eng" unicode="&#x14a;" horiz-adv-x="795" 
d="M463 -219q-54 0 -95 22l17 81q33 -19 75 -19q60 0 76 78l16 73l-303 547l-120 -563h-93l151 710h81l312 -564l120 564h93l-169 -791q-29 -138 -161 -138z" />
    <glyph glyph-name="eng" unicode="&#x14b;" horiz-adv-x="589" 
d="M286 -218q-46 0 -74 12l15 78q23 -10 53 -10q69 0 85 79l73 344q15 69 -10.5 107.5t-85.5 38.5q-48 0 -91.5 -29.5t-64.5 -69.5l-71 -332h-86l106 500h86l-13 -57q60 67 160 67q87 0 132.5 -63t25.5 -159l-80 -369q-30 -137 -160 -137z" />
    <glyph glyph-name="Omacron" unicode="&#x14c;" horiz-adv-x="832" 
d="M406 76q128 0 215 89.5t87 218.5q0 112 -65 181t-183 69q-128 0 -215 -89.5t-87 -218.5q0 -112 64.5 -181t183.5 -69zM394 -12q-149 0 -239.5 94.5t-90.5 234.5q0 172 111 288.5t296 116.5q149 0 239.5 -94.5t90.5 -234.5q0 -172 -111 -288.5t-296 -116.5zM355 805l15 69
h322l-15 -69h-322z" />
    <glyph glyph-name="omacron" unicode="&#x14d;" horiz-adv-x="609" 
d="M292 70q80 0 133 55.5t53 136.5q0 78 -44 123t-117 45q-80 0 -132.5 -55.5t-52.5 -135.5q0 -78 43.5 -123.5t116.5 -45.5zM286 -10q-114 0 -178 70.5t-64 171.5q0 118 77 198t203 80q114 0 177.5 -70t63.5 -171q0 -117 -77 -198t-202 -81zM224 641l15 69h322l-15 -69
h-322z" />
    <glyph glyph-name="Obreve" unicode="&#x14e;" horiz-adv-x="832" 
d="M406 76q128 0 215 89.5t87 218.5q0 112 -65 181t-183 69q-128 0 -215 -89.5t-87 -218.5q0 -112 64.5 -181t183.5 -69zM394 -12q-149 0 -239.5 94.5t-90.5 234.5q0 172 111 288.5t296 116.5q149 0 239.5 -94.5t90.5 -234.5q0 -172 -111 -288.5t-296 -116.5zM522 759
q-67 0 -112 44.5t-29 113.5h56q-9 -50 16.5 -75.5t71.5 -25.5q91 0 114 101h59q-11 -73 -58.5 -115.5t-117.5 -42.5z" />
    <glyph glyph-name="obreve" unicode="&#x14f;" horiz-adv-x="609" 
d="M292 70q80 0 133 55.5t53 136.5q0 78 -44 123t-117 45q-80 0 -132.5 -55.5t-52.5 -135.5q0 -78 43.5 -123.5t116.5 -45.5zM286 -10q-114 0 -178 70.5t-64 171.5q0 118 77 198t203 80q114 0 177.5 -70t63.5 -171q0 -117 -77 -198t-202 -81zM387 562q-67 0 -112 48t-30 124
h59q-11 -55 15.5 -84.5t73.5 -29.5q42 0 71.5 28t38.5 86h59q-8 -81 -54 -126.5t-121 -45.5z" />
    <glyph glyph-name="Ohungarumlaut" unicode="&#x150;" horiz-adv-x="832" 
d="M406 76q128 0 215 89.5t87 218.5q0 112 -65 181t-183 69q-128 0 -215 -89.5t-87 -218.5q0 -112 64.5 -181t183.5 -69zM394 -12q-149 0 -239.5 94.5t-90.5 234.5q0 172 111 288.5t296 116.5q149 0 239.5 -94.5t90.5 -234.5q0 -172 -111 -288.5t-296 -116.5zM551 770
l100 157h101l-138 -157h-63zM384 770l100 157h102l-139 -157h-63z" />
    <glyph glyph-name="ohungarumlaut" unicode="&#x151;" horiz-adv-x="609" 
d="M292 70q80 0 133 55.5t53 136.5q0 78 -44 123t-117 45q-80 0 -132.5 -55.5t-52.5 -135.5q0 -78 43.5 -123.5t116.5 -45.5zM286 -10q-114 0 -178 70.5t-64 171.5q0 118 77 198t203 80q114 0 177.5 -70t63.5 -171q0 -117 -77 -198t-202 -81zM401 560l107 190h103l-146 -190
h-64zM233 560l107 190h104l-147 -190h-64z" />
    <glyph glyph-name="OE" unicode="&#x152;" horiz-adv-x="1147" 
d="M627 0l14 67q-103 -79 -249 -79q-147 0 -237.5 95t-90.5 234q0 172 111 288.5t296 116.5q95 0 167 -41t110 -110l30 139h414l-18 -88h-322l-46 -215h262l-19 -88h-262l-49 -231h321l-18 -88h-414zM406 76q128 0 215 89.5t87 218.5q0 112 -65 181t-183 69
q-128 0 -215 -89.5t-87 -218.5q0 -112 64.5 -181t183.5 -69z" />
    <glyph glyph-name="oe" unicode="&#x153;" horiz-adv-x="1020" 
d="M708 -10q-136 0 -197 107q-79 -107 -225 -107q-114 0 -178 70.5t-64 171.5q0 118 77 198t203 80q143 0 208 -111q80 111 230 111q109 0 171.5 -76.5t40.5 -206.5h-413q0 -70 41.5 -114.5t111.5 -44.5q106 0 151 84h91q-62 -162 -248 -162zM292 70q80 0 133 55.5t53 136.5
q0 78 -44 123t-117 45q-80 0 -132.5 -55.5t-52.5 -135.5q0 -78 43.5 -123.5t116.5 -45.5zM755 434q-62 0 -113 -36.5t-68 -102.5h315q0 66 -34.5 102.5t-99.5 36.5z" />
    <glyph glyph-name="Racute" unicode="&#x154;" horiz-adv-x="632" 
d="M36 0l151 710h223q86 0 140.5 -51t54.5 -125q0 -94 -59.5 -150t-170.5 -63l213 -321h-106l-213 323h-72l-68 -323h-93zM215 406h139q76 0 116 31.5t41 87.5q1 44 -29 71.5t-83 27.5h-137zM380 770l107 157h111l-144 -157h-74z" />
    <glyph glyph-name="racute" unicode="&#x155;" horiz-adv-x="370" 
d="M29 0l106 500h86l-19 -88q23 46 67.5 69.5t92.5 23.5q22 0 37 -4l-18 -89q-21 8 -45 8q-52 0 -102 -45t-67 -127l-52 -248h-86zM252 560l144 190h118l-190 -190h-72z" />
    <glyph glyph-name="uni0156" unicode="&#x156;" horiz-adv-x="632" 
d="M36 0l151 710h223q86 0 140.5 -51t54.5 -125q0 -94 -59.5 -150t-170.5 -63l213 -321h-106l-213 323h-72l-68 -323h-93zM215 406h139q76 0 116 31.5t41 87.5q1 44 -29 71.5t-83 27.5h-137zM319 -172l-82 -97h-44l52 88q-27 17 -27 49q0 24 17 41.5t42 17.5q24 0 41 -17.5
t17 -41.5q0 -18 -16 -40z" />
    <glyph glyph-name="uni0157" unicode="&#x157;" horiz-adv-x="370" 
d="M29 0l106 500h86l-19 -88q23 46 67.5 69.5t92.5 23.5q22 0 37 -4l-18 -89q-21 8 -45 8q-52 0 -102 -45t-67 -127l-52 -248h-86zM87 -172l-82 -97h-44l52 88q-27 17 -27 49q0 24 17 41.5t42 17.5q24 0 41 -17.5t17 -41.5q0 -18 -16 -40z" />
    <glyph glyph-name="Rcaron" unicode="&#x158;" horiz-adv-x="632" 
d="M36 0l151 710h223q86 0 140.5 -51t54.5 -125q0 -94 -59.5 -150t-170.5 -63l213 -321h-106l-213 323h-72l-68 -323h-93zM215 406h139q76 0 116 31.5t41 87.5q1 44 -29 71.5t-83 27.5h-137zM601 932l-15 -82l-177 -83l-147 93l17 72l138 -88z" />
    <glyph glyph-name="rcaron" unicode="&#x159;" horiz-adv-x="370" 
d="M29 0l106 500h86l-19 -88q23 46 67.5 69.5t92.5 23.5q22 0 37 -4l-18 -89q-21 8 -45 8q-52 0 -102 -45t-67 -127l-52 -248h-86zM283 576l-137 109l16 71l127 -104l194 104l-19 -85z" />
    <glyph glyph-name="Sacute" unicode="&#x15a;" horiz-adv-x="560" 
d="M267 -12q-111 0 -178 60.5t-69 141.5h92q9 -53 53.5 -84t106.5 -31q54 0 93 32t39 76q0 45 -25.5 73.5t-80.5 55.5l-43 21q-145 70 -141 191q0 87 63.5 142.5t161.5 55.5q102 0 157.5 -59t58.5 -133h-92q-7 50 -42.5 77.5t-87.5 27.5q-56 0 -91.5 -30t-35.5 -73
q1 -41 21 -64t64 -46l52 -26q77 -38 115.5 -87t38.5 -118q0 -89 -62 -146t-168 -57zM346 770l107 157h111l-144 -157h-74z" />
    <glyph glyph-name="sacute" unicode="&#x15b;" horiz-adv-x="457" 
d="M207 -10q-85 0 -138.5 43t-55.5 112h87q5 -41 35 -61.5t76 -20.5q39 0 67 20t28 48q0 29 -17 47t-54 33l-50 19q-105 40 -105 136q0 67 47.5 105.5t125.5 38.5q75 0 123 -42.5t52 -100.5h-85q-6 32 -31 51.5t-63 19.5q-34 0 -58.5 -17.5t-24.5 -45.5q0 -49 59 -72l48 -19
q57 -23 88.5 -56t31.5 -88q0 -69 -50 -109.5t-136 -40.5zM251 560l144 190h118l-190 -190h-72z" />
    <glyph glyph-name="Scircumflex" unicode="&#x15c;" horiz-adv-x="560" 
d="M267 -12q-111 0 -178 60.5t-69 141.5h92q9 -53 53.5 -84t106.5 -31q54 0 93 32t39 76q0 45 -25.5 73.5t-80.5 55.5l-43 21q-145 70 -141 191q0 87 63.5 142.5t161.5 55.5q102 0 157.5 -59t58.5 -133h-92q-7 50 -42.5 77.5t-87.5 27.5q-56 0 -91.5 -30t-35.5 -73
q1 -41 21 -64t64 -46l52 -26q77 -38 115.5 -87t38.5 -118q0 -89 -62 -146t-168 -57zM209 767l16 81l177 84l147 -94l-17 -71l-138 87z" />
    <glyph glyph-name="scircumflex" unicode="&#x15d;" horiz-adv-x="457" 
d="M207 -10q-85 0 -138.5 43t-55.5 112h87q5 -41 35 -61.5t76 -20.5q39 0 67 20t28 48q0 29 -17 47t-54 33l-50 19q-105 40 -105 136q0 67 47.5 105.5t125.5 38.5q75 0 123 -42.5t52 -100.5h-85q-6 32 -31 51.5t-63 19.5q-34 0 -58.5 -17.5t-24.5 -45.5q0 -49 59 -72l48 -19
q57 -23 88.5 -56t31.5 -88q0 -69 -50 -109.5t-136 -40.5zM322 756l137 -107l-16 -73l-132 102l-189 -102l20 83z" />
    <glyph glyph-name="Scedilla" unicode="&#x15e;" horiz-adv-x="560" 
d="M267 -12q-111 0 -178 60.5t-69 141.5h92q9 -53 53.5 -84t106.5 -31q54 0 93 32t39 76q0 45 -25.5 73.5t-80.5 55.5l-43 21q-145 70 -141 191q0 87 63.5 142.5t161.5 55.5q102 0 157.5 -59t58.5 -133h-92q-7 50 -42.5 77.5t-87.5 27.5q-56 0 -91.5 -30t-35.5 -73
q1 -41 21 -64t64 -46l52 -26q77 -38 115.5 -87t38.5 -118q0 -89 -62 -146t-168 -57zM108 -204l11 53q31 -15 75 -15q32 0 54 12t22 32q0 27 -41 27q-23 0 -47 -10l-28 21l68 87h57l-43 -54q17 5 39 5q30 0 48 -18t18 -45q0 -52 -40.5 -81t-105.5 -29q-50 0 -87 15z" />
    <glyph glyph-name="scedilla" unicode="&#x15f;" horiz-adv-x="457" 
d="M207 -10q-85 0 -138.5 43t-55.5 112h87q5 -41 35 -61.5t76 -20.5q39 0 67 20t28 48q0 29 -17 47t-54 33l-50 19q-105 40 -105 136q0 67 47.5 105.5t125.5 38.5q75 0 123 -42.5t52 -100.5h-85q-6 32 -31 51.5t-63 19.5q-34 0 -58.5 -17.5t-24.5 -45.5q0 -49 59 -72l48 -19
q57 -23 88.5 -56t31.5 -88q0 -69 -50 -109.5t-136 -40.5zM52 -204l11 53q31 -15 76 -15q32 0 53.5 11.5t21.5 31.5q0 28 -41 28q-23 0 -47 -10l-28 21l67 87h58l-43 -55q18 6 35 6q32 0 51 -19t19 -49q0 -52 -38.5 -78.5t-104.5 -26.5q-59 0 -90 15z" />
    <glyph glyph-name="Scaron" unicode="&#x160;" horiz-adv-x="560" 
d="M267 -12q-111 0 -178 60.5t-69 141.5h92q9 -53 53.5 -84t106.5 -31q54 0 93 32t39 76q0 45 -25.5 73.5t-80.5 55.5l-43 21q-145 70 -141 191q0 87 63.5 142.5t161.5 55.5q102 0 157.5 -59t58.5 -133h-92q-7 50 -42.5 77.5t-87.5 27.5q-56 0 -91.5 -30t-35.5 -73
q1 -41 21 -64t64 -46l52 -26q77 -38 115.5 -87t38.5 -118q0 -89 -62 -146t-168 -57zM566 932l-15 -82l-177 -83l-147 93l17 72l138 -88z" />
    <glyph glyph-name="scaron" unicode="&#x161;" horiz-adv-x="457" 
d="M207 -10q-85 0 -138.5 43t-55.5 112h87q5 -41 35 -61.5t76 -20.5q39 0 67 20t28 48q0 29 -17 47t-54 33l-50 19q-105 40 -105 136q0 67 47.5 105.5t125.5 38.5q75 0 123 -42.5t52 -100.5h-85q-6 32 -31 51.5t-63 19.5q-34 0 -58.5 -17.5t-24.5 -45.5q0 -49 59 -72l48 -19
q57 -23 88.5 -56t31.5 -88q0 -69 -50 -109.5t-136 -40.5zM283 576l-137 109l16 71l127 -104l194 104l-19 -85z" />
    <glyph glyph-name="uni0162" unicode="&#x162;" horiz-adv-x="564" 
d="M176 0l133 622h-220l18 88h533l-19 -88h-220l-133 -622h-92zM237 -172l-82 -97h-44l52 88q-27 17 -27 49q0 24 17 41.5t42 17.5q24 0 41 -17.5t17 -41.5q0 -18 -16 -40z" />
    <glyph glyph-name="uni0163" unicode="&#x163;" horiz-adv-x="375" 
d="M240 -5q-76 0 -117 46t-22 131l53 249h-106l17 79h106l30 139h86l-30 -139h145l-17 -79h-145l-54 -256q-21 -93 75 -93q26 0 52 7l-16 -77q-22 -7 -57 -7zM211 -172l-82 -97h-44l52 88q-27 17 -27 49q0 24 17 41.5t42 17.5q24 0 41 -17.5t17 -41.5q0 -18 -16 -40z" />
    <glyph glyph-name="Tcaron" unicode="&#x164;" horiz-adv-x="564" 
d="M176 0l133 622h-220l18 88h533l-19 -88h-220l-133 -622h-92zM581 932l-15 -82l-177 -83l-147 93l17 72l138 -88z" />
    <glyph glyph-name="tcaron" unicode="&#x165;" horiz-adv-x="375" 
d="M240 -5q-76 0 -117 46t-22 131l53 249h-106l17 79h106l30 139h86l-30 -139h145l-17 -79h-145l-54 -256q-21 -93 75 -93q26 0 52 7l-16 -77q-22 -7 -57 -7zM302 545l57 165h88l-85 -165h-60z" />
    <glyph glyph-name="Tbar" unicode="&#x166;" horiz-adv-x="590" 
d="M189 0l133 622h-220l18 88h533l-19 -88h-220l-133 -622h-92zM101 324l17 81h405l-17 -81h-405z" />
    <glyph glyph-name="tbar" unicode="&#x167;" horiz-adv-x="388" 
d="M245 -5q-76 0 -117 46t-22 131l53 249h-106l17 79h106l30 139h86l-30 -139h145l-17 -79h-145l-54 -256q-21 -93 75 -93q26 0 52 7l-16 -77q-22 -7 -57 -7zM34 266l15 68h336l-14 -68h-337z" />
    <glyph glyph-name="Utilde" unicode="&#x168;" horiz-adv-x="727" 
d="M733 710l-93 -437q-30 -142 -106.5 -213.5t-211.5 -71.5q-128 0 -196 80t-40 208l91 434h93l-92 -437q-21 -95 21 -146t128 -51t143 49.5t77 145.5l93 439h93zM299 786l4 18q11 44 45 69.5t74 25.5q29 0 73 -22t57 -22q34 0 52 44h65l-4 -19q-11 -43 -45 -68.5t-74 -25.5
q-30 0 -73 22t-57 22q-34 0 -52 -44h-65z" />
    <glyph glyph-name="utilde" unicode="&#x169;" horiz-adv-x="580" 
d="M219 -10q-87 0 -130.5 64t-23.5 158l62 288h86l-61 -287q-14 -66 10.5 -105t78.5 -39q61 -1 105.5 42t62.5 126l56 263h86l-106 -500h-86l14 64q-58 -74 -154 -74zM488 706h67l-5 -18q-14 -46 -46 -70.5t-73 -24.5q-30 0 -70.5 22t-57.5 22q-35 0 -52 -44h-67l5 18
q14 47 46 71t74 24q30 0 70 -22t57 -22q35 0 52 44z" />
    <glyph glyph-name="Umacron" unicode="&#x16a;" horiz-adv-x="727" 
d="M733 710l-93 -437q-30 -142 -106.5 -213.5t-211.5 -71.5q-128 0 -196 80t-40 208l91 434h93l-92 -437q-21 -95 21 -146t128 -51t143 49.5t77 145.5l93 439h93zM314 805l15 69h322l-15 -69h-322z" />
    <glyph glyph-name="umacron" unicode="&#x16b;" horiz-adv-x="580" 
d="M219 -10q-87 0 -130.5 64t-23.5 158l62 288h86l-61 -287q-14 -66 10.5 -105t78.5 -39q61 -1 105.5 42t62.5 126l56 263h86l-106 -500h-86l14 64q-58 -74 -154 -74zM207 641l15 69h322l-15 -69h-322z" />
    <glyph glyph-name="Ubreve" unicode="&#x16c;" horiz-adv-x="727" 
d="M733 710l-93 -437q-30 -142 -106.5 -213.5t-211.5 -71.5q-128 0 -196 80t-40 208l91 434h93l-92 -437q-21 -95 21 -146t128 -51t143 49.5t77 145.5l93 439h93zM481 759q-67 0 -112 44.5t-29 113.5h56q-9 -50 16.5 -75.5t71.5 -25.5q91 0 114 101h59q-11 -73 -58.5 -115.5
t-117.5 -42.5z" />
    <glyph glyph-name="ubreve" unicode="&#x16d;" horiz-adv-x="580" 
d="M219 -10q-87 0 -130.5 64t-23.5 158l62 288h86l-61 -287q-14 -66 10.5 -105t78.5 -39q61 -1 105.5 42t62.5 126l56 263h86l-106 -500h-86l14 64q-58 -74 -154 -74zM370 562q-67 0 -112 48t-30 124h59q-11 -55 15.5 -84.5t73.5 -29.5q42 0 71.5 28t38.5 86h59
q-8 -81 -54 -126.5t-121 -45.5z" />
    <glyph glyph-name="Uring" unicode="&#x16e;" horiz-adv-x="727" 
d="M733 710l-93 -437q-30 -142 -106.5 -213.5t-211.5 -71.5q-128 0 -196 80t-40 208l91 434h93l-92 -437q-21 -95 21 -146t128 -51t143 49.5t77 145.5l93 439h93zM489 753q-50 0 -85.5 35t-35.5 85t35.5 85t85.5 35t86 -35.5t36 -84.5t-36 -84.5t-86 -35.5zM489 804
q29 0 49.5 20t20.5 49t-20.5 49.5t-49.5 20.5t-49.5 -20.5t-20.5 -49.5t20.5 -49t49.5 -20z" />
    <glyph glyph-name="uring" unicode="&#x16f;" horiz-adv-x="580" 
d="M219 -10q-87 0 -130.5 64t-23.5 158l62 288h86l-61 -287q-14 -66 10.5 -105t78.5 -39q61 -1 105.5 42t62.5 126l56 263h86l-106 -500h-86l14 64q-58 -74 -154 -74zM371 543q-50 0 -85.5 35t-35.5 85t35.5 85t85.5 35t86 -35.5t36 -84.5t-36 -84.5t-86 -35.5zM371 594
q29 0 50 20t21 49t-21 49.5t-50 20.5t-49 -20.5t-20 -49.5t20 -49t49 -20z" />
    <glyph glyph-name="Uhungarumlaut" unicode="&#x170;" horiz-adv-x="727" 
d="M733 710l-93 -437q-30 -142 -106.5 -213.5t-211.5 -71.5q-128 0 -196 80t-40 208l91 434h93l-92 -437q-21 -95 21 -146t128 -51t143 49.5t77 145.5l93 439h93zM510 770l100 157h101l-138 -157h-63zM343 770l100 157h102l-139 -157h-63z" />
    <glyph glyph-name="uhungarumlaut" unicode="&#x171;" horiz-adv-x="580" 
d="M219 -10q-87 0 -130.5 64t-23.5 158l62 288h86l-61 -287q-14 -66 10.5 -105t78.5 -39q61 -1 105.5 42t62.5 126l56 263h86l-106 -500h-86l14 64q-58 -74 -154 -74zM384 560l107 190h103l-146 -190h-64zM216 560l107 190h104l-147 -190h-64z" />
    <glyph glyph-name="Uogonek" unicode="&#x172;" horiz-adv-x="727" 
d="M324 -219q-36 0 -59.5 20.5t-23.5 54.5q0 70 91 132h-9q-131 0 -198 80t-39 208l91 434h93l-92 -437q-21 -95 21 -146t128 -51t143 49.5t77 145.5l93 439h93l-93 -437q-40 -191 -162 -251q-147 -76 -147 -140q0 -27 34 -27q29 0 55 17l-14 -68q-34 -23 -82 -23z" />
    <glyph glyph-name="uogonek" unicode="&#x173;" horiz-adv-x="580" 
d="M219 -10q-87 0 -130.5 64t-23.5 158l62 288h86l-61 -287q-14 -66 10.5 -105t78.5 -39q61 -1 105.5 42t62.5 126l56 263h86l-106 -500h-86l14 64q-58 -74 -154 -74zM328 -219q-38 0 -61 21.5t-23 56.5q0 39 33.5 76.5t82.5 64.5h86q-61 -33 -90 -66t-29 -57q0 -29 33 -29
q32 0 57 18l-13 -63q-35 -22 -76 -22z" />
    <glyph glyph-name="Wcircumflex" unicode="&#x174;" horiz-adv-x="948" 
d="M588 0l-68 478l-279 -478h-82l-44 710h93l31 -552l329 564l82 -564l266 552h101l-346 -710h-83zM413 767l16 81l177 84l147 -94l-17 -71l-138 87z" />
    <glyph glyph-name="wcircumflex" unicode="&#x175;" horiz-adv-x="761" 
d="M128 0l-64 500h85l44 -367l204 367h66l46 -364l198 364h96l-276 -500h-76l-47 358l-200 -358h-76zM485 756l137 -107l-16 -73l-132 102l-189 -102l20 83z" />
    <glyph glyph-name="Ycircumflex" unicode="&#x176;" horiz-adv-x="672" 
d="M231 0l64 300l-189 410h99l147 -321l283 321h115l-363 -410l-64 -300h-92zM271 767l16 81l177 84l147 -94l-17 -71l-138 87z" />
    <glyph glyph-name="ycircumflex" unicode="&#x177;" horiz-adv-x="545" 
d="M17 -209l160 238l-118 471h89l91 -381l254 381h100l-478 -709h-98zM376 756l137 -107l-16 -73l-132 102l-189 -102l20 83z" />
    <glyph glyph-name="Ydieresis" unicode="&#x178;" horiz-adv-x="672" 
d="M231 0l64 300l-189 410h99l147 -321l283 321h115l-363 -410l-64 -300h-92zM337 785q-25 0 -42.5 17t-17.5 41t17.5 41.5t42.5 17.5q23 0 40 -17.5t17 -41.5t-17 -41t-40 -17zM562 785q-25 0 -42.5 17t-17.5 41t17.5 41.5t42.5 17.5q24 0 40.5 -17.5t16.5 -41.5t-16.5 -41
t-40.5 -17z" />
    <glyph glyph-name="Zacute" unicode="&#x179;" horiz-adv-x="582" 
d="M-25 0l13 62l495 560h-365l18 88h498l-14 -62l-496 -560h387l-18 -88h-518zM380 770l107 157h111l-144 -157h-74z" />
    <glyph glyph-name="zacute" unicode="&#x17a;" horiz-adv-x="480" 
d="M-14 0l15 68l353 353h-275l17 79h393l-15 -69l-351 -352h286l-17 -79h-406zM284 560l144 190h118l-190 -190h-72z" />
    <glyph glyph-name="Zdotaccent" unicode="&#x17b;" horiz-adv-x="582" 
d="M-25 0l13 62l495 560h-365l18 88h498l-14 -62l-496 -560h387l-18 -88h-518zM422 785q-25 0 -42 17t-17 41t17 41.5t42 17.5q24 0 41 -17.5t17 -41.5t-17 -41t-41 -17z" />
    <glyph glyph-name="zdotaccent" unicode="&#x17c;" horiz-adv-x="480" 
d="M-14 0l15 68l353 353h-275l17 79h393l-15 -69l-351 -352h286l-17 -79h-406zM334 596q-25 0 -42.5 17t-17.5 41t17.5 41.5t42.5 17.5q24 0 40.5 -17.5t16.5 -41.5t-16.5 -41t-40.5 -17z" />
    <glyph glyph-name="Zcaron" unicode="&#x17d;" horiz-adv-x="582" 
d="M-25 0l13 62l495 560h-365l18 88h498l-14 -62l-496 -560h387l-18 -88h-518zM600 932l-15 -82l-177 -83l-147 93l17 72l138 -88z" />
    <glyph glyph-name="zcaron" unicode="&#x17e;" horiz-adv-x="480" 
d="M-14 0l15 68l353 353h-275l17 79h393l-15 -69l-351 -352h286l-17 -79h-406zM316 576l-137 109l16 71l127 -104l194 104l-19 -85z" />
    <glyph glyph-name="uni018F" unicode="&#x18f;" horiz-adv-x="830" 
d="M393 -12q-149 0 -239.5 94.5t-90.5 234.5q0 55 7 83h637q-6 107 -73.5 170.5t-184.5 63.5q-81 0 -147 -35.5t-104 -98.5h-103q46 102 140.5 162t225.5 60q151 0 245 -94t94 -235q0 -172 -111.5 -288.5t-295.5 -116.5zM404 76q110 0 192 67.5t104 173.5h-542q0 -44 14 -85
t41.5 -77t77 -57.5t113.5 -21.5z" />
    <glyph glyph-name="uni0218" unicode="&#x218;" horiz-adv-x="560" 
d="M267 -12q-111 0 -178 60.5t-69 141.5h92q9 -53 53.5 -84t106.5 -31q54 0 93 32t39 76q0 45 -25.5 73.5t-80.5 55.5l-43 21q-145 70 -141 191q0 87 63.5 142.5t161.5 55.5q102 0 157.5 -59t58.5 -133h-92q-7 50 -42.5 77.5t-87.5 27.5q-56 0 -91.5 -30t-35.5 -73
q1 -41 21 -64t64 -46l52 -26q77 -38 115.5 -87t38.5 -118q0 -89 -62 -146t-168 -57zM270 -172l-82 -97h-44l52 88q-27 17 -27 49q0 24 17 41.5t42 17.5q24 0 41 -17.5t17 -41.5q0 -18 -16 -40z" />
    <glyph glyph-name="uni0219" unicode="&#x219;" horiz-adv-x="457" 
d="M207 -10q-85 0 -138.5 43t-55.5 112h87q5 -41 35 -61.5t76 -20.5q39 0 67 20t28 48q0 29 -17 47t-54 33l-50 19q-105 40 -105 136q0 67 47.5 105.5t125.5 38.5q75 0 123 -42.5t52 -100.5h-85q-6 32 -31 51.5t-63 19.5q-34 0 -58.5 -17.5t-24.5 -45.5q0 -49 59 -72l48 -19
q57 -23 88.5 -56t31.5 -88q0 -69 -50 -109.5t-136 -40.5zM211 -172l-82 -97h-44l52 88q-27 17 -27 49q0 24 17 41.5t42 17.5q24 0 41 -17.5t17 -41.5q0 -18 -16 -40z" />
    <glyph glyph-name="uni021A" unicode="&#x21a;" horiz-adv-x="564" 
d="M176 0l133 622h-220l18 88h533l-19 -88h-220l-133 -622h-92zM237 -172l-82 -97h-44l52 88q-27 17 -27 49q0 24 17 41.5t42 17.5q24 0 41 -17.5t17 -41.5q0 -18 -16 -40z" />
    <glyph glyph-name="uni021B" unicode="&#x21b;" horiz-adv-x="375" 
d="M240 -5q-76 0 -117 46t-22 131l53 249h-106l17 79h106l30 139h86l-30 -139h145l-17 -79h-145l-54 -256q-21 -93 75 -93q26 0 52 7l-16 -77q-22 -7 -57 -7zM211 -172l-82 -97h-44l52 88q-27 17 -27 49q0 24 17 41.5t42 17.5q24 0 41 -17.5t17 -41.5q0 -18 -16 -40z" />
    <glyph glyph-name="uni0232" unicode="&#x232;" horiz-adv-x="672" 
d="M231 0l64 300l-189 410h99l147 -321l283 321h115l-363 -410l-64 -300h-92zM279 805l15 69h322l-15 -69h-322z" />
    <glyph glyph-name="uni0233" unicode="&#x233;" horiz-adv-x="545" 
d="M17 -209l160 238l-118 471h89l91 -381l254 381h100l-478 -709h-98zM190 641l15 69h322l-15 -69h-322z" />
    <glyph glyph-name="uni0237" unicode="&#x237;" horiz-adv-x="257" 
d="M-60 -219q-29 0 -55 7l16 77q18 -5 39 -5q34 0 54 17.5t29 60.5l119 562h86l-123 -577q-16 -75 -55 -108.5t-110 -33.5z" />
    <glyph glyph-name="uni0259" unicode="&#x259;" horiz-adv-x="587" 
d="M267 -10q-52 0 -96.5 18.5t-77 52.5t-46 89t-1.5 123h413q2 70 -39 114.5t-111 44.5q-48 0 -90 -20.5t-65 -63.5h-91q26 71 91 116.5t160 45.5q99 0 164 -64.5t65 -171.5q0 -120 -76.5 -202t-199.5 -82zM272 66q60 0 107.5 36.5t64.5 102.5h-313q0 -65 38 -102t103 -37z
" />
    <glyph glyph-name="uni02BB" unicode="&#x2bb;" horiz-adv-x="251" 
d="M111 552l130 158h59l-93 -148q32 -26 32 -62q0 -30 -22 -52.5t-52 -22.5q-32 0 -53 22t-21 53q0 27 20 52z" />
    <glyph glyph-name="uni02BC" unicode="&#x2bc;" horiz-adv-x="253" 
d="M277 590l-130 -158h-59l93 148q-32 26 -32 62q0 30 22 52.5t52 22.5q32 0 53 -22t21 -53q0 -27 -20 -52z" />
    <glyph glyph-name="circumflex" unicode="&#x2c6;" 
d="M161 756l137 -107l-16 -73l-132 102l-189 -102l20 83z" />
    <glyph glyph-name="caron" unicode="&#x2c7;" 
d="M122 576l-137 109l16 71l127 -104l194 104l-19 -85z" />
    <glyph glyph-name="breve" unicode="&#x2d8;" 
d="M142 578q-67 0 -112 48t-30 124h59q-11 -55 15.5 -84.5t73.5 -29.5q42 0 71.5 28t38.5 86h59q-8 -81 -54 -126.5t-121 -45.5z" />
    <glyph glyph-name="dotaccent" unicode="&#x2d9;" 
d="M140 596q-25 0 -42.5 17t-17.5 41t17.5 41.5t42.5 17.5q24 0 40.5 -17.5t16.5 -41.5t-16.5 -41t-40.5 -17z" />
    <glyph glyph-name="ring" unicode="&#x2da;" 
d="M140 543q-50 0 -85.5 35t-35.5 85t35.5 85t85.5 35t86 -35.5t36 -84.5t-36 -84.5t-86 -35.5zM140 594q29 0 50 20t21 49t-21 49.5t-50 20.5t-49 -20.5t-20 -49.5t20 -49t49 -20z" />
    <glyph glyph-name="ogonek" unicode="&#x2db;" 
d="M-31 -219q-38 0 -61 21.5t-23 56.5q0 39 33.5 76.5t82.5 64.5h86q-61 -33 -90 -66t-29 -57q0 -29 33 -29q31 0 57 18l-13 -63q-35 -22 -76 -22z" />
    <glyph glyph-name="tilde" unicode="&#x2dc;" 
d="M257 706h67l-5 -18q-14 -46 -46 -70.5t-73 -24.5q-30 0 -70.5 22t-57.5 22q-36 0 -52 -44h-67l5 18q14 47 46 71t74 24q30 0 70 -22t57 -22q35 0 52 44z" />
    <glyph glyph-name="hungarumlaut" unicode="&#x2dd;" 
d="M118 560l107 190h103l-146 -190h-64zM-50 560l107 190h104l-147 -190h-64z" />
    <glyph glyph-name="uni0401" unicode="&#x401;" horiz-adv-x="557" 
d="M37 0l151 710h414l-19 -88h-321l-47 -215h262l-19 -88h-261l-50 -231h322l-18 -88h-414zM311 785q-25 0 -42.5 17t-17.5 41t17.5 41.5t42.5 17.5q23 0 40 -17.5t17 -41.5t-17 -41t-40 -17zM536 785q-25 0 -42.5 17t-17.5 41t17.5 41.5t42.5 17.5q24 0 40.5 -17.5
t16.5 -41.5t-16.5 -41t-40.5 -17z" />
    <glyph glyph-name="uni0402" unicode="&#x402;" horiz-adv-x="751" 
d="M505 442q87 0 142.5 -56t55.5 -144q0 -124 -73.5 -189t-192.5 -65q-62 0 -94 9l18 85q43 -8 87 -8q74 0 118.5 43.5t44.5 117.5q0 59 -34.5 89t-98.5 30q-76 0 -137.5 -54t-81.5 -141l-35 -159h-92l132 622h-174l19 88h491l-18 -88h-225l-58 -276q69 96 206 96z" />
    <glyph glyph-name="uni0403" unicode="&#x403;" horiz-adv-x="514" 
d="M589 710l-19 -88h-308l-133 -622h-92l151 710h401zM376 770l107 157h111l-144 -157h-74z" />
    <glyph glyph-name="uni0404" unicode="&#x404;" horiz-adv-x="794" 
d="M519 316h-362q2 -107 69 -173.5t182 -66.5q85 0 151 42t105 116h98q-44 -113 -137 -179.5t-228 -66.5q-150 0 -242 95t-92 234q0 171 111.5 288t294.5 117q123 0 208.5 -69.5t108.5 -176.5h-99q-21 71 -80.5 114.5t-145.5 43.5q-110 0 -190 -65t-105 -167h372z" />
    <glyph glyph-name="uni0405" unicode="&#x405;" horiz-adv-x="561" 
d="M267 -12q-111 0 -178 60.5t-69 141.5h92q9 -53 53.5 -84t106.5 -31q54 0 93 32t39 76q0 45 -25.5 73.5t-80.5 55.5l-43 21q-145 70 -141 191q0 87 63.5 142.5t161.5 55.5q102 0 157.5 -59t58.5 -133h-92q-7 50 -42.5 77.5t-87.5 27.5q-56 0 -91.5 -30t-35.5 -73
q1 -41 21 -64t64 -46l52 -26q77 -38 115.5 -87t38.5 -118q0 -89 -62 -146t-168 -57z" />
    <glyph glyph-name="uni0406" unicode="&#x406;" horiz-adv-x="283" 
d="M37 0l151 710h92l-151 -710h-92z" />
    <glyph glyph-name="uni0407" unicode="&#x407;" horiz-adv-x="283" 
d="M37 0l151 710h92l-151 -710h-92zM169 806q-26 0 -43.5 17.5t-17.5 43.5q0 25 17.5 42.5t43.5 17.5q25 0 42.5 -17.5t17.5 -42.5q0 -26 -17.5 -43.5t-42.5 -17.5zM365 806q-26 0 -43.5 17.5t-17.5 43.5q0 25 17.5 42.5t43.5 17.5q25 0 42.5 -17.5t17.5 -42.5
q0 -26 -17.5 -43.5t-42.5 -17.5z" />
    <glyph glyph-name="uni0408" unicode="&#x408;" horiz-adv-x="523" 
d="M327 207l107 503h93l-111 -522q-20 -100 -72 -150t-150 -50q-83 0 -145 54t-53 148h92q-4 -54 29.5 -84.5t80.5 -30.5q56 0 85 32.5t44 99.5z" />
    <glyph glyph-name="uni0409" unicode="&#x409;" horiz-adv-x="1031" 
d="M985 225q0 -107 -78 -166t-210 -59h-215l133 622h-309l-93 -438q-23 -112 -67 -154t-125 -42q-30 0 -60 6l18 85q25 -5 42 -5q42 0 64.5 27.5t38.5 99.5l108 509h494l-65 -303h118q94 0 150 -52t56 -130zM894 218q0 50 -35 76t-99 26h-117l-50 -233h119q86 0 134 35
t48 96z" />
    <glyph glyph-name="uni040A" unicode="&#x40a;" horiz-adv-x="1045" 
d="M37 0l151 710h92l-65 -303h369l65 303h92l-64 -303h116q94 0 149.5 -52t55.5 -130q0 -107 -77.5 -166t-210.5 -59h-212l68 320h-369l-68 -320h-92zM773 320h-115l-50 -233h118q85 0 133 35t48 96q0 50 -35 76t-99 26z" />
    <glyph glyph-name="uni040B" unicode="&#x40b;" horiz-adv-x="754" 
d="M109 710h491l-18 -88h-225l-58 -275q74 95 203 95q101 0 158 -68t34 -179l-42 -195h-92l42 197q17 76 -17 116.5t-109 40.5q-73 0 -136 -52.5t-85 -154.5l-31 -147h-92l132 622h-174z" />
    <glyph glyph-name="uni040C" unicode="&#x40c;" horiz-adv-x="668" 
d="M517 0l-317 339l-72 -339h-91l151 710h91l-66 -310l371 310h126l-414 -347l340 -363h-119zM418 770l107 157h111l-144 -157h-74z" />
    <glyph glyph-name="uni040E" unicode="&#x40e;" horiz-adv-x="699" 
d="M219 710l136 -434l323 434h110l-419 -566q-66 -90 -114.5 -123t-117.5 -33q-40 0 -78 9l18 84q32 -6 61 -6q66 0 120 71l30 39l-166 525h97zM467 759q-67 0 -112 44.5t-29 113.5h66q-9 -50 15 -75.5t63 -25.5q40 0 68.5 26.5t37.5 74.5h68q-11 -73 -59 -115.5t-118 -42.5
z" />
    <glyph glyph-name="uni040F" unicode="&#x40f;" horiz-adv-x="743" 
d="M357 0l-31 -148h-87l31 148h-233l151 710h92l-132 -622h367l132 622h93l-151 -710h-232z" />
    <glyph glyph-name="uni0410" unicode="&#x410;" horiz-adv-x="717" 
d="M-52 0l464 710h78l163 -710h-89l-47 207h-330l-135 -207h-104zM432 583l-191 -292h257z" />
    <glyph glyph-name="uni0411" unicode="&#x411;" horiz-adv-x="625" 
d="M218 416h154q90 0 147 -52.5t57 -133.5q0 -112 -75.5 -171t-211.5 -59h-252l151 710h430l-18 -88h-339zM147 86h159q84 0 131.5 34.5t47.5 99.5q0 52 -34 81t-95 29h-157z" />
    <glyph glyph-name="uni0412" unicode="&#x412;" horiz-adv-x="633" 
d="M37 0l151 710h198q95 0 148 -51t53 -120q0 -125 -112 -175q95 -39 95 -142q0 -101 -74 -161.5t-208 -60.5h-251zM147 84h155q84 0 130.5 38t46.5 97q0 45 -34.5 75.5t-97.5 30.5h-149zM215 405h127q71 0 112.5 34t41.5 88q0 42 -30 70.5t-85 28.5h-119z" />
    <glyph glyph-name="uni0413" unicode="&#x413;" horiz-adv-x="514" 
d="M589 710l-19 -88h-308l-133 -622h-92l151 710h401z" />
    <glyph glyph-name="uni0414" unicode="&#x414;" horiz-adv-x="758" 
d="M544 -148l31 148h-516l-31 -148h-86l49 236h14q44 0 79 53t65 193l80 376h496l-133 -622h88l-50 -236h-86zM303 622l-64 -302q-38 -177 -89 -232h349l115 534h-311z" />
    <glyph glyph-name="uni0415" unicode="&#x415;" horiz-adv-x="557" 
d="M37 0l151 710h414l-19 -88h-321l-47 -215h262l-19 -88h-261l-50 -231h322l-18 -88h-414z" />
    <glyph glyph-name="uni0416" unicode="&#x416;" horiz-adv-x="967" 
d="M806 0l-266 317l-67 -317h-93l67 316l-380 -316h-133l434 362l-255 348h104l243 -331l70 331h93l-70 -328l365 328h121l-406 -365l287 -345h-114z" />
    <glyph glyph-name="uni0417" unicode="&#x417;" horiz-adv-x="589" 
d="M197 538h-94q21 90 87.5 137t150.5 47q92 0 151.5 -49.5t59.5 -133.5q0 -53 -28.5 -102.5t-84.5 -75.5q37 -23 58 -62t21 -82q0 -109 -69 -169t-178 -60q-104 0 -174 54.5t-80 142.5h93q13 -56 59.5 -83t108.5 -27q67 0 108 38t41 103q0 47 -34 79t-97 32h-79l16 79h82
q68 0 107 33.5t39 90.5q0 49 -32.5 77.5t-87.5 28.5q-107 0 -144 -98z" />
    <glyph glyph-name="uni0418" unicode="&#x418;" horiz-adv-x="795" 
d="M117 0h-80l150 710h93l-116 -542l548 542h81l-151 -710h-93l116 542z" />
    <glyph glyph-name="uni0419" unicode="&#x419;" horiz-adv-x="795" 
d="M117 0h-80l150 710h93l-116 -542l548 542h81l-151 -710h-93l116 542zM519 759q-67 0 -112 44.5t-29 113.5h66q-9 -50 15 -75.5t63 -25.5q40 0 68.5 26.5t37.5 74.5h68q-11 -73 -59 -115.5t-118 -42.5z" />
    <glyph glyph-name="uni041A" unicode="&#x41a;" horiz-adv-x="668" 
d="M517 0l-317 339l-72 -339h-91l151 710h91l-66 -310l371 310h126l-414 -347l340 -363h-119z" />
    <glyph glyph-name="uni041B" unicode="&#x41b;" horiz-adv-x="731" 
d="M124 201l108 509h496l-151 -710h-93l133 622h-311l-93 -438q-23 -112 -67 -154t-125 -42q-30 0 -60 6l18 85q25 -5 42 -5q42 0 64.5 27.5t38.5 99.5z" />
    <glyph glyph-name="uni041C" unicode="&#x41c;" horiz-adv-x="887" 
d="M37 0l151 710h84l182 -378l346 378h85l-151 -710h-93l113 532l-324 -353l-183 378l-118 -557h-92z" />
    <glyph glyph-name="uni041D" unicode="&#x41d;" horiz-adv-x="765" 
d="M37 0l151 710h92l-65 -303h390l65 303h92l-151 -710h-92l68 320h-390l-68 -320h-92z" />
    <glyph glyph-name="uni041E" unicode="&#x41e;" horiz-adv-x="832" 
d="M406 76q128 0 215 89.5t87 218.5q0 112 -65 181t-183 69q-128 0 -215 -89.5t-87 -218.5q0 -112 64.5 -181t183.5 -69zM394 -12q-149 0 -239.5 94.5t-90.5 234.5q0 172 111 288.5t296 116.5q149 0 239.5 -94.5t90.5 -234.5q0 -172 -111 -288.5t-296 -116.5z" />
    <glyph glyph-name="uni041F" unicode="&#x41f;" horiz-adv-x="748" 
d="M504 0l132 622h-377l-132 -622h-90l150 710h559l-151 -710h-91z" />
    <glyph glyph-name="uni0420" unicode="&#x420;" horiz-adv-x="589" 
d="M37 0l151 710h197q102 0 159 -57.5t57 -142.5q0 -110 -76.5 -180.5t-216.5 -70.5h-124l-55 -259h-92zM202 343h124q81 0 132 47t51 116q0 51 -32.5 84t-97.5 33h-117z" />
    <glyph glyph-name="uni0421" unicode="&#x421;" horiz-adv-x="794" 
d="M397 -12q-150 0 -242 95t-92 234q0 171 111.5 288t294.5 117q123 0 208.5 -69.5t108.5 -176.5h-99q-21 71 -80.5 114.5t-145.5 43.5q-130 0 -217 -89.5t-87 -218.5q0 -111 66.5 -180.5t184.5 -69.5q85 0 151 42t105 116h98q-44 -113 -137 -179.5t-228 -66.5z" />
    <glyph glyph-name="uni0422" unicode="&#x422;" horiz-adv-x="564" 
d="M176 0l133 622h-220l18 88h533l-19 -88h-220l-133 -622h-92z" />
    <glyph glyph-name="uni0423" unicode="&#x423;" horiz-adv-x="699" 
d="M219 710l136 -434l323 434h110l-419 -566q-66 -90 -114.5 -123t-117.5 -33q-40 0 -78 9l18 84q32 -6 61 -6q66 0 120 71l30 39l-166 525h97z" />
    <glyph glyph-name="uni0424" unicode="&#x424;" horiz-adv-x="873" 
d="M493 63h-56l-19 -93h-92l19 93q-132 4 -208 82t-76 192q0 142 97 229t254 87h58l19 87h92l-19 -87q130 -4 207 -82.5t77 -190.5q0 -143 -98 -230t-255 -87zM156 338q0 -83 55 -135.5t152 -54.5l89 420h-51q-103 0 -174 -62.5t-71 -167.5zM455 148h51q102 0 173.5 63
t71.5 168q0 82 -56 134.5t-151 54.5z" />
    <glyph glyph-name="uni0425" unicode="&#x425;" horiz-adv-x="664" 
d="M66 0h-117l347 361l-196 349h101l158 -282l270 282h115l-341 -359l200 -351h-101l-162 286z" />
    <glyph glyph-name="uni0426" unicode="&#x426;" horiz-adv-x="763" 
d="M597 88h89l-50 -236h-87l31 148h-543l150 710h93l-132 -622h356l133 622h92z" />
    <glyph glyph-name="uni0427" unicode="&#x427;" horiz-adv-x="683" 
d="M529 0h-92l77 360q-72 -96 -210 -96q-112 0 -174 71t-35 193l39 182h92l-39 -182q-21 -91 19.5 -134t118.5 -43q80 0 145 55t86 151l32 153h92z" />
    <glyph glyph-name="uni0428" unicode="&#x428;" horiz-adv-x="989" 
d="M37 0l150 710h93l-132 -622h260l133 622h92l-132 -622h260l133 622h92l-151 -710h-798z" />
    <glyph glyph-name="uni0429" unicode="&#x429;" horiz-adv-x="1019" 
d="M806 -148l31 148h-800l150 710h93l-132 -622h260l133 622h92l-132 -622h260l133 622h92l-132 -622h89l-50 -236h-87z" />
    <glyph glyph-name="uni042A" unicode="&#x42a;" horiz-adv-x="702" 
d="M87 622l18 88h284l-61 -285h122q95 0 150.5 -55.5t55.5 -136.5q0 -110 -78.5 -171.5t-214.5 -61.5h-218l133 622h-191zM431 339h-121l-54 -253h123q87 0 136.5 38t49.5 102q0 54 -34 83.5t-100 29.5z" />
    <glyph glyph-name="uni042B" unicode="&#x42b;" horiz-adv-x="850" 
d="M147 86h123q87 0 136.5 38t49.5 102q0 54 -34 83.5t-100 29.5h-121zM219 425h122q95 0 150.5 -55.5t55.5 -136.5q0 -110 -78 -171.5t-214 -61.5h-218l151 710h92zM605 0l151 710h92l-151 -710h-92z" />
    <glyph glyph-name="uni042C" unicode="&#x42c;" horiz-adv-x="593" 
d="M147 86h123q87 0 136.5 38t49.5 102q0 54 -34 83.5t-100 29.5h-121zM219 425h122q95 0 150.5 -55.5t55.5 -136.5q0 -110 -78 -171.5t-214 -61.5h-218l151 710h92z" />
    <glyph glyph-name="uni042D" unicode="&#x42d;" horiz-adv-x="795" 
d="M308 402h361q-6 105 -71 168.5t-179 63.5q-84 0 -150.5 -42t-105.5 -116h-98q44 114 137 180t229 66q149 0 241 -94.5t92 -233.5q0 -173 -111 -289.5t-295 -116.5q-122 0 -208.5 70t-107.5 177h98q20 -71 80 -115t147 -44q111 0 192.5 67.5t103.5 172.5h-374z" />
    <glyph glyph-name="uni042E" unicode="&#x42e;" horiz-adv-x="1075" 
d="M647 -12q-141 0 -230.5 95t-89.5 234v2h-130l-68 -319h-92l150 710h93l-65 -304h120q27 139 131.5 227.5t256.5 88.5q141 0 230 -95t89 -234q0 -171 -109.5 -288t-285.5 -117zM712 634q-122 0 -206.5 -89.5t-84.5 -218.5q0 -111 63 -180.5t174 -69.5q122 0 206.5 89.5
t84.5 218.5q0 111 -63 180.5t-174 69.5z" />
    <glyph glyph-name="uni042F" unicode="&#x42f;" horiz-adv-x="634" 
d="M481 0h-93l61 289h-96l-294 -289h-123l318 310q-57 21 -89.5 66.5t-32.5 103.5q0 108 77 169t210 61h212zM520 624h-116q-85 0 -133 -37.5t-48 -100.5q0 -50 33 -80.5t97 -30.5h114z" />
    <glyph glyph-name="uni0430" unicode="&#x430;" horiz-adv-x="632" 
d="M257 -10q-91 0 -153 62.5t-62 164.5q0 124 79.5 208.5t204.5 84.5q62 0 107.5 -29t65.5 -70l18 89h86l-106 -500h-86l15 63q-25 -33 -71.5 -53t-97.5 -20zM275 68q83 0 141 58.5t58 148.5q0 75 -39.5 115.5t-106.5 40.5q-83 0 -141 -58.5t-58 -148.5q0 -75 40 -115.5
t106 -40.5z" />
    <glyph glyph-name="uni0431" unicode="&#x431;" horiz-adv-x="628" 
d="M294 -11q-120 0 -188 88.5t-41 221.5l11 52q37 181 122.5 268t245.5 109l186 26l-16 -82l-166 -23q-110 -15 -170 -65.5t-96 -150.5q66 66 172 66q99 0 165 -62.5t66 -167.5q0 -114 -79.5 -197t-211.5 -83zM334 421q-83 0 -137 -56t-54 -141q0 -71 45 -113t112 -42
q84 0 140.5 55t56.5 139q0 79 -46 118.5t-117 39.5z" />
    <glyph glyph-name="uni0432" unicode="&#x432;" horiz-adv-x="553" 
d="M29 0l107 500h216q66 0 105 -37t39 -90q0 -78 -69 -118q57 -31 57 -99q0 -69 -49 -112.5t-152 -43.5h-254zM133 75h161q50 0 76.5 22t26.5 62q0 29 -19.5 47t-53.5 18h-159zM179 293h138q93 0 93 73q0 28 -18.5 44t-46.5 16h-137z" />
    <glyph glyph-name="uni0433" unicode="&#x433;" horiz-adv-x="411" 
d="M29 0l106 500h313l-17 -79h-227l-89 -421h-86z" />
    <glyph glyph-name="uni0434" unicode="&#x434;" horiz-adv-x="626" 
d="M-3 79h12q36 0 61 33.5t45 128.5l55 259h397l-89 -421h76l-44 -205h-81l27 126h-395l-27 -126h-81zM239 421l-41 -194q-22 -113 -57 -148h251l73 342h-226z" />
    <glyph glyph-name="uni0435" unicode="&#x435;" horiz-adv-x="585" 
d="M270 -10q-99 0 -163 66t-64 170q0 120 78 202t200 82q114 0 177 -76t41 -207h-413q0 -70 41 -114.5t109 -44.5q109 0 154 84h91q-28 -73 -92 -117.5t-159 -44.5zM312 434q-60 0 -108 -36.5t-65 -102.5h315q0 65 -38 102t-104 37z" />
    <glyph glyph-name="uni0436" unicode="&#x436;" horiz-adv-x="772" 
d="M622 0l-199 223l-47 -223h-86l47 222l-273 -222h-119l321 261l-182 239h97l168 -222l47 222h86l-47 -222l250 222h111l-285 -255l214 -245h-103z" />
    <glyph glyph-name="uni0437" unicode="&#x437;" horiz-adv-x="486" 
d="M213 -10q-82 1 -137.5 39.5t-69.5 105.5h87q11 -36 44 -54t79 -18q52 0 80 26t28 65q0 71 -87 71h-56l15 70h57q105 0 105 75q0 33 -24.5 50.5t-67.5 17.5q-84 0 -112 -70h-86q21 72 75.5 107t126.5 35q78 0 124.5 -36.5t46.5 -99.5q0 -86 -82 -123q52 -30 52 -104
q0 -67 -53 -112t-145 -45z" />
    <glyph glyph-name="uni0438" unicode="&#x438;" horiz-adv-x="608" 
d="M105 0h-76l106 500h86l-76 -356l358 356h76l-106 -500h-85l76 357z" />
    <glyph glyph-name="uni0439" unicode="&#x439;" horiz-adv-x="608" 
d="M105 0h-76l106 500h86l-76 -356l358 356h76l-106 -500h-85l76 357zM401 578q-67 0 -112 48t-30 124h65q-11 -55 13.5 -84.5t69.5 -29.5q85 0 104 114h65q-8 -81 -54 -126.5t-121 -45.5z" />
    <glyph glyph-name="uni043A" unicode="&#x43a;" horiz-adv-x="518" 
d="M368 0l-206 223l-47 -223h-86l106 500h86l-46 -219l259 219h114l-297 -252l226 -248h-109z" />
    <glyph glyph-name="uni043B" unicode="&#x43b;" horiz-adv-x="586" 
d="M19 -7q-26 0 -52 6l17 75q15 -4 34 -4q31 0 50 22t31 76l71 332h387l-106 -500h-86l89 421h-215l-57 -270q-18 -86 -56.5 -122t-106.5 -36z" />
    <glyph glyph-name="uni043C" unicode="&#x43c;" horiz-adv-x="692" 
d="M135 500h79l132 -247l239 247h78l-106 -500h-86l74 352l-221 -227l-131 244l-78 -369h-86z" />
    <glyph glyph-name="uni043D" unicode="&#x43d;" horiz-adv-x="608" 
d="M29 0l106 500h86l-44 -206h273l43 206h86l-106 -500h-86l46 216h-273l-45 -216h-86z" />
    <glyph glyph-name="uni043E" unicode="&#x43e;" horiz-adv-x="609" 
d="M292 70q80 0 133 55.5t53 136.5q0 78 -44 123t-117 45q-80 0 -132.5 -55.5t-52.5 -135.5q0 -78 43.5 -123.5t116.5 -45.5zM286 -10q-114 0 -178 70.5t-64 171.5q0 118 77 198t203 80q114 0 177.5 -70t63.5 -171q0 -117 -77 -198t-202 -81z" />
    <glyph glyph-name="uni043F" unicode="&#x43f;" horiz-adv-x="598" 
d="M29 0l106 500h434l-106 -500h-86l89 421h-262l-89 -421h-86z" />
    <glyph glyph-name="uni0440" unicode="&#x440;" horiz-adv-x="632" 
d="M-15 -209l150 709h85l-13 -63q24 32 70.5 52.5t97.5 20.5q92 0 153.5 -62t61.5 -165q0 -124 -79.5 -208.5t-204.5 -84.5q-61 0 -107.5 29.5t-64.5 69.5l-63 -298h-86zM304 69q83 0 141 58.5t58 148.5q0 75 -39.5 115.5t-106.5 40.5q-83 0 -141 -58.5t-58 -148.5
q0 -75 40 -115.5t106 -40.5z" />
    <glyph glyph-name="uni0441" unicode="&#x441;" horiz-adv-x="594" 
d="M286 -10q-114 0 -178 70.5t-64 171.5q0 118 77 198t203 80q97 0 158.5 -52t78.5 -134h-92q-16 51 -55.5 79t-96.5 28q-80 0 -132.5 -55.5t-52.5 -136.5q0 -78 43.5 -124t116.5 -46q56 0 100.5 29t66.5 78h92q-26 -84 -95.5 -135t-169.5 -51z" />
    <glyph glyph-name="uni0442" unicode="&#x442;" horiz-adv-x="442" 
d="M121 0l89 421h-158l16 79h411l-16 -79h-167l-89 -421h-86z" />
    <glyph glyph-name="uni0443" unicode="&#x443;" horiz-adv-x="544" 
d="M591 500l-394 -589q-48 -73 -88 -101.5t-98 -28.5q-31 0 -65 9l16 74q18 -5 45 -5q55 0 107 76l63 94l-118 471h90l92 -375l250 375h100z" />
    <glyph glyph-name="uni0444" unicode="&#x444;" horiz-adv-x="743" 
d="M318 -209h-86l41 199q-103 2 -166 69t-63 164q0 128 83.5 207t224.5 79h30l51 241h86l-51 -241q104 -2 167.5 -69t63.5 -164q0 -128 -83.5 -207t-224.5 -79h-32zM376 68h25q97 0 154 57t57 147q0 68 -42.5 112.5t-117.5 46.5zM131 227q0 -68 42 -112.5t117 -46.5l76 363
h-24q-96 0 -153.5 -57.5t-57.5 -146.5z" />
    <glyph glyph-name="uni0445" unicode="&#x445;" horiz-adv-x="525" 
d="M364 0l-111 186l-189 -186h-111l258 253l-135 247h94l103 -187l182 187h108l-249 -256l146 -244h-96z" />
    <glyph glyph-name="uni0446" unicode="&#x446;" horiz-adv-x="624" 
d="M552 79l-43 -205h-81l26 126h-425l106 500h86l-89 -421h257l90 421h86l-90 -421h77z" />
    <glyph glyph-name="uni0447" unicode="&#x447;" horiz-adv-x="542" 
d="M406 0h-87l49 229q-49 -63 -148 -63q-84 0 -131 57t-29 145l28 132h87l-27 -131q-12 -61 13.5 -93t81.5 -32q51 0 97.5 36.5t59.5 99.5l26 120h86z" />
    <glyph glyph-name="uni0448" unicode="&#x448;" horiz-adv-x="820" 
d="M29 0l106 500h86l-89 -421h199l89 421h86l-89 -421h199l89 421h86l-106 -500h-656z" />
    <glyph glyph-name="uni0449" unicode="&#x449;" horiz-adv-x="850" 
d="M779 79l-44 -205h-81l27 126h-652l106 500h86l-89 -421h199l89 421h86l-89 -421h199l89 421h86l-89 -421h77z" />
    <glyph glyph-name="uni044A" unicode="&#x44a;" horiz-adv-x="564" 
d="M255 320h105q72 0 113.5 -41.5t41.5 -103.5q0 -80 -57 -127.5t-163 -47.5h-194l89 423h-139l16 77h226zM204 78h103q57 0 89.5 25.5t32.5 70.5q0 68 -86 68h-105z" />
    <glyph glyph-name="uni044B" unicode="&#x44b;" horiz-adv-x="712" 
d="M491 0l106 500h86l-106 -500h-86zM29 0l107 500h87l-38 -180h104q72 0 113.5 -41.5t41.5 -103.5q0 -79 -57.5 -127t-162.5 -48h-195zM167 242l-34 -164h103q57 0 89.5 25.5t32.5 70.5q0 68 -86 68h-105z" />
    <glyph glyph-name="uni044C" unicode="&#x44c;" horiz-adv-x="493" 
d="M29 0l107 500h87l-38 -180h104q72 0 113.5 -41.5t41.5 -103.5q0 -79 -57.5 -127t-162.5 -48h-195zM167 242l-34 -164h103q57 0 89.5 25.5t32.5 70.5q0 68 -86 68h-105z" />
    <glyph glyph-name="uni044D" unicode="&#x44d;" horiz-adv-x="593" 
d="M308 511q113 0 177 -70.5t64 -171.5q0 -118 -76.5 -198t-202.5 -80q-97 0 -158.5 52t-78.5 134h91q16 -51 55.5 -79t96.5 -28q67 0 117 41.5t64 106.5h-237l15 72h225q-8 66 -50.5 104t-108.5 38q-56 0 -100 -29t-66 -78h-92q27 84 96 135t169 51z" />
    <glyph glyph-name="uni044E" unicode="&#x44e;" horiz-adv-x="804" 
d="M491 -10q-103 0 -163.5 65t-66.5 161h-100l-46 -216h-86l106 500h86l-44 -207h89q19 95 89.5 156t173.5 61q108 0 169.5 -70t61.5 -171q0 -117 -74.5 -198t-194.5 -81zM498 70q73 0 123.5 56t50.5 136q0 78 -41 123t-108 45q-74 0 -124.5 -55.5t-50.5 -135.5
q0 -78 41.5 -123.5t108.5 -45.5z" />
    <glyph glyph-name="uni044F" unicode="&#x44f;" horiz-adv-x="525" 
d="M308 500h188l-106 -500h-86l39 182h-64l-219 -182h-116l245 204q-44 18 -68 52t-24 77q0 74 53.5 120.5t157.5 46.5zM359 259l35 164h-91q-121 0 -121 -89q0 -34 23.5 -54.5t66.5 -20.5h87z" />
    <glyph glyph-name="uni0451" unicode="&#x451;" horiz-adv-x="585" 
d="M270 -10q-99 0 -163 66t-64 170q0 120 78 202t200 82q114 0 177 -76t41 -207h-413q0 -70 41 -114.5t109 -44.5q109 0 154 84h91q-28 -73 -92 -117.5t-159 -44.5zM312 434q-60 0 -108 -36.5t-65 -102.5h315q0 65 -38 102t-104 37zM240 596q-25 0 -42 17t-17 41t17 41.5
t42 17.5q24 0 41 -17.5t17 -41.5t-17 -41t-41 -17zM465 596q-25 0 -42 17t-17 41t17 41.5t42 17.5q24 0 41 -17.5t17 -41.5t-17 -41t-41 -17z" />
    <glyph glyph-name="uni0452" unicode="&#x452;" horiz-adv-x="590" 
d="M364 -62l74 347q15 68 -10.5 107t-83.5 39q-63 0 -109 -42.5t-64 -126.5l-56 -262h-86l124 586h-77l15 70h77l20 94h86l-20 -94h173l-14 -70h-174l-32 -150q60 74 163 74q87 0 131.5 -63t24.5 -159l-79 -365q-17 -75 -56 -108.5t-109 -33.5q-29 0 -55 7l15 77
q18 -5 40 -5q34 0 53.5 17.5t28.5 60.5z" />
    <glyph glyph-name="uni0453" unicode="&#x453;" horiz-adv-x="411" 
d="M29 0l106 500h313l-17 -79h-227l-89 -421h-86zM276 560l144 190h118l-190 -190h-72z" />
    <glyph glyph-name="uni0454" unicode="&#x454;" horiz-adv-x="594" 
d="M286 -10q-114 0 -178 70.5t-64 171.5q0 118 77 198t203 80q97 0 158.5 -52t78.5 -134h-92q-16 51 -55.5 79t-96.5 28q-65 0 -113.5 -39.5t-65.5 -101.5h238l-15 -72h-228q6 -70 48.5 -109.5t110.5 -39.5q56 0 100.5 29t66.5 78h92q-26 -84 -95.5 -135t-169.5 -51z" />
    <glyph glyph-name="uni0455" unicode="&#x455;" horiz-adv-x="457" 
d="M207 -10q-85 0 -138.5 43t-55.5 112h87q5 -41 35 -61.5t76 -20.5q39 0 67 20t28 48q0 29 -17 47t-54 33l-50 19q-105 40 -105 136q0 67 47.5 105.5t125.5 38.5q75 0 123 -42.5t52 -100.5h-85q-6 32 -31 51.5t-63 19.5q-34 0 -58.5 -17.5t-24.5 -45.5q0 -49 59 -72l48 -19
q57 -23 88.5 -56t31.5 -88q0 -69 -50 -109.5t-136 -40.5z" />
    <glyph glyph-name="uni0456" unicode="&#x456;" horiz-adv-x="251" 
d="M220 634q-26 0 -44 17.5t-18 43.5q0 25 18 43t44 18t43.5 -18t17.5 -43q0 -26 -17.5 -43.5t-43.5 -17.5zM29 0l106 500h86l-106 -500h-86z" />
    <glyph glyph-name="uni0457" unicode="&#x457;" horiz-adv-x="250" 
d="M29 0l106 500h86l-106 -500h-86zM113 596q-26 0 -43.5 17.5t-17.5 43.5q0 25 17.5 42.5t43.5 17.5q25 0 42.5 -17.5t17.5 -42.5q0 -26 -17.5 -43.5t-42.5 -17.5zM309 596q-26 0 -43.5 17.5t-17.5 43.5q0 25 17.5 42.5t43.5 17.5q25 0 42.5 -17.5t17.5 -42.5
q0 -26 -17.5 -43.5t-42.5 -17.5z" />
    <glyph glyph-name="uni0458" unicode="&#x458;" horiz-adv-x="258" 
d="M-60 -219q-29 0 -55 7l16 77q18 -5 39 -5q34 0 54 17.5t29 60.5l119 562h86l-123 -577q-16 -75 -55 -108.5t-110 -33.5zM227 634q-26 0 -44 17.5t-18 43.5q0 25 18 43t44 18t43.5 -18t17.5 -43q0 -26 -17.5 -43.5t-43.5 -17.5z" />
    <glyph glyph-name="uni0459" unicode="&#x459;" horiz-adv-x="816" 
d="M239 421l-57 -270q-18 -86 -56.5 -122t-106.5 -36q-33 0 -51 6l16 75q13 -4 34 -4q30 0 50 22t31 76l71 332h380l-44 -206h108q71 0 111.5 -37.5t40.5 -96.5q0 -76 -55 -118t-160 -42h-193l89 421h-208zM461 78h102q118 0 118 81q0 58 -83 58h-108z" />
    <glyph glyph-name="uni045A" unicode="&#x45a;" horiz-adv-x="836" 
d="M221 500l-44 -206h263l43 206h86l-44 -206h108q72 0 112.5 -37.5t40.5 -96.5q0 -76 -55.5 -118t-160.5 -42h-193l46 216h-263l-45 -216h-86l106 500h86zM480 78h103q117 0 117 81q0 58 -83 58h-108z" />
    <glyph glyph-name="uni045B" unicode="&#x45b;" horiz-adv-x="590" 
d="M115 0h-86l124 586h-77l15 70h77l20 94h86l-20 -94h173l-14 -70h-174l-32 -150q60 74 163 74q87 0 131.5 -63t24.5 -159l-63 -288h-86l61 285q15 68 -10.5 107t-83.5 39q-63 0 -109 -42.5t-64 -126.5z" />
    <glyph glyph-name="uni045C" unicode="&#x45c;" horiz-adv-x="518" 
d="M368 0l-206 223l-47 -223h-86l106 500h86l-46 -219l259 219h114l-297 -252l226 -248h-109zM310 560l144 190h118l-190 -190h-72z" />
    <glyph glyph-name="uni045E" unicode="&#x45e;" horiz-adv-x="544" 
d="M591 500l-394 -589q-48 -73 -88 -101.5t-98 -28.5q-31 0 -65 9l16 74q18 -5 45 -5q55 0 107 76l63 94l-118 471h90l92 -375l250 375h100zM357 578q-67 0 -112 48t-30 124h65q-11 -55 13.5 -84.5t69.5 -29.5q85 0 104 114h65q-8 -81 -54 -126.5t-121 -45.5z" />
    <glyph glyph-name="uni045F" unicode="&#x45f;" horiz-adv-x="603" 
d="M468 0h-178l-27 -126h-81l26 126h-179l106 500h86l-89 -421h267l89 421h86z" />
    <glyph glyph-name="uni0462" unicode="&#x462;" horiz-adv-x="708" 
d="M79 533l16 79h182l21 98h93l-21 -98h225l-16 -79h-226l-23 -108h122q95 0 150.5 -55.5t55.5 -136.5q0 -110 -78.5 -171.5t-214.5 -61.5h-218l114 533h-182zM258 86h123q87 0 136.5 38t49.5 102q0 54 -34.5 83.5t-100.5 29.5h-121z" />
    <glyph glyph-name="uni0463" unicode="&#x463;" horiz-adv-x="543" 
d="M54 430l15 70h113l52 250h86l-52 -250h201l-16 -70h-199l-24 -110h104q72 0 113.5 -41.5t41.5 -103.5q0 -79 -57.5 -127t-161.5 -48h-194l91 430h-113zM213 242l-34 -164h103q56 0 89 25.5t33 70.5q0 68 -86 68h-105z" />
    <glyph glyph-name="uni0472" unicode="&#x472;" horiz-adv-x="832" 
d="M406 76q128 0 215 89.5t87 218.5q0 112 -65 181t-183 69q-128 0 -215 -89.5t-87 -218.5q0 -112 64.5 -181t183.5 -69zM394 -12q-149 0 -239.5 94.5t-90.5 234.5q0 172 111 288.5t296 116.5q149 0 239.5 -94.5t90.5 -234.5q0 -172 -111 -288.5t-296 -116.5zM564 374
q91 0 165 47l-17 -84q-77 -47 -166 -47q-48 0 -124 23.5t-117 23.5q-90 0 -167 -47l19 84q73 47 165 47q53 0 126.5 -23.5t115.5 -23.5z" />
    <glyph glyph-name="uni0473" unicode="&#x473;" horiz-adv-x="609" 
d="M292 70q80 0 133 55.5t53 136.5q0 78 -44 123t-117 45q-80 0 -132.5 -55.5t-52.5 -135.5q0 -78 43.5 -123.5t116.5 -45.5zM286 -10q-114 0 -178 70.5t-64 171.5q0 118 77 198t203 80q114 0 177.5 -70t63.5 -171q0 -117 -77 -198t-202 -81zM111 284l-14 -68h402l14 68
h-402z" />
    <glyph glyph-name="uni0474" unicode="&#x474;" horiz-adv-x="770" 
d="M781 722q35 0 65 -10l-18 -85q-49 9 -80 -6t-66 -68l-353 -553h-78l-152 710h90l121 -572l293 458q48 74 85.5 100t92.5 26z" />
    <glyph glyph-name="uni0475" unicode="&#x475;" horiz-adv-x="589" 
d="M144 500l92 -385l192 286q41 62 74.5 85.5t78.5 23.5q29 0 51 -8l-15 -74q-39 7 -63 -6t-53 -56l-246 -366h-73l-125 500h87z" />
    <glyph glyph-name="uni0490" unicode="&#x490;" horiz-adv-x="514" 
d="M589 710l-19 -88h-308l-133 -622h-92l151 710h401zM589 710h-88l30 148h88z" />
    <glyph glyph-name="uni0491" unicode="&#x491;" horiz-adv-x="411" 
d="M29 0l106 500h313l-17 -79h-227l-89 -421h-86zM448 500h-81l27 126h81z" />
    <glyph glyph-name="uni0492" unicode="&#x492;" horiz-adv-x="533" 
d="M603 710l-19 -88h-308l-133 -622h-92l151 710h401zM27 316l19 85h364l-19 -85h-364z" />
    <glyph glyph-name="uni0493" unicode="&#x493;" horiz-adv-x="427" 
d="M45 0l106 500h313l-17 -79h-227l-89 -421h-86zM309 226h-296l15 70h297z" />
    <glyph glyph-name="uni0496" unicode="&#x496;" horiz-adv-x="991" 
d="M806 0l-266 317l-67 -317h-93l67 316l-380 -316h-133l434 362l-255 348h104l243 -331l70 331h93l-70 -328l365 328h121l-406 -365l287 -345h-114zM808 -148l32 148h-27l19 88h115l-51 -236h-88z" />
    <glyph glyph-name="uni0497" unicode="&#x497;" horiz-adv-x="795" 
d="M622 0l-199 223l-47 -223h-86l47 222l-273 -222h-119l321 261l-182 239h97l168 -222l47 222h86l-47 -222l250 222h111l-285 -255l214 -245h-103zM627 -126l26 126h-28l17 79h109l-43 -205h-81z" />
    <glyph glyph-name="uni049A" unicode="&#x49a;" horiz-adv-x="693" 
d="M517 0l-317 339l-72 -339h-91l151 710h91l-66 -310l371 310h126l-414 -347l340 -363h-119zM520 -148l32 148h-27l19 88h115l-51 -236h-88z" />
    <glyph glyph-name="uni049B" unicode="&#x49b;" horiz-adv-x="539" 
d="M368 0l-206 223l-47 -223h-86l106 500h86l-46 -219l259 219h114l-297 -252l226 -248h-109zM376 -126l26 126h-28l17 79h109l-43 -205h-81z" />
    <glyph glyph-name="uni04A2" unicode="&#x4a2;" horiz-adv-x="795" 
d="M37 0l151 710h92l-65 -303h390l65 303h92l-151 -710h-92l68 320h-390l-68 -320h-92zM580 -148l32 148h-27l19 88h115l-51 -236h-88z" />
    <glyph glyph-name="uni04A3" unicode="&#x4a3;" horiz-adv-x="632" 
d="M29 0l106 500h86l-44 -206h273l43 206h86l-106 -500h-86l46 216h-273l-45 -216h-86zM432 -126l26 126h-28l17 79h109l-43 -205h-81z" />
    <glyph glyph-name="uni04AE" unicode="&#x4ae;" horiz-adv-x="672" 
d="M231 0l64 300l-189 410h99l147 -321l283 321h115l-363 -410l-64 -300h-92z" />
    <glyph glyph-name="uni04AF" unicode="&#x4af;" horiz-adv-x="547" 
d="M134 -209l43 208l-118 501h86l92 -395l259 395h98l-331 -499l-43 -210h-86z" />
    <glyph glyph-name="uni04B0" unicode="&#x4b0;" horiz-adv-x="668" 
d="M231 0l64 300l-189 410h99l147 -321l283 321h115l-363 -410l-64 -300h-92zM540 301l-18 -85h-403l18 85h403z" />
    <glyph glyph-name="uni04B1" unicode="&#x4b1;" horiz-adv-x="548" 
d="M135 -209l43 208l-118 501h86l92 -395l259 395h98l-331 -499l-43 -210h-86zM27 -70l16 70h359l-15 -70h-360z" />
    <glyph glyph-name="uni04B2" unicode="&#x4b2;" horiz-adv-x="698" 
d="M66 0h-117l347 361l-196 349h101l158 -282l270 282h115l-341 -359l200 -351h-101l-162 286zM514 -148l32 148h-27l19 88h115l-51 -236h-88z" />
    <glyph glyph-name="uni04B3" unicode="&#x4b3;" horiz-adv-x="549" 
d="M364 0l-111 186l-189 -186h-111l258 253l-135 247h94l103 -187l182 187h108l-249 -256l146 -244h-96zM375 -126l26 126h-28l17 79h109l-43 -205h-81z" />
    <glyph glyph-name="uni04B6" unicode="&#x4b6;" horiz-adv-x="713" 
d="M529 0h-92l77 360q-72 -96 -210 -96q-112 0 -174 71t-35 193l39 182h92l-39 -182q-21 -91 19.5 -134t118.5 -43q80 0 145 55t86 151l32 153h92zM498 -148l32 148h-27l19 88h115l-51 -236h-88z" />
    <glyph glyph-name="uni04B7" unicode="&#x4b7;" horiz-adv-x="573" 
d="M406 0h-87l49 229q-49 -63 -148 -63q-84 0 -131 57t-29 145l28 132h87l-27 -131q-12 -61 13.5 -93t81.5 -32q51 0 97.5 36.5t59.5 99.5l26 120h86zM375 -126l26 126h-28l17 79h109l-43 -205h-81z" />
    <glyph glyph-name="uni04BA" unicode="&#x4ba;" horiz-adv-x="683" 
d="M188 710h92l-77 -360q72 96 210 96q112 0 174 -71t35 -193l-39 -182h-92l39 182q21 91 -19.5 134t-118.5 43q-80 0 -145 -55t-86 -151l-32 -153h-92z" />
    <glyph glyph-name="uni04BB" unicode="&#x4bb;" horiz-adv-x="590" 
d="M29 0l159 750h86l-67 -314q60 74 163 74q87 0 131.5 -63t24.5 -159l-63 -288h-86l61 285q15 68 -10.5 107t-83.5 39q-63 0 -109 -42.5t-64 -126.5l-56 -262h-86z" />
    <glyph glyph-name="uni04C0" unicode="&#x4c0;" horiz-adv-x="283" 
d="M37 0l151 710h92l-151 -710h-92z" />
    <glyph glyph-name="uni04CF" unicode="&#x4cf;" horiz-adv-x="250" 
d="M29 0l159 750h86l-159 -750h-86z" />
    <glyph glyph-name="uni04D8" unicode="&#x4d8;" horiz-adv-x="830" 
d="M393 -12q-149 0 -239.5 94.5t-90.5 234.5q0 55 7 83h637q-6 107 -73.5 170.5t-184.5 63.5q-81 0 -147 -35.5t-104 -98.5h-103q46 102 140.5 162t225.5 60q151 0 245 -94t94 -235q0 -172 -111.5 -288.5t-295.5 -116.5zM404 76q110 0 192 67.5t104 173.5h-542q0 -44 14 -85
t41.5 -77t77 -57.5t113.5 -21.5z" />
    <glyph glyph-name="uni04D9" unicode="&#x4d9;" horiz-adv-x="587" 
d="M267 -10q-52 0 -96.5 18.5t-77 52.5t-46 89t-1.5 123h413q2 70 -39 114.5t-111 44.5q-48 0 -90 -20.5t-65 -63.5h-91q26 71 91 116.5t160 45.5q99 0 164 -64.5t65 -171.5q0 -120 -76.5 -202t-199.5 -82zM272 66q60 0 107.5 36.5t64.5 102.5h-313q0 -65 38 -102t103 -37z
" />
    <glyph glyph-name="uni04E2" unicode="&#x4e2;" horiz-adv-x="795" 
d="M117 0h-80l150 710h93l-116 -542l548 542h81l-151 -710h-93l116 542zM358 805l15 69h322l-15 -69h-322z" />
    <glyph glyph-name="uni04E3" unicode="&#x4e3;" horiz-adv-x="608" 
d="M105 0h-76l106 500h86l-76 -356l358 356h76l-106 -500h-85l76 357zM234 641l15 69h322l-15 -69h-322z" />
    <glyph glyph-name="uni04E8" unicode="&#x4e8;" horiz-adv-x="832" 
d="M406 76q128 0 215 89.5t87 218.5q0 112 -65 181t-183 69q-128 0 -215 -89.5t-87 -218.5q0 -112 64.5 -181t183.5 -69zM394 -12q-149 0 -239.5 94.5t-90.5 234.5q0 172 111 288.5t296 116.5q149 0 239.5 -94.5t90.5 -234.5q0 -172 -111 -288.5t-296 -116.5zM122 398
l-19 -85h640l19 85h-640z" />
    <glyph glyph-name="uni04E9" unicode="&#x4e9;" horiz-adv-x="609" 
d="M292 70q80 0 133 55.5t53 136.5q0 78 -44 123t-117 45q-80 0 -132.5 -55.5t-52.5 -135.5q0 -78 43.5 -123.5t116.5 -45.5zM286 -10q-114 0 -178 70.5t-64 171.5q0 118 77 198t203 80q114 0 177.5 -70t63.5 -171q0 -117 -77 -198t-202 -81zM111 284l-14 -68h402l14 68
h-402z" />
    <glyph glyph-name="uni04EE" unicode="&#x4ee;" horiz-adv-x="699" 
d="M219 710l136 -434l323 434h110l-419 -566q-66 -90 -114.5 -123t-117.5 -33q-40 0 -78 9l18 84q32 -6 61 -6q66 0 120 71l30 39l-166 525h97zM306 805l15 69h322l-15 -69h-322z" />
    <glyph glyph-name="uni04EF" unicode="&#x4ef;" horiz-adv-x="544" 
d="M591 500l-394 -589q-48 -73 -88 -101.5t-98 -28.5q-31 0 -65 9l16 74q18 -5 45 -5q55 0 107 76l63 94l-118 471h90l92 -375l250 375h100zM190 641l15 69h322l-15 -69h-322z" />
    <glyph glyph-name="Wgrave" unicode="&#x1e80;" horiz-adv-x="948" 
d="M588 0l-68 478l-279 -478h-82l-44 710h93l31 -552l329 564l82 -564l266 552h101l-346 -710h-83zM592 770h-66l-89 157h106z" />
    <glyph glyph-name="wgrave" unicode="&#x1e81;" horiz-adv-x="761" 
d="M128 0l-64 500h85l44 -367l204 367h66l46 -364l198 364h96l-276 -500h-76l-47 358l-200 -358h-76zM473 560h-61l-62 190h97z" />
    <glyph glyph-name="Wacute" unicode="&#x1e82;" horiz-adv-x="948" 
d="M588 0l-68 478l-279 -478h-82l-44 710h93l31 -552l329 564l82 -564l266 552h101l-346 -710h-83zM549 770l107 157h111l-144 -157h-74z" />
    <glyph glyph-name="wacute" unicode="&#x1e83;" horiz-adv-x="761" 
d="M128 0l-64 500h85l44 -367l204 367h66l46 -364l198 364h96l-276 -500h-76l-47 358l-200 -358h-76zM414 560l144 190h118l-190 -190h-72z" />
    <glyph glyph-name="Wdieresis" unicode="&#x1e84;" horiz-adv-x="948" 
d="M588 0l-68 478l-279 -478h-82l-44 710h93l31 -552l329 564l82 -564l266 552h101l-346 -710h-83zM479 785q-25 0 -42.5 17t-17.5 41t17.5 41.5t42.5 17.5q23 0 40 -17.5t17 -41.5t-17 -41t-40 -17zM704 785q-25 0 -42.5 17t-17.5 41t17.5 41.5t42.5 17.5q24 0 40.5 -17.5
t16.5 -41.5t-16.5 -41t-40.5 -17z" />
    <glyph glyph-name="wdieresis" unicode="&#x1e85;" horiz-adv-x="761" 
d="M128 0l-64 500h85l44 -367l204 367h66l46 -364l198 364h96l-276 -500h-76l-47 358l-200 -358h-76zM350 596q-25 0 -42 17t-17 41t17 41.5t42 17.5q24 0 41 -17.5t17 -41.5t-17 -41t-41 -17zM575 596q-25 0 -42 17t-17 41t17 41.5t42 17.5q24 0 41 -17.5t17 -41.5t-17 -41
t-41 -17z" />
    <glyph glyph-name="uni1E9E" unicode="&#x1e9e;" horiz-adv-x="639" 
d="M36 0l151 710h441l-13 -61l-176 -211q69 -15 108 -64.5t39 -112.5q0 -124 -80 -192.5t-213 -68.5h-55l19 88h44q81 0 135 43.5t54 121.5q0 53 -36 84t-94 31h-44l15 70l158 188h-227l-133 -626h-93z" />
    <glyph glyph-name="uni1ECA" unicode="&#x1eca;" horiz-adv-x="283" 
d="M36 0l151 710h93l-151 -710h-93zM56 -190q-25 0 -42 17t-17 41t17 41.5t42 17.5q24 0 41 -17.5t17 -41.5t-17 -41t-41 -17z" />
    <glyph glyph-name="uni1ECB" unicode="&#x1ecb;" horiz-adv-x="250" 
d="M221 634q-26 0 -44 17.5t-18 43.5q0 25 18 43t44 18t43.5 -18t17.5 -43q0 -26 -17.5 -43.5t-43.5 -17.5zM29 0l106 500h86l-106 -500h-86zM46 -190q-25 0 -42 17t-17 41t17 41.5t42 17.5q24 0 41 -17.5t17 -41.5t-17 -41t-41 -17z" />
    <glyph glyph-name="uni1ECC" unicode="&#x1ecc;" horiz-adv-x="832" 
d="M406 76q128 0 215 89.5t87 218.5q0 112 -65 181t-183 69q-128 0 -215 -89.5t-87 -218.5q0 -112 64.5 -181t183.5 -69zM394 -12q-149 0 -239.5 94.5t-90.5 234.5q0 172 111 288.5t296 116.5q149 0 239.5 -94.5t90.5 -234.5q0 -172 -111 -288.5t-296 -116.5zM345 -190
q-25 0 -42 17t-17 41t17 41.5t42 17.5q24 0 41 -17.5t17 -41.5t-17 -41t-41 -17z" />
    <glyph glyph-name="uni1ECD" unicode="&#x1ecd;" horiz-adv-x="609" 
d="M292 70q80 0 133 55.5t53 136.5q0 78 -44 123t-117 45q-80 0 -132.5 -55.5t-52.5 -135.5q0 -78 43.5 -123.5t116.5 -45.5zM286 -10q-114 0 -178 70.5t-64 171.5q0 118 77 198t203 80q114 0 177.5 -70t63.5 -171q0 -117 -77 -198t-202 -81zM239 -190q-25 0 -42 17t-17 41
t17 41.5t42 17.5q24 0 41 -17.5t17 -41.5t-17 -41t-41 -17z" />
    <glyph glyph-name="uni1EE4" unicode="&#x1ee4;" horiz-adv-x="727" 
d="M733 710l-93 -437q-30 -142 -106.5 -213.5t-211.5 -71.5q-128 0 -196 80t-40 208l91 434h93l-92 -437q-21 -95 21 -146t128 -51t143 49.5t77 145.5l93 439h93zM277 -190q-25 0 -42 17t-17 41t17 41.5t42 17.5q24 0 41 -17.5t17 -41.5t-17 -41t-41 -17z" />
    <glyph glyph-name="uni1EE5" unicode="&#x1ee5;" horiz-adv-x="580" 
d="M219 -10q-87 0 -130.5 64t-23.5 158l62 288h86l-61 -287q-14 -66 10.5 -105t78.5 -39q61 -1 105.5 42t62.5 126l56 263h86l-106 -500h-86l14 64q-58 -74 -154 -74zM211 -190q-25 0 -42 17t-17 41t17 41.5t42 17.5q24 0 41 -17.5t17 -41.5t-17 -41t-41 -17z" />
    <glyph glyph-name="Ygrave" unicode="&#x1ef2;" horiz-adv-x="672" 
d="M231 0l64 300l-189 410h99l147 -321l283 321h115l-363 -410l-64 -300h-92zM450 770h-66l-89 157h106z" />
    <glyph glyph-name="ygrave" unicode="&#x1ef3;" horiz-adv-x="545" 
d="M17 -209l160 238l-118 471h89l91 -381l254 381h100l-478 -709h-98zM364 560h-61l-62 190h97z" />
    <glyph glyph-name="uni2007" unicode="&#x2007;" horiz-adv-x="590" 
 />
    <glyph glyph-name="uni2008" unicode="&#x2008;" horiz-adv-x="250" 
 />
    <glyph glyph-name="uni2009" unicode="&#x2009;" horiz-adv-x="125" 
 />
    <glyph glyph-name="uni200B" unicode="&#x200b;" 
 />
    <glyph glyph-name="endash" unicode="&#x2013;" horiz-adv-x="564" 
d="M59 237l18 86h434l-18 -86h-434z" />
    <glyph glyph-name="emdash" unicode="&#x2014;" horiz-adv-x="634" 
d="M59 237l18 86h505l-19 -86h-504z" />
    <glyph glyph-name="quoteleft" unicode="&#x2018;" horiz-adv-x="251" 
d="M111 552l130 158h59l-93 -148q32 -26 32 -62q0 -30 -22 -52.5t-52 -22.5q-32 0 -53 22t-21 53q0 27 20 52z" />
    <glyph glyph-name="quoteright" unicode="&#x2019;" horiz-adv-x="253" 
d="M277 590l-130 -158h-59l93 148q-32 26 -32 62q0 30 22 52.5t52 22.5q32 0 53 -22t21 -53q0 -27 -20 -52z" />
    <glyph glyph-name="quotesinglbase" unicode="&#x201a;" horiz-adv-x="255" 
d="M149 15l-130 -158h-59l93 148q-32 26 -32 62q0 30 22 52.5t52 22.5q32 0 53 -22t21 -53q0 -27 -20 -52z" />
    <glyph glyph-name="quotedblleft" unicode="&#x201c;" horiz-adv-x="437" 
d="M111 552l130 158h59l-93 -148q32 -26 32 -62q0 -30 -22 -52.5t-52 -22.5q-32 0 -53 22t-21 53q0 27 20 52zM297 552l130 158h59l-93 -148q32 -26 32 -62q0 -30 -22 -52.5t-52 -22.5q-32 0 -53 22t-21 53q0 27 20 52z" />
    <glyph glyph-name="quotedblright" unicode="&#x201d;" horiz-adv-x="439" 
d="M277 590l-130 -158h-59l93 148q-32 26 -32 62q0 30 22 52.5t52 22.5q32 0 53 -22t21 -53q0 -27 -20 -52zM463 590l-130 -158h-59l93 148q-32 26 -32 62q0 30 22 52.5t52 22.5q32 0 53 -22t21 -53q0 -27 -20 -52z" />
    <glyph glyph-name="quotedblbase" unicode="&#x201e;" horiz-adv-x="441" 
d="M149 15l-130 -158h-59l93 148q-32 26 -32 62q0 30 22 52.5t52 22.5q32 0 53 -22t21 -53q0 -27 -20 -52zM335 15l-130 -158h-59l93 148q-32 26 -32 62q0 30 22 52.5t52 22.5q32 0 53 -22t21 -53q0 -27 -20 -52z" />
    <glyph glyph-name="dagger" unicode="&#x2020;" horiz-adv-x="508" 
d="M138 -98l111 523h-185l16 75h185l45 210h79l-45 -210h184l-16 -75h-184l-111 -523h-79z" />
    <glyph glyph-name="daggerdbl" unicode="&#x2021;" horiz-adv-x="535" 
d="M460 112h-185l-45 -210h-79l45 210h-184l15 75h185l50 238h-185l17 75h184l45 210h79l-45 -210h185l-17 -75h-184l-51 -238h185z" />
    <glyph glyph-name="bullet" unicode="&#x2022;" horiz-adv-x="420" 
d="M216 166q-56 0 -96 39.5t-40 96.5t40 96.5t96 39.5q57 0 97 -39.5t40 -96.5t-40 -96.5t-97 -39.5z" />
    <glyph glyph-name="ellipsis" unicode="&#x2026;" horiz-adv-x="724" 
d="M91 -8q-32 0 -53 22t-21 53t21 53t53 22q30 0 52 -22.5t22 -52.5q0 -31 -21.5 -53t-52.5 -22zM330 -8q-32 0 -53 22t-21 53t21 53t53 22q30 0 52 -22.5t22 -52.5q0 -31 -21.5 -53t-52.5 -22zM571 -8q-32 0 -53 22t-21 53t21 53t53 22q30 0 52 -22.5t22 -52.5
q0 -31 -21.5 -53t-52.5 -22z" />
    <glyph glyph-name="perthousand" unicode="&#x2030;" horiz-adv-x="1500" 
d="M1252 -8q-82 0 -139.5 58t-57.5 139q0 82 57.5 139.5t139.5 57.5q81 0 139 -57.5t58 -139.5q0 -81 -58 -139t-139 -58zM1252 70q48 0 83 35.5t35 83.5t-35 83.5t-83 35.5q-50 0 -84 -35t-34 -84t34 -84t84 -35zM309 0h-102l601 710h101zM829 -8q-82 0 -139.5 58
t-57.5 139q0 82 57.5 139.5t139.5 57.5q81 0 139 -57.5t58 -139.5q0 -81 -58 -139t-139 -58zM829 70q50 0 84 35t34 84t-34 84t-84 35q-48 0 -83 -35.5t-35 -83.5t35 -83.5t83 -35.5zM287 324q-82 0 -139.5 58t-57.5 139q0 82 57.5 139.5t139.5 57.5q81 0 139 -57.5
t58 -139.5q0 -81 -58 -139t-139 -58zM287 402q50 0 84 35t34 84t-34 84t-84 35q-48 0 -83 -35.5t-35 -83.5t35 -83.5t83 -35.5z" />
    <glyph glyph-name="guilsinglleft" unicode="&#x2039;" horiz-adv-x="305" 
d="M40 250l186 217h75l-164 -229l71 -205h-69z" />
    <glyph glyph-name="guilsinglright" unicode="&#x203a;" horiz-adv-x="307" 
d="M262 251l-186 -217h-75l164 229l-71 205h69z" />
    <glyph glyph-name="fraction" unicode="&#x2044;" horiz-adv-x="180" 
d="M-172 0h-87l651 710h87z" />
    <glyph glyph-name="uni2060" unicode="&#x2060;" horiz-adv-x="254" 
 />
    <glyph glyph-name="uni2070" unicode="&#x2070;" horiz-adv-x="385" 
d="M239 404q-74 0 -112 49.5t-22 126.5l22 109q32 160 174 160q74 0 112 -49.5t22 -127.5l-23 -109q-34 -159 -173 -159zM244 472q80 0 100 95l24 115q10 45 -11 71.5t-62 26.5q-80 0 -99 -94l-24 -116q-10 -45 10.5 -71.5t61.5 -26.5z" />
    <glyph glyph-name="uni2074" unicode="&#x2074;" horiz-adv-x="389" 
d="M271 410l22 107h-221l12 56l286 269h62l-55 -261h58l-14 -64h-58l-23 -107h-69zM180 581h127l31 147z" />
    <glyph glyph-name="uni2075" unicode="&#x2075;" horiz-adv-x="354" 
d="M233 404q-56 0 -101 33.5t-53 93.5h72q18 -59 85 -59q37 0 59.5 23t22.5 60q0 31 -18.5 52t-50.5 21q-52 0 -80 -44l-61 20l96 238h214l-14 -68h-155l-39 -94q26 12 57 12q52 0 86.5 -38t34.5 -93q0 -69 -40 -113t-115 -44z" />
    <glyph glyph-name="uni2076" unicode="&#x2076;" horiz-adv-x="353" 
d="M237 404q-65 0 -106.5 39t-41.5 95q0 43 17 75.5t54 69.5l162 159h93l-153 -153q52 0 90 -39.5t38 -95.5q0 -63 -42.5 -106.5t-110.5 -43.5zM238 471q35 0 57.5 23.5t22.5 58.5q0 32 -22 53.5t-54 21.5q-36 0 -59 -23t-23 -59q0 -32 22.5 -53.5t55.5 -21.5z" />
    <glyph glyph-name="uni2077" unicode="&#x2077;" horiz-adv-x="334" 
d="M68 410l271 364h-205l14 68h294l-13 -60l-276 -372h-85z" />
    <glyph glyph-name="uni2078" unicode="&#x2078;" horiz-adv-x="364" 
d="M237 403q-68 0 -106.5 40t-38.5 89q0 42 21 75.5t62 50.5q-29 29 -29 72q0 55 39 87t98 32q56 0 88 -32t34 -76q0 -65 -59 -98q46 -33 46 -93q0 -71 -44 -109t-111 -38zM240 468q36 1 58.5 23.5t22.5 56.5q0 28 -19 49.5t-57 21.5q-37 -1 -59.5 -23.5t-22.5 -57.5
q0 -27 20 -48.5t57 -21.5zM272 673q29 0 46.5 16.5t17.5 45.5q0 19 -13.5 35t-42.5 16q-30 0 -47.5 -16.5t-17.5 -45.5q0 -18 13.5 -34.5t43.5 -16.5z" />
    <glyph glyph-name="uni2079" unicode="&#x2079;" horiz-adv-x="353" 
d="M91 410l155 154q-52 0 -90 38.5t-38 96.5q0 63 42.5 106.5t109.5 43.5q66 0 107.5 -39.5t41.5 -94.5q0 -44 -16.5 -76t-54.5 -69l-162 -160h-95zM266 624q35 0 58.5 24t23.5 58q0 32 -22.5 54t-54.5 22q-35 0 -58.5 -24t-23.5 -58q0 -33 22 -54.5t55 -21.5z" />
    <glyph glyph-name="uni2080" unicode="&#x2080;" horiz-adv-x="385" 
d="M128 -120q-74 0 -112 49.5t-22 126.5l22 109q32 160 174 160q74 0 112 -49.5t22 -127.5l-23 -109q-34 -159 -173 -159zM133 -52q80 0 100 95l24 115q10 45 -11 71.5t-62 26.5q-80 0 -99 -94l-24 -116q-10 -45 10.5 -71.5t61.5 -26.5z" />
    <glyph glyph-name="uni2081" unicode="&#x2081;" horiz-adv-x="227" 
d="M16 -114l78 363h-89l68 69h105l-92 -432h-70z" />
    <glyph glyph-name="uni2082" unicode="&#x2082;" horiz-adv-x="355" 
d="M-44 -114l7 35q4 19 11.5 36.5t14 29.5t21.5 26t21.5 20.5t27.5 19t25.5 15t29.5 15.5t27 14q49 27 71 49.5t22 53.5q0 26 -17 41t-45 15q-31 0 -53.5 -18.5t-27.5 -52.5h-71q6 66 51 103t107 37q53 0 90.5 -32t37.5 -86q0 -58 -28.5 -94t-99.5 -73l-21 -10.5t-24 -12.5
t-21 -12.5t-21 -15t-14.5 -16t-10.5 -19.5h192l-14 -68h-288z" />
    <glyph glyph-name="uni2083" unicode="&#x2083;" horiz-adv-x="366" 
d="M134 -121q-61 0 -107.5 38.5t-40.5 104.5h68q-2 -35 22.5 -54.5t58.5 -19.5q36 0 58 19.5t22 53.5q0 27 -17 42.5t-49 15.5h-45l14 60h32q35 0 58 17t22 48q0 24 -17.5 38t-44.5 14q-30 0 -54.5 -18.5t-30.5 -52.5h-70q8 66 53.5 103t106.5 37q53 0 90.5 -31.5
t37.5 -81.5q0 -76 -71 -107q53 -26 53 -89q0 -57 -39.5 -97t-109.5 -40z" />
    <glyph glyph-name="uni2084" unicode="&#x2084;" horiz-adv-x="389" 
d="M160 -114l22 107h-221l12 56l286 269h62l-55 -261h58l-14 -64h-58l-23 -107h-69zM69 57h127l31 147z" />
    <glyph glyph-name="uni2085" unicode="&#x2085;" horiz-adv-x="354" 
d="M122 -120q-56 0 -101 33.5t-53 93.5h72q18 -59 85 -59q37 0 59.5 23t22.5 60q0 31 -18.5 52t-50.5 21q-52 0 -80 -44l-61 20l96 238h214l-14 -68h-155l-39 -94q26 12 57 12q52 0 86.5 -38t34.5 -93q0 -69 -40 -113t-115 -44z" />
    <glyph glyph-name="uni2086" unicode="&#x2086;" horiz-adv-x="353" 
d="M127 -120q-65 0 -106.5 39t-41.5 95q0 43 17 75.5t54 69.5l162 159h93l-153 -153q52 0 90 -39.5t38 -95.5q0 -63 -42.5 -106.5t-110.5 -43.5zM128 -53q35 0 57.5 24t22.5 58q0 32 -22 53.5t-54 21.5q-36 0 -59 -23t-23 -59q0 -32 22.5 -53.5t55.5 -21.5z" />
    <glyph glyph-name="uni2087" unicode="&#x2087;" horiz-adv-x="334" 
d="M-42 -114l271 364h-205l14 68h294l-13 -60l-276 -372h-85z" />
    <glyph glyph-name="uni2088" unicode="&#x2088;" horiz-adv-x="364" 
d="M126 -121q-68 0 -106.5 40t-38.5 89q0 42 21 75.5t62 50.5q-29 29 -29 72q0 55 39 87t98 32q56 0 88 -32t34 -76q0 -65 -59 -98q46 -33 46 -93q0 -71 -44 -109t-111 -38zM129 -56q36 1 58.5 23.5t22.5 56.5q0 28 -19 49.5t-57 21.5q-37 -1 -59.5 -23.5t-22.5 -57.5
q0 -27 20 -48.5t57 -21.5zM161 149q29 0 46.5 16.5t17.5 45.5q0 19 -13.5 35t-42.5 16q-30 0 -47.5 -16.5t-17.5 -45.5q0 -18 13.5 -34.5t43.5 -16.5z" />
    <glyph glyph-name="uni2089" unicode="&#x2089;" horiz-adv-x="353" 
d="M-20 -114l155 154q-52 0 -90 38.5t-38 96.5q0 63 42.5 106.5t109.5 43.5q66 0 107.5 -39.5t41.5 -94.5q0 -44 -16.5 -76t-54.5 -69l-162 -160h-95zM155 100q35 0 58.5 24t23.5 58q0 32 -22.5 54t-54.5 22q-35 0 -58.5 -24t-23.5 -58q0 -33 22 -54.5t55 -21.5z" />
    <glyph glyph-name="Euro" unicode="&#x20ac;" horiz-adv-x="892" 
d="M171 404h-106l38 55h83q39 118 140.5 190.5t241.5 72.5q116 0 199.5 -62.5t112.5 -159.5h-95q-25 61 -85.5 100t-138.5 39q-96 0 -170.5 -49t-111.5 -131h418l-37 -55h-399q-9 -38 -9 -78v-18h342l-35 -54h-300q19 -86 83 -134.5t166 -48.5q76 0 138 37.5t102 101.5h96
q-44 -102 -132.5 -162t-214.5 -60q-131 0 -219.5 74.5t-109.5 191.5h-134l37 54h92v9q0 42 8 87z" />
    <glyph glyph-name="uni20B4" unicode="&#x20b4;" horiz-adv-x="609" 
d="M48 268l12 55h509l-13 -55h-358q-52 -34 -52 -91q0 -50 39.5 -80t103.5 -30q62 0 103.5 32t52.5 91h86q-14 -96 -79.5 -149t-170.5 -53q-94 0 -157.5 48t-63.5 128q0 60 41 104h-53zM74 392l12 55h362q47 35 47 95q0 47 -30.5 74t-84.5 27q-112 0 -148 -113h-86
q20 92 84.5 142t158.5 50q82 0 136 -46t54 -121q0 -63 -35 -108h50l-12 -55h-508z" />
    <glyph glyph-name="uni20B8" unicode="&#x20b8;" horiz-adv-x="606" 
d="M204 0l107 501h-224l18 85h533l-18 -85h-223l-107 -501h-86zM120 655l12 55h532l-12 -55h-532z" />
    <glyph glyph-name="uni20BD" unicode="&#x20bd;" horiz-adv-x="621" 
d="M55 279l18 84h86l74 347h186q103 0 159.5 -51.5t56.5 -135.5q0 -107 -74.5 -175.5t-213.5 -68.5h-120l-17 -80h207l-11 -55h-208l-30 -144h-86l30 144h-86l11 55h87l17 80h-86zM245 363h121q83 0 130.5 42.5t47.5 110.5q0 51 -32 80.5t-98 29.5h-113z" />
    <glyph glyph-name="uni2116" unicode="&#x2116;" horiz-adv-x="1115" 
d="M645 0h-81l-313 563l-119 -563h-93l151 710h81l312 -564l120 564h93zM981 405q-63 0 -108.5 46t-45.5 109t45.5 109t108.5 46t109 -46t46 -109t-46 -109t-109 -46zM981 471q37 0 63 26t26 63t-26 63t-63 26q-36 0 -62 -26t-26 -63t26 -63t62 -26zM775 293l14 66h300
l-14 -66h-300z" />
    <glyph glyph-name="uni2117" unicode="&#x2117;" horiz-adv-x="837" 
d="M438 -12q-151 0 -259 108t-108 259t108 259t259 108q152 0 259.5 -108t107.5 -259t-107.5 -259t-259.5 -108zM438 59q122 0 209 87t87 209t-87 209t-209 87t-209 -87t-87 -209t87 -209t209 -87zM591 417q0 -52 -37 -87.5t-93 -35.5h-51v-125h-71v373h122q56 0 93 -36
t37 -89zM522 417q0 25 -16.5 41.5t-45.5 16.5h-50v-115h50q29 0 45.5 16t16.5 41z" />
    <glyph glyph-name="trademark" unicode="&#x2122;" horiz-adv-x="897" 
d="M483 325v385h69l113 -160l113 160h69v-385h-71v263l-111 -156l-111 156v-263h-71zM235 325v315h-112v70h296v-70h-112v-315h-72z" />
    <glyph glyph-name="uni2150" unicode="&#x2150;" horiz-adv-x="842" 
d="M99 278l78 363h-89l68 69h105l-92 -432h-70zM102 0h-87l651 710h87zM490 1l271 364h-205l14 68h294l-13 -60l-276 -372h-85z" />
    <glyph glyph-name="uni2151" unicode="&#x2151;" horiz-adv-x="821" 
d="M99 278l78 363h-89l68 69h105l-92 -432h-70zM102 0h-87l651 710h87zM472 1l155 154q-52 0 -90 38.5t-38 96.5q0 63 42.5 106.5t109.5 43.5q66 0 107.5 -39.5t41.5 -94.5q0 -44 -16.5 -76t-54.5 -69l-162 -160h-95zM647 215q35 0 58.5 24t23.5 58q0 32 -22.5 54t-54.5 22
q-35 0 -58.5 -24t-23.5 -58q0 -33 22 -54.5t55 -21.5z" />
    <glyph glyph-name="uni2152" unicode="&#x2152;" horiz-adv-x="1095" 
d="M99 278l78 363h-89l68 69h105l-92 -432h-70zM102 0h-87l651 710h87zM524 1l78 363h-89l68 69h105l-92 -432h-70zM862 -5q-74 0 -112 49.5t-22 126.5l22 109q32 160 174 160q74 0 112 -49.5t22 -127.5l-23 -109q-34 -159 -173 -159zM867 63q80 0 100 95l24 115
q10 45 -11 71.5t-62 26.5q-80 0 -99 -94l-24 -116q-10 -45 10.5 -71.5t61.5 -26.5z" />
    <glyph glyph-name="onethird" unicode="&#x2153;" horiz-adv-x="826" 
d="M99 278l78 363h-89l68 69h105l-92 -432h-70zM102 0h-87l651 710h87zM617 -6q-61 0 -107.5 38.5t-40.5 104.5h68q-2 -35 22.5 -54.5t58.5 -19.5q36 0 58 19.5t22 53.5q0 27 -17 42.5t-49 15.5h-45l14 60h32q35 0 58 17t22 48q0 24 -17.5 38t-44.5 14q-30 0 -54.5 -18.5
t-30.5 -52.5h-70q8 66 53.5 103t106.5 37q53 0 90.5 -31.5t37.5 -81.5q0 -76 -71 -107q53 -26 53 -89q0 -57 -39.5 -97t-109.5 -40z" />
    <glyph glyph-name="twothirds" unicode="&#x2154;" horiz-adv-x="940" 
d="M38 278l7 35q4 19 11.5 36.5t14 29.5t21.5 26t21.5 20.5t27.5 19t25.5 15t29.5 15.5t27 14q49 27 71 49.5t22 53.5q0 26 -17 41t-45 15q-31 0 -53.5 -18.5t-27.5 -52.5h-71q6 66 51 103t107 37q53 0 90.5 -32t37.5 -86q0 -58 -28.5 -94t-99.5 -73l-21 -10.5t-24 -12.5
t-21 -12.5t-21 -15t-14.5 -16t-10.5 -19.5h192l-14 -68h-288zM216 0h-87l651 710h87zM731 -6q-61 0 -107.5 38.5t-40.5 104.5h68q-2 -35 22.5 -54.5t58.5 -19.5q36 0 58 19.5t22 53.5q0 27 -17 42.5t-49 15.5h-45l14 60h32q35 0 58 17t22 48q0 24 -17.5 38t-44.5 14
q-30 0 -54.5 -18.5t-30.5 -52.5h-70q8 66 53.5 103t106.5 37q53 0 90.5 -31.5t37.5 -81.5q0 -76 -71 -107q53 -26 53 -89q0 -57 -39.5 -97t-109.5 -40z" />
    <glyph glyph-name="uni2155" unicode="&#x2155;" horiz-adv-x="812" 
d="M99 278l78 363h-89l68 69h105l-92 -432h-70zM102 0h-87l651 710h87zM603 -5q-56 0 -101 33.5t-53 93.5h72q18 -59 85 -59q37 0 59.5 23t22.5 60q0 31 -18.5 52t-50.5 21q-52 0 -80 -44l-61 20l96 238h214l-14 -68h-155l-39 -94q26 12 57 12q52 0 86.5 -38t34.5 -93
q0 -69 -40 -113t-115 -44z" />
    <glyph glyph-name="uni2156" unicode="&#x2156;" horiz-adv-x="926" 
d="M38 278l7 35q4 19 11.5 36.5t14 29.5t21.5 26t21.5 20.5t27.5 19t25.5 15t29.5 15.5t27 14q49 27 71 49.5t22 53.5q0 26 -17 41t-45 15q-31 0 -53.5 -18.5t-27.5 -52.5h-71q6 66 51 103t107 37q53 0 90.5 -32t37.5 -86q0 -58 -28.5 -94t-99.5 -73l-21 -10.5t-24 -12.5
t-21 -12.5t-21 -15t-14.5 -16t-10.5 -19.5h192l-14 -68h-288zM216 0h-87l651 710h87zM717 -5q-56 0 -101 33.5t-53 93.5h72q18 -59 85 -59q37 0 59.5 23t22.5 60q0 31 -18.5 52t-50.5 21q-52 0 -80 -44l-61 20l96 238h214l-14 -68h-155l-39 -94q26 12 57 12q52 0 86.5 -38
t34.5 -93q0 -69 -40 -113t-115 -44z" />
    <glyph glyph-name="uni2157" unicode="&#x2157;" horiz-adv-x="907" 
d="M216 271q-61 0 -107.5 38.5t-40.5 104.5h68q-2 -35 22.5 -54.5t58.5 -19.5q36 0 58 19.5t22 53.5q0 27 -17 42.5t-49 15.5h-45l14 60h32q35 0 58 17t22 48q0 24 -17.5 38t-44.5 14q-30 0 -54.5 -18.5t-30.5 -52.5h-70q8 66 53.5 103t106.5 37q53 0 90.5 -31.5t37.5 -81.5
q0 -76 -71 -107q53 -26 53 -89q0 -57 -39.5 -97t-109.5 -40zM197 0h-87l651 710h87zM699 -5q-56 0 -101 33.5t-53 93.5h72q18 -59 85 -59q37 0 59.5 23t22.5 60q0 31 -18.5 52t-50.5 21q-52 0 -80 -44l-61 20l96 238h214l-14 -68h-155l-39 -94q26 12 57 12q52 0 86.5 -38
t34.5 -93q0 -69 -40 -113t-115 -44z" />
    <glyph glyph-name="uni2158" unicode="&#x2158;" horiz-adv-x="929" 
d="M243 278l22 107h-221l12 56l286 269h62l-55 -261h58l-14 -64h-58l-23 -107h-69zM152 449h127l31 147zM219 0h-87l651 710h87zM720 -5q-56 0 -101 33.5t-53 93.5h72q18 -59 85 -59q37 0 59.5 23t22.5 60q0 31 -18.5 52t-50.5 21q-52 0 -80 -44l-61 20l96 238h214l-14 -68
h-155l-39 -94q25 12 57 12q52 0 86.5 -38t34.5 -93q0 -69 -40 -113t-115 -44z" />
    <glyph glyph-name="uni2159" unicode="&#x2159;" horiz-adv-x="778" 
d="M99 278l78 363h-89l68 69h105l-92 -432h-70zM102 0h-87l651 710h87zM575 -5q-65 0 -106.5 39t-41.5 95q0 43 17 75.5t54 69.5l162 159h93l-153 -153q52 0 90 -39.5t38 -95.5q0 -63 -42.5 -106.5t-110.5 -43.5zM576 62q35 0 57.5 24t22.5 58q0 32 -22 53.5t-54 21.5
q-36 0 -59 -23t-23 -59q0 -32 22.5 -53.5t55.5 -21.5z" />
    <glyph glyph-name="uni215A" unicode="&#x215a;" horiz-adv-x="862" 
d="M204 272q-56 0 -101 33.5t-53 93.5h72q18 -59 85 -59q37 0 59.5 23t22.5 60q0 31 -18.5 52t-50.5 21q-52 0 -80 -44l-61 20l96 238h214l-14 -68h-155l-39 -94q26 12 57 12q52 0 86.5 -38t34.5 -93q0 -69 -40 -113t-115 -44zM185 0h-87l651 710h87zM659 -5
q-65 0 -106.5 39t-41.5 95q0 43 17 75.5t54 69.5l162 159h93l-153 -153q52 0 90 -39.5t38 -95.5q0 -63 -42.5 -106.5t-110.5 -43.5zM660 62q35 0 57.5 24t22.5 58q0 32 -22 53.5t-54 21.5q-36 0 -59 -23t-23 -59q0 -32 22.5 -53.5t55.5 -21.5z" />
    <glyph glyph-name="oneeighth" unicode="&#x215b;" horiz-adv-x="821" 
d="M99 278l78 363h-89l68 69h105l-92 -432h-70zM102 0h-87l651 710h87zM608 -6q-68 0 -106.5 40t-38.5 89q0 42 21 75.5t62 50.5q-29 29 -29 72q0 55 39 87t98 32q56 0 88 -32t34 -76q0 -65 -59 -98q46 -33 46 -93q0 -71 -44 -109t-111 -38zM611 59q36 1 58.5 23.5
t22.5 56.5q0 28 -19 49.5t-57 21.5q-37 -1 -59.5 -23.5t-22.5 -57.5q0 -27 20 -48.5t57 -21.5zM643 264q29 0 46.5 16.5t17.5 45.5q0 19 -13.5 35t-42.5 16q-30 0 -47.5 -16.5t-17.5 -45.5q0 -18 13.5 -34.5t43.5 -16.5z" />
    <glyph glyph-name="threeeighths" unicode="&#x215c;" horiz-adv-x="917" 
d="M216 271q-61 0 -107.5 38.5t-40.5 104.5h68q-2 -35 22.5 -54.5t58.5 -19.5q36 0 58 19.5t22 53.5q0 27 -17 42.5t-49 15.5h-45l14 60h32q35 0 58 17t22 48q0 24 -17.5 38t-44.5 14q-30 0 -54.5 -18.5t-30.5 -52.5h-70q8 66 53.5 103t106.5 37q53 0 90.5 -31.5t37.5 -81.5
q0 -76 -71 -107q53 -26 53 -89q0 -57 -39.5 -97t-109.5 -40zM197 0h-87l651 710h87zM703 -6q-68 0 -106.5 40t-38.5 89q0 42 21 75.5t62 50.5q-29 29 -29 72q0 55 39 87t98 32q56 0 88 -32t34 -76q0 -65 -59 -98q46 -33 46 -93q0 -71 -44 -109t-111 -38zM706 59
q36 1 58.5 23.5t22.5 56.5q0 28 -19 49.5t-57 21.5q-37 -1 -59.5 -23.5t-22.5 -57.5q0 -27 20 -48.5t57 -21.5zM738 264q29 0 46.5 16.5t17.5 45.5q0 19 -13.5 35t-42.5 16q-30 0 -47.5 -16.5t-17.5 -45.5q0 -18 13.5 -34.5t43.5 -16.5z" />
    <glyph glyph-name="fiveeighths" unicode="&#x215d;" horiz-adv-x="905" 
d="M204 272q-56 0 -101 33.5t-53 93.5h72q18 -59 85 -59q37 0 59.5 23t22.5 60q0 31 -18.5 52t-50.5 21q-52 0 -80 -44l-61 20l96 238h214l-14 -68h-155l-39 -94q26 12 57 12q52 0 86.5 -38t34.5 -93q0 -69 -40 -113t-115 -44zM185 0h-87l651 710h87zM691 -6
q-68 0 -106.5 40t-38.5 89q0 42 21 75.5t62 50.5q-29 29 -29 72q0 55 39 87t98 32q56 0 88 -32t34 -76q0 -65 -59 -98q46 -33 46 -93q0 -71 -44 -109t-111 -38zM694 59q36 1 58.5 23.5t22.5 56.5q0 28 -19 49.5t-57 21.5q-37 -1 -59.5 -23.5t-22.5 -57.5q0 -27 20 -48.5
t57 -21.5zM726 264q29 0 46.5 16.5t17.5 45.5q0 19 -13.5 35t-42.5 16q-30 0 -47.5 -16.5t-17.5 -45.5q0 -18 13.5 -34.5t43.5 -16.5z" />
    <glyph glyph-name="seveneighths" unicode="&#x215e;" horiz-adv-x="834" 
d="M40 278l271 364h-205l14 68h294l-13 -60l-276 -372h-85zM115 0h-87l651 710h87zM621 -6q-68 0 -106.5 40t-38.5 89q0 42 21 75.5t62 50.5q-29 29 -29 72q0 55 39 87t98 32q56 0 88 -32t34 -76q0 -65 -59 -98q46 -33 46 -93q0 -71 -44 -109t-111 -38zM624 59
q36 1 58.5 23.5t22.5 56.5q0 28 -19 49.5t-57 21.5q-37 -1 -59.5 -23.5t-22.5 -57.5q0 -27 20 -48.5t57 -21.5zM656 264q29 0 46.5 16.5t17.5 45.5q0 19 -13.5 35t-42.5 16q-30 0 -47.5 -16.5t-17.5 -45.5q0 -18 13.5 -34.5t43.5 -16.5z" />
    <glyph glyph-name="uni215F" unicode="&#x215f;" horiz-adv-x="454" 
d="M99 278l78 363h-89l68 69h105l-92 -432h-70zM102 0h-87l651 710h87z" />
    <glyph glyph-name="arrowleft" unicode="&#x2190;" horiz-adv-x="827" 
d="M354 -56l-306 306l306 306l49 -51l-220 -219h585v-72h-585l220 -220z" />
    <glyph glyph-name="arrowup" unicode="&#x2191;" horiz-adv-x="707" 
d="M350 0v587l-220 -220l-50 49l306 306l306 -306l-51 -49l-219 220v-587h-72z" />
    <glyph glyph-name="arrowright" unicode="&#x2192;" horiz-adv-x="827" 
d="M467 -56l-48 50l219 220h-585v72h585l-219 220l48 50l306 -306z" />
    <glyph glyph-name="arrowdown" unicode="&#x2193;" horiz-adv-x="704" 
d="M665 294l-306 -306l-306 306l50 49l220 -220v587h72v-587l219 220z" />
    <glyph glyph-name="uni2196" unicode="&#x2196;" horiz-adv-x="813" 
d="M722 38l-50 -50l-465 464v-312h-69v432h433v-70h-313z" />
    <glyph glyph-name="uni2197" unicode="&#x2197;" horiz-adv-x="672" 
d="M57 -12l-50 50l464 464h-313v70h433v-432h-70v312z" />
    <glyph glyph-name="uni2198" unicode="&#x2198;" horiz-adv-x="803" 
d="M256 0v70h313l-465 464l51 50l464 -464v312h70v-432h-433z" />
    <glyph glyph-name="uni2199" unicode="&#x2199;" horiz-adv-x="674" 
d="M164 120l465 464l50 -50l-464 -464h313v-70h-433v432h69v-312z" />
    <glyph glyph-name="uni21B0" unicode="&#x21b0;" horiz-adv-x="914" 
d="M771 -194h-71v408h-514l220 -220l-49 -50l-306 306l306 306l49 -50l-220 -220h585v-480z" />
    <glyph glyph-name="uni21B1" unicode="&#x21b1;" horiz-adv-x="828" 
d="M56 -194v480h585l-219 220l48 50l306 -306l-306 -306l-48 50l219 220h-514v-408h-71z" />
    <glyph glyph-name="uni21B2" unicode="&#x21b2;" horiz-adv-x="838" 
d="M349 -58l-306 306l306 306l48 -50l-219 -220h514v426h71v-498h-585l219 -220z" />
    <glyph glyph-name="uni21B3" unicode="&#x21b3;" horiz-adv-x="920" 
d="M871 248l-306 -306l-49 50l220 220h-585v498h71v-426h514l-220 220l49 50z" />
    <glyph glyph-name="minus" unicode="&#x2212;" horiz-adv-x="576" 
d="M81 251v77h423v-77h-423z" />
    <glyph glyph-name="uniF6D1" unicode="&#xf6d1;" 
d="M172 759q-67 0 -112 44.5t-29 113.5h66q-9 -50 15 -75.5t63 -25.5q40 0 68.5 26.5t37.5 74.5h68q-11 -73 -59 -115.5t-118 -42.5z" />
    <glyph glyph-name="uniF6D4" unicode="&#xf6d4;" 
d="M142 578q-67 0 -112 48t-30 124h65q-11 -55 13.5 -84.5t69.5 -29.5q85 0 104 114h65q-8 -81 -54 -126.5t-121 -45.5z" />
    <glyph glyph-name="f_f" unicode="&#xfb00;" horiz-adv-x="719" 
d="M67 0l90 421h-106l17 79h105l21 98q17 79 66 118.5t122 39.5q44 0 74 -13l-16 -76q-30 10 -60 10q-81 0 -102 -91l-19 -86h126l-16 -79h-126l-90 -421h-86zM423 0l89 421h-87l16 79h88l21 98q17 79 66 118.5t122 39.5q44 0 74 -13l-16 -76q-30 10 -60 10q-81 0 -102 -91
l-19 -86h145l-17 -79h-145l-89 -421h-86z" />
    <glyph glyph-name="fi" unicode="&#xfb01;" horiz-adv-x="613" 
d="M67 0l90 421h-106l17 79h105l21 98q17 79 66 118.5t122 39.5q44 0 74 -13l-16 -76q-30 10 -60 10q-81 0 -102 -91l-19 -86h145l-17 -79h-144l-90 -421h-86zM584 634q-26 0 -44 17.5t-18 43.5q0 25 18 43t44 18t43.5 -18t17.5 -43q0 -26 -17.5 -43.5t-43.5 -17.5zM392 0
l106 500h86l-106 -500h-86z" />
    <glyph glyph-name="fl" unicode="&#xfb02;" horiz-adv-x="613" 
d="M67 0l90 421h-106l17 79h105l21 98q17 79 66 118.5t122 39.5q44 0 74 -13l-16 -76q-30 10 -60 10q-81 0 -102 -91l-19 -86h145l-17 -79h-144l-90 -421h-86zM392 0l159 750h86l-159 -750h-86z" />
    <glyph glyph-name="f_f_i" unicode="&#xfb03;" horiz-adv-x="969" 
d="M940 634q-26 0 -44 17.5t-18 43.5q0 25 18 43t44 18t43.5 -18t17.5 -43q0 -26 -17.5 -43.5t-43.5 -17.5zM748 0l106 500h86l-106 -500h-86zM67 0l90 421h-106l17 79h105l21 98q17 79 66 118.5t122 39.5q44 0 74 -13l-16 -76q-30 10 -60 10q-81 0 -102 -91l-19 -86h126
l-16 -79h-126l-90 -421h-86zM423 0l89 421h-87l16 79h88l21 98q17 79 66 118.5t122 39.5q44 0 74 -13l-16 -76q-30 10 -60 10q-81 0 -102 -91l-19 -86h145l-17 -79h-145l-89 -421h-86z" />
    <glyph glyph-name="f_f_l" unicode="&#xfb04;" horiz-adv-x="969" 
d="M748 0l159 750h86l-159 -750h-86zM67 0l90 421h-106l17 79h105l21 98q17 79 66 118.5t122 39.5q44 0 74 -13l-16 -76q-30 10 -60 10q-81 0 -102 -91l-19 -86h126l-16 -79h-126l-90 -421h-86zM423 0l89 421h-87l16 79h88l21 98q17 79 66 118.5t122 39.5q44 0 74 -13
l-16 -76q-30 10 -60 10q-81 0 -102 -91l-19 -86h145l-17 -79h-145l-89 -421h-86z" />
    <glyph glyph-name="uniFEFF" unicode="&#xfeff;" 
 />
    <glyph glyph-name="NULL" 
 />
    <glyph glyph-name="CR" horiz-adv-x="241" 
 />
    <glyph glyph-name="L_periodcentered" horiz-adv-x="547" 
d="M36 0l151 710h93l-133 -622h343l-18 -88h-436zM441 341q-25 0 -42 17t-17 41t17 41.5t42 17.5q24 0 41 -17.5t17 -41.5t-17 -41t-41 -17z" />
    <glyph glyph-name="l_periodcentered" horiz-adv-x="385" 
d="M29 0l159 750h86l-159 -750h-86zM342 307q-25 0 -42 17t-17 41t17 41.5t42 17.5q24 0 41 -17.5t17 -41.5t-17 -41t-41 -17z" />
    <glyph glyph-name="_470" 
d="M147 500h-81l27 126h81z" />
    <glyph glyph-name="_471" 
d="M196 226h-296l15 70h297z" />
    <glyph glyph-name="_472" 
d="M-154 218l14 68h402l-14 -68h-402z" />
    <glyph glyph-name="_473" 
d="M-195 -70l16 70h359l-15 -70h-360z" />
    <glyph glyph-name="_474" 
d="M-64 -126l26 126h-28l17 79h109l-43 -205h-81z" />
    <glyph glyph-name="_476" 
d="M196 710h-88l30 148h88z" />
    <glyph glyph-name="_477" 
d="M205 370q91 0 165 47l-17 -84q-77 -47 -166 -47q-48 0 -124 23.5t-117 23.5q-90 0 -167 -47l19 84q73 47 165 47q53 0 126.5 -23.5t115.5 -23.5z" />
    <glyph glyph-name="_478" 
d="M-115 316l19 85h364l-19 -85h-364z" />
    <glyph glyph-name="_479" 
d="M-257 302l19 85h640l-19 -85h-640z" />
    <glyph glyph-name="_480" 
d="M265 301l-18 -85h-403l18 85h403z" />
    <glyph glyph-name="_481" 
d="M-59 -148l32 148h-27l19 88h115l-51 -236h-88z" />
    <glyph glyph-name="_505" horiz-adv-x="535" 
d="M313 675l129 48l-131 -252l233 10l-415 -492l242 402l-205 -12zM534 465q5 0 5 -5q0 4 4 5q-4 0 -4 5t5 5t5 -5t-4 -5q3 -1 4 -4q0 4 5 4t5 -5t-4 -5q4 -1 4 -5q0 -5 -4 -5q3 -1 4 -4q0 4 5 4t5 -5t-4 -5q4 -1 4 -5q0 -5 -5 -5t-5 4q-1 -4 -4 -4q4 -1 4 -5q0 -5 -5 -5
t-5 4q-1 -4 -4 -4q4 -1 4 -5q0 -5 -5 -5t-5 4q-1 -4 -4 -4q4 -1 4 -5q0 -5 -5 -5t-5 4q-1 -4 -4 -4q4 -1 4 -5q0 -5 -5 -5t-5 4q-1 -4 -4 -4q4 -1 4 -5q0 -5 -5 -5t-5 4q-1 -4 -4 -4q4 -1 4 -5q0 -5 -5 -5t-5 4q-1 -4 -4 -4q4 -1 4 -5q0 -5 -4 -5q4 -1 4 -5q0 -5 -5 -5t-5 4
q-1 -4 -4 -4q4 -1 4 -5q0 -5 -5 -5t-5 4q-1 -4 -4 -4q4 -1 4 -5q0 -5 -5 -5t-5 4q-1 -4 -4 -4q4 -1 4 -5q0 -5 -5 -5t-5 4q-1 -4 -4 -4q4 -1 4 -5q0 -5 -5 -5t-5 4q-1 -4 -4 -4q4 -1 4 -5q0 -5 -5 -5t-5 4q-1 -4 -4 -4q4 -1 4 -5q0 -5 -5 -5t-5 4q-1 -4 -4 -4q4 -1 4 -5
q0 -5 -5 -5t-5 4q-1 -4 -4 -4q4 -1 4 -5q0 -5 -5 -5t-5 4q-1 -4 -4 -4q4 -1 4 -5q0 -5 -5 -5t-5 4q-1 -4 -4 -4q4 -1 4 -5q0 -5 -5 -5t-5 4q-1 -4 -4 -4q4 -1 4 -5q0 -5 -5 -5t-5 4q-1 -4 -4 -4q4 -1 4 -5q0 -5 -5 -5t-5 4q-1 -4 -4 -4q4 -1 4 -5q0 -5 -4 -5q4 -1 4 -5
q0 -5 -5 -5t-5 4q-1 -4 -4 -4q4 -1 4 -5q0 -5 -5 -5t-5 4q-1 -4 -4 -4q4 -1 4 -5q0 -5 -5 -5t-5 4q-1 -4 -4 -4q4 -1 4 -5q0 -5 -5 -5t-5 4q-1 -4 -4 -4q4 -1 4 -5q0 -5 -5 -5t-5 4q-1 -4 -4 -4q4 -1 4 -5q0 -5 -5 -5t-5 4q-1 -4 -4 -4q4 -1 4 -5q0 -5 -5 -5t-5 4
q-1 -4 -4 -4q4 -1 4 -5q0 -5 -5 -5t-5 4q-1 -4 -4 -4q4 -1 4 -5q0 -5 -5 -5t-5 4q-1 -4 -4 -4q4 -1 4 -5q0 -5 -5 -5t-5 4q-1 -4 -4 -4q4 -1 4 -5q0 -5 -5 -5t-5 4q-1 -4 -4 -4q4 -1 4 -5q0 -5 -4 -5q4 -1 4 -5q0 -5 -5 -5t-5 4q-1 -4 -4 -4q4 -1 4 -5q0 -5 -5 -5t-5 4
q-1 -4 -4 -4q4 -1 4 -5q0 -5 -5 -5t-5 4q-1 -4 -4 -4q4 -1 4 -5q0 -5 -5 -5t-5 4q-1 -4 -4 -4q4 -1 4 -5q0 -5 -5 -5t-5 4q-1 -4 -4 -4q4 -1 4 -5q0 -5 -5 -5t-5 4q-1 -4 -4 -4q4 -1 4 -5q0 -5 -5 -5t-5 4q-1 -4 -4 -4q4 -1 4 -5q0 -5 -5 -5t-5 4q-1 -4 -4 -4q4 -1 4 -5
q0 -5 -5 -5t-5 4q-1 -4 -4 -4q4 -1 4 -5q0 -5 -5 -5t-5 4q-1 -3 -4 -4q4 0 4 -5t-5 -5t-5 4q-1 -3 -4 -4q4 0 4 -5t-5 -5t-5 5t4 5q-4 1 -4 5q0 5 5 5t5 -5q0 5 4 5q-4 1 -4 5t4 5q-4 0 -4 5t5 5t5 -5q0 4 4 5q-4 0 -4 5t5 5q4 0 5 -4q0 3 4 4q-4 0 -4 5t5 5q4 0 5 -4
q0 3 4 4q-4 0 -4 5t5 5q4 0 5 -4q0 3 4 4q-4 0 -4 5t5 5t5 -5q0 4 4 5q-4 0 -4 5t5 5t5 -5q0 4 4 5q-4 0 -4 5q0 4 4 5q-4 0 -4 5t5 5t5 -5q0 4 4 5q-4 0 -4 5t5 5q4 0 5 -4q0 3 4 4q-4 0 -4 5t5 5q4 0 5 -4q0 3 4 4q-4 0 -4 5t5 5t5 -5q0 4 4 5q-4 0 -4 5t5 5t5 -5q0 4 4 5
q-4 0 -4 5q0 4 4 5q-4 0 -4 5t5 5q4 0 5 -4q0 3 4 4q-4 0 -4 5t5 5t5 -5q0 4 4 5q-4 0 -4 5t5 5t5 -5q0 4 4 5q-4 0 -4 5t5 5t5 -5q0 4 4 5q-4 0 -4 5t5 5t5 -5q0 4 4 5q-4 0 -4 5q0 4 4 5q-4 0 -4 5t5 5t5 -5q0 4 4 5q-4 0 -4 5t5 5q4 0 5 -4q0 3 4 4q-4 0 -4 5t5 5t5 -5
q0 4 4 5q-4 0 -4 5t5 5t5 -5q0 4 4 5q-4 0 -4 5t5 5t5 -5q0 4 4 5q-4 0 -4 5t5 5t5 -5q0 4 4 5q-4 0 -4 5q0 4 4 5q-4 0 -4 5t5 5t5 -5q0 4 4 5q-4 0 -4 5t5 5q4 0 5 -4q0 3 4 4q-4 0 -4 5t5 5t5 -5q0 4 4 5q-4 0 -4 5t5 5q4 0 5 -4q0 3 4 4q-4 0 -4 5t5 5q4 0 5 -4q0 3 4 4
q-4 0 -4 5q0 4 4 5q-4 0 -4 5t5 5t5 -5q0 4 4 5q-4 0 -4 5t5 5t5 -5q0 4 4 5q-4 0 -4 5t5 5t5 -5q0 4 4 5q-4 0 -4 5t5 5t5 -5q0 4 4 5q-4 0 -4 5t5 5t5 -5q0 4 4 5q-4 0 -4 5q0 4 4 5q-4 0 -4 5t5 5t5 -5q0 4 4 5q-4 0 -4 5t5 5q4 0 5 -4q0 3 4 4q-4 0 -4 5t5 5q4 0 5 -4
q0 3 4 4q-4 0 -4 5t5 5q4 0 5 -4q0 3 4 4q-4 0 -4 5t5 5t5 -5q0 4 4 5q-4 0 -4 5t5 5q4 0 5 -4q0 3 4 4q-4 0 -4 5q0 4 4 5q-4 0 -4 5t5 5zM434 695q4 0 5 -4q0 3 4 4q-4 0 -4 5q0 4 4 5q-4 0 -4 5t5 5t5 -5t-4 -5q3 -1 4 -4q0 4 5 4t5 -5t-4 -5q3 -1 4 -4q0 4 5 4t5 -5
t-4 -5q4 -1 4 -5q0 -5 -5 -5t-5 4q-1 -4 -4 -4q4 -1 4 -5q0 -5 -4 -5q4 -1 4 -5q0 -5 -5 -5t-5 4q-1 -4 -4 -4q4 -1 4 -5q0 -5 -5 -5t-5 4q-1 -4 -4 -4q4 -1 4 -5q0 -5 -4 -5q4 -1 4 -5q0 -5 -5 -5t-5 4q-1 -4 -4 -4q4 -1 4 -5q0 -5 -4 -5q4 -1 4 -5q0 -5 -5 -5t-5 4
q-1 -4 -4 -4q4 -1 4 -5q0 -5 -4 -5q4 -1 4 -5q0 -5 -5 -5t-5 4q-1 -4 -4 -4q4 -1 4 -5q0 -5 -5 -5t-5 4q-1 -4 -4 -4q4 -1 4 -5q0 -5 -4 -5q4 -1 4 -5q0 -5 -5 -5t-5 4q-1 -4 -4 -4q4 -1 4 -5q0 -5 -4 -5q4 -1 4 -5q0 -5 -5 -5t-5 4q-1 -4 -4 -4q4 -1 4 -5q0 -5 -4 -5
q4 -1 4 -5q0 -5 -5 -5t-5 4q-1 -4 -4 -4q4 -1 4 -5q0 -5 -4 -5q4 -1 4 -5q0 -5 -5 -5t-5 4q-1 -4 -4 -4q4 -1 4 -5q0 -5 -4 -5q4 -1 4 -5q0 -5 -5 -5t-5 4q-1 -4 -5 -4q-5 0 -5 4q-1 -4 -5 -4q-5 0 -5 4q-1 -4 -5 -4q-5 0 -5 5t5 5q4 0 5 -4q0 3 4 4q-4 0 -4 5q0 4 4 5
q-4 0 -4 5t5 5q4 0 5 -4q0 3 4 4q-4 0 -4 5q0 4 4 5q-4 0 -4 5t5 5t5 -5q0 4 4 5q-4 0 -4 5q0 4 4 5q-4 0 -4 5t5 5q4 0 5 -4q0 3 4 4q-4 0 -4 5q0 4 4 5q-4 0 -4 5t5 5t5 -5q0 4 4 5q-4 0 -4 5q0 4 4 5q-4 0 -4 5t5 5q4 0 5 -4q0 3 4 4q-4 0 -4 5q0 4 4 5q-4 0 -4 5t5 5
t5 -5q0 4 4 5q-4 0 -4 5t5 5q4 0 5 -4q0 3 4 4q-4 0 -4 5q0 4 4 5q-4 0 -4 5t5 5q4 0 5 -4q0 3 4 4q-4 0 -4 5q0 4 4 5q-4 0 -4 5t5 5q4 0 5 -4q0 3 4 4q-4 0 -4 5q0 4 4 5q-4 0 -4 5t5 5t5 -5q0 4 4 5q-4 0 -4 5q0 4 4 5q-4 0 -4 5t5 5zM354 385q5 0 5 -5t-5 -5t-5 4
q-1 -4 -4 -4q4 -1 4 -5q0 -5 -4 -5q4 -1 4 -5q0 -5 -5 -5t-5 4q-1 -4 -5 -4q-5 0 -5 4q-1 -4 -5 -4q-5 0 -5 4q-1 -4 -5 -4q-5 0 -5 4q-1 -4 -5 -4q-5 0 -5 4q-1 -4 -5 -4q-5 0 -5 4q-1 -4 -5 -4q-5 0 -5 4q-1 -4 -5 -4q-5 0 -5 4q-1 -4 -4 -4q4 -1 4 -5q0 -5 -5 -5t-5 4
q-1 -4 -5 -4q-5 0 -5 4q-1 -4 -5 -4q-5 0 -5 4q-1 -4 -5 -4q-5 0 -5 4q-1 -4 -5 -4q-5 0 -5 4q-1 -4 -5 -4q-5 0 -5 4q-1 -4 -5 -4q-5 0 -5 4q-1 -4 -5 -4q-5 0 -5 4q-1 -4 -5 -4q-5 0 -5 5q0 4 4 5q-4 0 -4 4q-1 -4 -5 -4q-5 0 -5 5q0 4 4 5q-4 0 -4 5t5 5t5 -5q0 5 5 5
t5 -5q0 5 5 5q4 0 5 -4q0 4 5 4t5 -5q0 5 5 5q4 0 5 -4q0 4 5 4t5 -5q0 5 5 5t5 -5q0 5 5 5t5 -5q0 5 5 5t5 -5q0 5 5 5t5 -5q0 4 4 5q-4 0 -4 5t5 5q4 0 5 -4q0 4 5 4t5 -5q0 5 5 5q4 0 5 -4q0 4 5 4t5 -5q0 5 5 5t5 -5q0 5 5 5q4 0 5 -4q0 4 5 4q4 0 5 -4q0 4 5 4
q4 0 5 -4q0 4 5 4zM189 39q-1 -4 -4 -4q4 -1 4 -5q0 4 4 5q-4 0 -4 4zM199 49q-1 -4 -4 -4q4 -1 4 -5q0 4 4 5q-4 0 -4 4zM209 59q-1 -4 -4 -4q4 -1 4 -5q0 4 4 5q-4 0 -4 4zM219 69q-1 -4 -4 -4q3 -1 4 -4q0 3 4 4q-4 0 -4 4zM219 79q-1 -4 -4 -4q3 -1 4 -4q0 3 4 4
q-4 0 -4 4zM233 75q-4 0 -4 4q-1 -4 -4 -4q3 -1 4 -4q0 3 4 4zM239 89q-1 -4 -4 -4q3 -1 4 -4q0 3 4 4q-4 0 -4 4zM233 85q-4 0 -4 4q-1 -4 -4 -4q3 -1 4 -4q0 3 4 4zM249 99q-1 -4 -4 -4q4 -1 4 -5q0 4 4 5q-4 0 -4 4zM239 99q-1 -4 -4 -4q3 -1 4 -4q0 3 4 4q-4 0 -4 4z
M249 109q-1 -4 -4 -4q4 -1 4 -5q0 4 4 5q-4 0 -4 4zM259 119q-1 -4 -4 -4q4 -1 4 -5q0 4 4 5q-4 0 -4 4zM269 129q-1 -4 -4 -4q3 -1 4 -4q0 3 4 4q-4 0 -4 4zM339 369q-1 -4 -4 -4q3 -1 4 -4q0 3 4 4q-4 0 -4 4zM329 369q-1 -4 -4 -4q4 -1 4 -5q0 4 4 5q-4 0 -4 4zM319 369
q-1 -4 -4 -4q4 -1 4 -5q0 4 4 5q-4 0 -4 4zM309 369q-1 -4 -4 -4q4 -1 4 -5q0 4 4 5q-4 0 -4 4zM299 369q-1 -4 -4 -4q4 -1 4 -5q0 4 4 5q-4 0 -4 4zM339 379q-1 -4 -4 -4q3 -1 4 -4q0 3 4 4q-4 0 -4 4zM329 379q-1 -4 -4 -4q3 -1 4 -4q0 3 4 4q-4 0 -4 4zM319 379
q-1 -4 -4 -4q4 -1 4 -5q0 4 4 5q-4 0 -4 4zM309 379q-1 -4 -4 -4q3 -1 4 -4q0 3 4 4q-4 0 -4 4zM299 379q-1 -4 -4 -4q3 -1 4 -4q0 3 4 4q-4 0 -4 4zM259 359q-1 -4 -4 -4q3 -1 4 -4q0 3 4 4q-4 0 -4 4zM249 359q-1 -4 -4 -4q4 -1 4 -5q0 4 4 5q-4 0 -4 4zM239 359
q-1 -4 -4 -4q4 -1 4 -5q0 4 4 5q-4 0 -4 4zM289 369q-1 -4 -4 -4q4 -1 4 -5q0 4 4 5q-4 0 -4 4zM279 369q-1 -4 -4 -4q3 -1 4 -4q0 3 4 4q-4 0 -4 4zM269 369q-1 -4 -4 -4q4 -1 4 -5q0 4 4 5q-4 0 -4 4zM259 369q-1 -4 -4 -4q4 -1 4 -5q0 4 4 5q-4 0 -4 4zM249 369
q-1 -4 -4 -4q4 -1 4 -5q0 4 4 5q-4 0 -4 4zM239 369q-1 -4 -4 -4q4 -1 4 -5q0 4 4 5q-4 0 -4 4zM289 379q-1 -4 -4 -4q4 -1 4 -5q0 4 4 5q-4 0 -4 4zM279 379q-1 -4 -4 -4q3 -1 4 -4q0 3 4 4q-4 0 -4 4zM229 359q-1 -4 -4 -4q4 -1 4 -5q0 4 4 5q-4 0 -4 4zM219 359
q-1 -4 -4 -4q4 -1 4 -5q0 4 4 5q-4 0 -4 4zM209 359q-1 -4 -4 -4q4 -1 4 -5q0 4 4 5q-4 0 -4 4zM199 359q-1 -4 -4 -4q4 -1 4 -5q0 4 4 5q-4 0 -4 4zM189 359q-1 -4 -4 -4q4 -1 4 -5q0 4 4 5q-4 0 -4 4zM229 369q-1 -4 -4 -4q4 -1 4 -5q0 4 4 5q-4 0 -4 4zM219 369
q-1 -4 -4 -4q4 -1 4 -5q0 4 4 5q-4 0 -4 4zM209 369q-1 -4 -4 -4q4 -1 4 -5q0 4 4 5q-4 0 -4 4zM199 369q-1 -4 -4 -4q4 -1 4 -5q0 4 4 5q-4 0 -4 4zM189 369q-1 -4 -4 -4q4 -1 4 -5q0 4 4 5q-4 0 -4 4zM179 369q-1 -4 -4 -4q4 -1 4 -5q0 4 4 5q-4 0 -4 4zM489 369
q-1 -4 -4 -4q4 -1 4 -5q0 4 4 5q-4 0 -4 4zM279 139q-1 -4 -4 -4q4 -1 4 -5q0 4 4 5q-4 0 -4 4zM273 135q-4 0 -4 4q-1 -4 -4 -4q4 -1 4 -5q0 4 4 5zM289 149q-1 -4 -4 -4q4 -1 4 -5q0 4 4 5q-4 0 -4 4zM279 149q-1 -4 -4 -4q3 -1 4 -4q0 3 4 4q-4 0 -4 4zM299 159
q-1 -4 -4 -4q4 -1 4 -5q0 4 4 5q-4 0 -4 4zM289 159q-1 -4 -4 -4q4 -1 4 -5q0 4 4 5q-4 0 -4 4zM309 169q-1 -4 -4 -4q4 -1 4 -5q0 4 4 5q-4 0 -4 4zM299 169q-1 -4 -4 -4q4 -1 4 -5q0 4 4 5q-4 0 -4 4zM319 179q-1 -4 -4 -4q4 -1 4 -5q0 4 4 5q-4 0 -4 4zM309 179
q-1 -4 -4 -4q4 -1 4 -5q0 4 4 5q-4 0 -4 4zM319 189q-1 -4 -4 -4q4 -1 4 -5q0 4 4 5q-4 0 -4 4zM319 199q-1 -4 -4 -4q4 -1 4 -5q0 4 4 5q-4 0 -4 4zM333 185q-4 0 -4 4q-1 -4 -4 -4q3 -1 4 -4q0 3 4 4zM339 199q-1 -4 -4 -4q4 -1 4 -5q0 4 4 5q-4 0 -4 4zM333 195
q-4 0 -4 4q-1 -4 -4 -4q4 -1 4 -5q0 4 4 5zM349 209q-1 -4 -4 -4q4 -1 4 -5q0 4 4 5q-4 0 -4 4zM339 209q-1 -4 -4 -4q4 -1 4 -5q0 4 4 5q-4 0 -4 4zM333 205q-4 0 -4 4q-1 -4 -4 -4q4 -1 4 -5q0 4 4 5zM359 219q-1 -4 -4 -4q3 -1 4 -4q0 3 4 4q-4 0 -4 4zM349 219
q-1 -4 -4 -4q4 -1 4 -5q0 4 4 5q-4 0 -4 4zM339 219q-1 -4 -4 -4q3 -1 4 -4q0 3 4 4q-4 0 -4 4zM359 229q-1 -4 -4 -4q4 -1 4 -5q0 4 4 5q-4 0 -4 4zM349 229q-1 -4 -4 -4q3 -1 4 -4q0 3 4 4q-4 0 -4 4zM369 239q-1 -4 -4 -4q3 -1 4 -4q0 3 4 4q-4 0 -4 4zM359 239
q-1 -4 -4 -4q4 -1 4 -5q0 4 4 5q-4 0 -4 4zM379 249q-1 -4 -4 -4q4 -1 4 -5q0 4 4 5q-4 0 -4 4zM369 249q-1 -4 -4 -4q4 -1 4 -5q0 4 4 5q-4 0 -4 4zM379 259q-1 -4 -4 -4q4 -1 4 -5q0 4 4 5q-4 0 -4 4zM379 269q-1 -4 -4 -4q3 -1 4 -4q0 3 4 4q-4 0 -4 4zM393 255
q-4 0 -4 4q-1 -4 -4 -4q4 -1 4 -5q0 4 4 5zM399 269q-1 -4 -4 -4q4 -1 4 -5q0 4 4 5q-4 0 -4 4zM393 265q-4 0 -4 4q-1 -4 -4 -4q4 -1 4 -5q0 4 4 5zM409 279q-1 -4 -4 -4q3 -1 4 -4q0 3 4 4q-4 0 -4 4zM399 279q-1 -4 -4 -4q3 -1 4 -4q0 3 4 4q-4 0 -4 4zM393 275
q-4 0 -4 4q-1 -4 -4 -4q3 -1 4 -4q0 3 4 4zM419 289q-1 -4 -4 -4q4 -1 4 -5q0 4 4 5q-4 0 -4 4zM409 289q-1 -4 -4 -4q4 -1 4 -5q0 4 4 5q-4 0 -4 4zM399 289q-1 -4 -4 -4q4 -1 4 -5q0 4 4 5q-4 0 -4 4zM429 299q-1 -4 -4 -4q4 -1 4 -5q0 4 4 5q-4 0 -4 4zM419 299
q-1 -4 -4 -4q3 -1 4 -4q0 3 4 4q-4 0 -4 4zM409 299q-1 -4 -4 -4q4 -1 4 -5q0 4 4 5q-4 0 -4 4zM439 309q-1 -4 -4 -4q4 -1 4 -5q0 4 4 5q-4 0 -4 4zM429 309q-1 -4 -4 -4q3 -1 4 -4q0 3 4 4q-4 0 -4 4zM419 309q-1 -4 -4 -4q4 -1 4 -5q0 4 4 5q-4 0 -4 4zM349 489
q-1 -4 -4 -4q3 -1 4 -4q0 3 4 4q-4 0 -4 4zM339 489q-1 -4 -4 -4q3 -1 4 -4q0 3 4 4q-4 0 -4 4zM349 499q-1 -4 -4 -4q4 -1 4 -5q0 4 4 5q-4 0 -4 4zM339 499q-1 -4 -4 -4q3 -1 4 -4q0 3 4 4q-4 0 -4 4zM359 509q-1 -4 -4 -4q3 -1 4 -4q0 3 4 4q-4 0 -4 4zM349 509
q-1 -4 -4 -4q4 -1 4 -5q0 4 4 5q-4 0 -4 4zM359 519q-1 -4 -4 -4q4 -1 4 -5q0 4 4 5q-4 0 -4 4zM349 519q-1 -4 -4 -4q4 -1 4 -5q0 4 4 5q-4 0 -4 4zM359 529q-1 -4 -4 -4q4 -1 4 -5q0 4 4 5q-4 0 -4 4zM359 539q-1 -4 -4 -4q4 -1 4 -5q0 4 4 5q-4 0 -4 4zM439 319
q-1 -4 -4 -4q4 -1 4 -5q0 4 4 5q-4 0 -4 4zM429 319q-1 -4 -4 -4q3 -1 4 -4q0 3 4 4q-4 0 -4 4zM439 329q-1 -4 -4 -4q4 -1 4 -5q0 4 4 5q-4 0 -4 4zM429 329q-1 -4 -4 -4q4 -1 4 -5q0 4 4 5q-4 0 -4 4zM439 339q-1 -4 -4 -4q3 -1 4 -4q0 3 4 4q-4 0 -4 4zM453 315
q-4 0 -4 4q-1 -4 -4 -4q3 -1 4 -4q0 3 4 4zM459 329q-1 -4 -4 -4q3 -1 4 -4q0 3 4 4q-4 0 -4 4zM453 325q-4 0 -4 4q-1 -4 -4 -4q4 -1 4 -5q0 4 4 5zM469 339q-1 -4 -4 -4q4 -1 4 -5q0 4 4 5q-4 0 -4 4zM459 339q-1 -4 -4 -4q4 -1 4 -5q0 4 4 5q-4 0 -4 4zM453 335
q-4 0 -4 4q-1 -4 -4 -4q3 -1 4 -4q0 3 4 4zM479 349q-1 -4 -4 -4q4 -1 4 -5q0 4 4 5q-4 0 -4 4zM469 349q-1 -4 -4 -4q3 -1 4 -4q0 3 4 4q-4 0 -4 4zM459 349q-1 -4 -4 -4q4 -1 4 -5q0 4 4 5q-4 0 -4 4zM453 345q-4 0 -4 4q-1 -4 -4 -4q4 -1 4 -5q0 4 4 5zM489 359
q-1 -4 -4 -4q4 -1 4 -5q0 4 4 5q-4 0 -4 4zM479 359q-1 -4 -4 -4q3 -1 4 -4q0 3 4 4q-4 0 -4 4zM469 359q-1 -4 -4 -4q3 -1 4 -4q0 3 4 4q-4 0 -4 4zM459 359q-1 -4 -4 -4q3 -1 4 -4q0 3 4 4q-4 0 -4 4zM379 549q-1 -4 -4 -4q3 -1 4 -4q0 3 4 4q-4 0 -4 4zM479 369
q-1 -4 -4 -4q4 -1 4 -5q0 4 4 5q-4 0 -4 4zM469 369q-1 -4 -4 -4q3 -1 4 -4q0 3 4 4q-4 0 -4 4zM499 379q-1 -4 -4 -4q3 -1 4 -4q0 3 4 4q-4 0 -4 4zM489 379q-1 -4 -4 -4q3 -1 4 -4q0 3 4 4q-4 0 -4 4zM479 379q-1 -4 -4 -4q4 -1 4 -5q0 4 4 5q-4 0 -4 4zM499 389
q-1 -4 -4 -4q4 -1 4 -5q0 4 4 5q-4 0 -4 4zM489 389q-1 -4 -4 -4q4 -1 4 -5q0 4 4 5q-4 0 -4 4zM479 389q-1 -4 -4 -4q3 -1 4 -4q0 3 4 4q-4 0 -4 4zM499 399q-1 -4 -4 -4q4 -1 4 -5q0 4 4 5q-4 0 -4 4zM489 399q-1 -4 -4 -4q4 -1 4 -5q0 4 4 5q-4 0 -4 4zM499 409
q-1 -4 -4 -4q4 -1 4 -5q0 4 4 5q-4 0 -4 4zM513 385q-4 0 -4 4q-1 -4 -4 -4q4 -1 4 -5q0 4 4 5zM519 399q-1 -4 -4 -4q4 -1 4 -5q0 4 4 5q-4 0 -4 4zM513 395q-4 0 -4 4q-1 -4 -4 -4q3 -1 4 -4q0 3 4 4zM529 409q-1 -4 -4 -4q4 -1 4 -5q0 4 4 5q-4 0 -4 4zM519 409
q-1 -4 -4 -4q3 -1 4 -4q0 3 4 4q-4 0 -4 4zM513 405q-4 0 -4 4q-1 -4 -4 -4q4 -1 4 -5q0 4 4 5zM539 419q-1 -4 -4 -4q4 -1 4 -5q0 4 4 5q-4 0 -4 4zM529 419q-1 -4 -4 -4q3 -1 4 -4q0 3 4 4q-4 0 -4 4zM519 419q-1 -4 -4 -4q4 -1 4 -5q0 4 4 5q-4 0 -4 4zM513 415
q-4 0 -4 4q-1 -4 -4 -4q3 -1 4 -4q0 3 4 4zM549 429q-1 -4 -4 -4q3 -1 4 -4q0 3 4 4q-4 0 -4 4zM539 429q-1 -4 -4 -4q4 -1 4 -5q0 4 4 5q-4 0 -4 4zM529 429q-1 -4 -4 -4q3 -1 4 -4q0 3 4 4q-4 0 -4 4zM519 429q-1 -4 -4 -4q3 -1 4 -4q0 3 4 4q-4 0 -4 4zM559 439
q-1 -4 -4 -4q3 -1 4 -4q0 3 4 4q-4 0 -4 4zM549 439q-1 -4 -4 -4q3 -1 4 -4q0 3 4 4q-4 0 -4 4zM539 439q-1 -4 -4 -4q4 -1 4 -5q0 4 4 5q-4 0 -4 4zM529 439q-1 -4 -4 -4q3 -1 4 -4q0 3 4 4q-4 0 -4 4zM549 449q-1 -4 -4 -4q3 -1 4 -4q0 3 4 4q-4 0 -4 4zM539 449
q-1 -4 -4 -4q3 -1 4 -4q0 3 4 4q-4 0 -4 4zM549 459q-1 -4 -4 -4q4 -1 4 -5q0 4 4 5q-4 0 -4 4zM539 459q-1 -4 -4 -4q4 -1 4 -5q0 4 4 5q-4 0 -4 4zM419 629q-1 -4 -4 -4q3 -1 4 -4q0 3 4 4q-4 0 -4 4zM373 525q-4 0 -4 4q-1 -4 -4 -4q4 -1 4 -5q0 4 4 5zM373 535
q-4 0 -4 4q-1 -4 -4 -4q4 -1 4 -5q0 4 4 5zM409 629q-1 -4 -4 -4q3 -1 4 -4q0 3 4 4q-4 0 -4 4zM373 545q-4 0 -4 4q-1 -4 -4 -4q4 -1 4 -5q0 4 4 5zM379 559q-1 -4 -4 -4q3 -1 4 -4q0 3 4 4q-4 0 -4 4zM373 555q-4 0 -4 4q-1 -4 -4 -4q4 -1 4 -5q0 4 4 5zM389 569
q-1 -4 -4 -4q4 -1 4 -5q0 4 4 5q-4 0 -4 4zM379 569q-1 -4 -4 -4q4 -1 4 -5q0 4 4 5q-4 0 -4 4zM389 579q-1 -4 -4 -4q4 -1 4 -5q0 4 4 5q-4 0 -4 4zM379 579q-1 -4 -4 -4q3 -1 4 -4q0 3 4 4q-4 0 -4 4zM399 589q-1 -4 -4 -4q4 -1 4 -5q0 4 4 5q-4 0 -4 4zM389 589
q-1 -4 -4 -4q4 -1 4 -5q0 4 4 5q-4 0 -4 4zM409 599q-1 -4 -4 -4q3 -1 4 -4q0 3 4 4q-4 0 -4 4zM399 599q-1 -4 -4 -4q4 -1 4 -5q0 4 4 5q-4 0 -4 4zM389 599q-1 -4 -4 -4q4 -1 4 -5q0 4 4 5q-4 0 -4 4zM409 609q-1 -4 -4 -4q3 -1 4 -4q0 3 4 4q-4 0 -4 4zM399 609
q-1 -4 -4 -4q4 -1 4 -5q0 4 4 5q-4 0 -4 4zM419 619q-1 -4 -4 -4q4 -1 4 -5q0 4 4 5q-4 0 -4 4zM409 619q-1 -4 -4 -4q4 -1 4 -5q0 4 4 5q-4 0 -4 4zM433 665q-4 0 -4 4q-1 -4 -4 -4q4 -1 4 -5q0 4 4 5zM439 689q-1 -4 -4 -4q4 -1 4 -5q0 4 4 5q-4 0 -4 4zM419 639
q-1 -4 -4 -4q3 -1 4 -4q0 3 4 4q-4 0 -4 4zM419 649q-1 -4 -4 -4q4 -1 4 -5q0 4 4 5q-4 0 -4 4zM433 635q-4 0 -4 4q-1 -4 -4 -4q3 -1 4 -4q0 3 4 4zM433 645q-4 0 -4 4q-1 -4 -4 -4q4 -1 4 -5q0 4 4 5zM439 659q-1 -4 -4 -4q3 -1 4 -4q0 3 4 4q-4 0 -4 4zM433 655
q-4 0 -4 4q-1 -4 -4 -4q4 -1 4 -5q0 4 4 5zM449 669q-1 -4 -4 -4q3 -1 4 -4q0 3 4 4q-4 0 -4 4zM439 669q-1 -4 -4 -4q4 -1 4 -5q0 4 4 5q-4 0 -4 4zM159 9q-1 -4 -4 -4q4 -1 4 -5q0 4 4 5q-4 0 -4 4zM449 679q-1 -4 -4 -4q4 -1 4 -5q0 4 4 5q-4 0 -4 4zM439 679
q-1 -4 -4 -4q4 -1 4 -5q0 4 4 5q-4 0 -4 4zM459 689q-1 -4 -4 -4q4 -1 4 -5q0 4 4 5q-4 0 -4 4zM449 689q-1 -4 -4 -4q3 -1 4 -4q0 3 4 4q-4 0 -4 4zM173 15q-4 0 -4 4q-1 -4 -4 -4q4 -1 4 -5q0 4 4 5zM449 699q-1 -4 -4 -4q4 -1 4 -5q0 4 4 5q-4 0 -4 4zM179 29
q-1 -4 -4 -4q4 -1 4 -5q0 4 4 5q-4 0 -4 4z" />
    <glyph glyph-name="_526" 
d="M148 634q-26 0 -44 17.5t-18 43.5q0 25 18 43t44 18t43.5 -18t17.5 -43q0 -26 -17.5 -43.5t-43.5 -17.5z" />
    <glyph glyph-name="_531" 
d="M0 -58q-25 0 -42 17t-17 41t17 41.5t42 17.5q24 0 41 -17.5t17 -41.5t-17 -41t-41 -17z" />
    <glyph glyph-name="_532" 
d="M-27 -190q-25 0 -42 17t-17 41t17 41.5t42 17.5q24 0 41 -17.5t17 -41.5t-17 -41t-41 -17z" />
    <glyph glyph-name="_534" 
d="M15 -172l-82 -97h-44l52 88q-27 17 -27 49q0 24 17 41.5t42 17.5q24 0 41 -17.5t17 -41.5q0 -18 -16 -40z" />
    <glyph glyph-name="_538" 
d="M61 545l57 165h88l-85 -165h-60z" />
    <glyph glyph-name="_539" 
d="M138 596q-24 0 -41 17t-17 41q0 22 16 40l82 98h44l-52 -89q27 -17 27 -49q0 -24 -17 -41t-42 -17z" />
    <glyph glyph-name="_540" 
d="M42 596q-26 0 -43.5 17.5t-17.5 43.5q0 25 17.5 42.5t43.5 17.5q25 0 42.5 -17.5t17.5 -42.5q0 -26 -17.5 -43.5t-42.5 -17.5zM238 596q-26 0 -43.5 17.5t-17.5 43.5q0 25 17.5 42.5t43.5 17.5q25 0 42.5 -17.5t17.5 -42.5q0 -26 -17.5 -43.5t-42.5 -17.5z" />
    <glyph glyph-name="_541" 
d="M359 468l-577 -478l-35 42l577 478z" />
    <glyph glyph-name="_542" 
d="M-39 577l14 68h323l-14 -68h-323z" />
    <glyph glyph-name="_543" 
d="M-39 577l14 68h323l-14 -68h-323z" />
    <glyph glyph-name="_544" 
d="M208 407l-276 -154l17 82l276 154z" />
    <glyph glyph-name="_545" 
d="M-111 266l15 68h336l-14 -68h-337z" />
    <glyph glyph-name="zero.zero" horiz-adv-x="619" 
d="M276 -10q-116 0 -177 77.5t-36 198.5l41 193q28 127 94.5 195t184.5 68q116 0 177.5 -78.5t35.5 -197.5l-41 -193q-55 -263 -279 -263zM190 457l-35 -162l362 210q-1 62 -39 97.5t-102 35.5q-147 0 -186 -181zM283 74q147 0 186 181l34 160l-362 -210q2 -62 40 -96.5
t102 -34.5z" />
    <glyph glyph-name="one.onum" horiz-adv-x="303" 
d="M73 0l108 482h-119l86 78h137l-126 -560h-86z" />
    <glyph glyph-name="two.onum" horiz-adv-x="493" 
d="M-4 0l9 40q5 25 15.5 47t20.5 38.5t29 33.5t31 27t37 24.5t36.5 20.5t39.5 20t37 18q70 35 101 67.5t31 76.5q0 35 -26 57t-66 22q-45 0 -79.5 -26.5t-40.5 -75.5h-86q8 85 68.5 132.5t145.5 47.5q69 0 120.5 -42t51.5 -109q0 -74 -39.5 -120.5t-138.5 -95.5
q-12 -7 -39 -20t-42 -22t-35 -22.5t-32.5 -28.5t-18.5 -33h279l-19 -77h-390z" />
    <glyph glyph-name="three.onum" horiz-adv-x="521" 
d="M232 -79q-85 0 -150.5 57t-57.5 147h86q-4 -57 33.5 -89.5t90.5 -32.5q56 0 89.5 32.5t33.5 89.5q0 45 -27 70.5t-75 25.5h-62l16 74h46q51 0 88 29t37 78q-1 41 -28 64.5t-70 23.5q-46 0 -83.5 -31t-46.5 -89h-87q12 94 75.5 147t147.5 53q74 0 126 -43.5t52 -116.5
q0 -54 -26.5 -94.5t-74.5 -60.5q76 -39 76 -133q0 -85 -55 -143t-154 -58z" />
    <glyph glyph-name="four.onum" horiz-adv-x="536" 
d="M266 -68l34 167h-319l15 66l410 395h76l-79 -384h83l-17 -77h-83l-34 -167h-86zM118 176h199l49 242z" />
    <glyph glyph-name="five.onum" horiz-adv-x="490" 
d="M209 -77q-77 0 -140.5 48t-72.5 133h89q13 -48 46.5 -74.5t81.5 -26.5q58 0 91.5 37t33.5 100q0 54 -29.5 88t-79.5 34q-72 0 -115 -62l-75 23l132 337h298l-18 -80h-224l-61 -160q40 20 86 20q73 0 123 -56t50 -136q0 -99 -55.5 -162t-160.5 -63z" />
    <glyph glyph-name="six.onum" horiz-adv-x="506" 
d="M241 -10q-92 0 -151 57.5t-59 141.5q0 59 23.5 102.5t71.5 90.5l246 245h113l-225 -225h9q76 0 130.5 -57.5t54.5 -143.5t-60 -148.5t-153 -62.5zM240 68q55 0 90.5 40t35.5 95q0 56 -34.5 91.5t-86.5 35.5q-56 0 -91.5 -39t-35.5 -94q0 -56 35 -92.5t87 -36.5z" />
    <glyph glyph-name="seven.onum" horiz-adv-x="446" 
d="M-23 -68l391 548h-300l18 80h407l-15 -69l-395 -559h-106z" />
    <glyph glyph-name="eight.onum" horiz-adv-x="520" 
d="M458 203q0 -99 -62 -156t-155 -57q-95 0 -150 60t-55 130q0 63 32.5 113t89.5 73q-42 42 -42 106q0 80 54 123.5t132 43.5q79 0 124 -48t45 -108q0 -46 -22.5 -82.5t-60.5 -55.5q34 -25 52 -64.5t18 -77.5zM124 186q0 -45 31.5 -82t89.5 -37q55 0 90.5 37.5t35.5 94.5
q0 44 -29 81.5t-89 37.5q-58 0 -93.5 -37.5t-35.5 -94.5zM200 466q0 -27 21 -55.5t68 -28.5q43 0 70.5 26t27.5 72q0 27 -20.5 55t-67.5 28q-44 0 -71.5 -25.5t-27.5 -71.5z" />
    <glyph glyph-name="nine.onum" horiz-adv-x="505" 
d="M27 -68l225 225h-9q-76 0 -130.5 57.5t-54.5 143.5t60 148.5t153 62.5q92 0 151 -57.5t59 -141.5q0 -59 -23 -101.5t-72 -91.5l-245 -245h-114zM267 229q56 0 91.5 39t35.5 94q0 56 -35 92.5t-87 36.5q-55 0 -90.5 -40t-35.5 -95q0 -56 34.5 -91.5t86.5 -35.5z" />
    <glyph glyph-name="zero.onum" horiz-adv-x="541" 
d="M232 -8q-100 0 -152 63t-30 161l32 146q46 208 236 208q100 0 150.5 -63.5t30.5 -160.5l-32 -147q-46 -207 -235 -207zM239 69q111 0 143 134l35 153q14 62 -16.5 99t-89.5 37q-114 0 -143 -133l-35 -154q-14 -62 16 -99t90 -37z" />
    <glyph glyph-name="zero.onum_zero" horiz-adv-x="541" 
d="M232 -8q-100 0 -152 63t-30 161l32 146q46 208 236 208q100 0 150.5 -63.5t30.5 -160.5l-32 -147q-46 -207 -235 -207zM239 69q111 0 143 134l26 114l-279 -161q5 -42 34 -64.5t76 -22.5zM168 359l-26 -114l278 162q-5 40 -34.5 62.5t-74.5 22.5q-114 0 -143 -133z" />
    <glyph glyph-name="one.tnum" horiz-adv-x="590" 
d="M309 82h177l-17 -82h-440l17 82h177l116 543h-137l88 85h153z" />
    <glyph glyph-name="two.tnum" horiz-adv-x="590" 
d="M12 0l9 41q7 32 19.5 61t25.5 50t35 43t37.5 35t44.5 30.5t44 26t48 25t45 23.5q91 48 128.5 92t37.5 102q0 49 -35.5 79t-87.5 30q-58 0 -103.5 -36.5t-53.5 -103.5h-87q9 106 80 165t171 59q83 0 143.5 -51.5t60.5 -134.5q0 -94 -46.5 -151t-170.5 -125
q-11 -6 -52 -27.5t-57 -31.5t-43.5 -30t-42.5 -41t-23 -47h353l-18 -83h-462z" />
    <glyph glyph-name="three.tnum" horiz-adv-x="590" 
d="M286 -12q-99 0 -173.5 64t-65.5 164h87q-4 -66 41.5 -104t110.5 -38q70 0 112.5 38.5t42.5 106.5q0 52 -32.5 81.5t-91.5 29.5h-77l17 79h55q63 0 109 33.5t46 92.5q0 47 -34.5 75t-86.5 28q-57 0 -104.5 -36t-58.5 -104h-88q14 104 87 164t170 60q81 0 142 -49t61 -131
q0 -123 -121 -175q93 -45 93 -152q0 -97 -64 -162t-177 -65z" />
    <glyph glyph-name="four.tnum" horiz-adv-x="590" 
d="M334 0l41 193h-378l15 69l483 448h75l-93 -436h99l-17 -81h-98l-42 -193h-85zM137 274h254l62 293z" />
    <glyph glyph-name="five.tnum" horiz-adv-x="590" 
d="M277 -10q-88 0 -161.5 54t-82.5 148h89q15 -56 57 -87t103 -31q71 0 112.5 44t41.5 117q0 63 -36.5 103t-97.5 40q-89 0 -140 -71l-75 24l153 379h336l-18 -84h-263l-75 -188q47 22 100 22q85 0 144.5 -63t59.5 -153q0 -111 -64 -182.5t-183 -71.5z" />
    <glyph glyph-name="six.tnum" horiz-adv-x="590" 
d="M291 -10q-104 0 -173 65t-69 161q0 67 27 114.5t80 98.5l299 281h118l-271 -256q3 1 15 1q88 0 151.5 -65.5t63.5 -162.5q0 -96 -68 -166.5t-173 -70.5zM290 73q67 0 110.5 46.5t43.5 109.5q0 66 -43.5 108t-107.5 42q-69 0 -112 -45.5t-43 -109.5q0 -65 44.5 -108
t107.5 -43z" />
    <glyph glyph-name="seven.tnum" horiz-adv-x="590" 
d="M40 0l457 626h-355l18 84h466l-15 -72l-465 -638h-106z" />
    <glyph glyph-name="eight.tnum" horiz-adv-x="590" 
d="M527 229q0 -112 -69.5 -176.5t-176.5 -64.5q-108 0 -170.5 68.5t-62.5 147.5q0 72 38.5 129t104.5 81q-51 45 -51 121q0 90 62.5 138.5t145.5 48.5q91 0 140 -54t49 -122q1 -52 -25.5 -93t-70.5 -62q43 -26 64.5 -72t21.5 -90zM135 208q0 -51 38.5 -94.5t112.5 -43.5
q67 0 111 44t44 110q0 50 -35.5 94.5t-112.5 44.5q-71 0 -114.5 -44t-43.5 -111zM225 529q0 -17 7 -37t33.5 -40.5t68.5 -20.5q53 0 86 30t33 83q0 12 -4.5 26t-15 31.5t-33.5 28.5t-55 11q-53 0 -86.5 -29.5t-33.5 -82.5z" />
    <glyph glyph-name="nine.tnum" horiz-adv-x="590" 
d="M54 0l272 257h-13q-88 0 -152 65.5t-64 162.5q0 96 68 166.5t174 70.5q104 0 173 -65.5t69 -161.5q0 -65 -27.5 -113.5t-79.5 -98.5l-301 -283h-119zM337 333q68 0 111.5 45.5t43.5 109.5q0 65 -44.5 108t-107.5 43q-67 0 -110.5 -46.5t-43.5 -109.5q0 -66 43 -108
t108 -42z" />
    <glyph glyph-name="zero.tnum" horiz-adv-x="590" 
d="M262 -10q-116 0 -177 77.5t-36 198.5l41 193q28 127 94.5 195t184.5 68q116 0 177.5 -78.5t35.5 -197.5l-41 -193q-55 -263 -279 -263zM269 74q147 0 186 181l43 200q18 83 -20.5 133t-115.5 50q-147 0 -186 -181l-43 -200q-18 -85 20.5 -134t115.5 -49z" />
    <glyph glyph-name="zero.tnum_zero" horiz-adv-x="590" 
d="M261 -10q-116 0 -177 77.5t-36 198.5l41 193q28 127 94.5 195t184.5 68q116 0 177.5 -78.5t35.5 -197.5l-41 -193q-55 -263 -279 -263zM175 457l-35 -162l362 210q-1 62 -39 97.5t-102 35.5q-147 0 -186 -181zM268 74q147 0 186 181l34 160l-362 -210q2 -62 40 -96.5
t102 -34.5z" />
    <glyph glyph-name="uni2070.zero" horiz-adv-x="385" 
d="M239 404q-74 0 -112 49.5t-22 126.5l22 109q32 160 174 160q74 0 112 -49.5t22 -127.5l-23 -109q-34 -159 -173 -159zM244 472q80 0 100 95l17 81l-192 -104q0 -35 20.5 -53.5t54.5 -18.5zM196 686l-17 -80l192 104q-1 33 -21.5 51.5t-54.5 18.5q-80 0 -99 -94z" />
    <glyph glyph-name="uni2080.zero" horiz-adv-x="385" 
d="M127 -121q-74 0 -112 49.5t-22 126.5l22 109q32 160 174 160q74 0 112 -49.5t22 -127.5l-23 -109q-34 -159 -173 -159zM132 -53q80 0 100 95l17 81l-192 -104q0 -33 20.5 -52.5t54.5 -19.5zM84 161l-17 -80l192 104q-1 33 -21.5 51.5t-54.5 18.5q-80 0 -99 -94z" />
    <glyph glyph-name="one.numr" horiz-adv-x="227" 
d="M99 278l78 363h-89l68 69h105l-92 -432h-70z" />
    <glyph glyph-name="two.numr" horiz-adv-x="355" 
d="M38 278l7 35q4 19 11.5 36.5t14 29.5t21.5 26t21.5 20.5t27.5 19t25.5 15t29.5 15.5t27 14q49 27 71 49.5t22 53.5q0 26 -17 41t-45 15q-31 0 -53.5 -18.5t-27.5 -52.5h-71q6 66 51 103t107 37q53 0 90.5 -32t37.5 -86q0 -58 -28.5 -94t-99.5 -73l-21 -10.5t-24 -12.5
t-21 -12.5t-21 -15t-14.5 -16t-10.5 -19.5h192l-14 -68h-288z" />
    <glyph glyph-name="three.numr" horiz-adv-x="366" 
d="M216 271q-61 0 -107.5 38.5t-40.5 104.5h68q-2 -35 22.5 -54.5t58.5 -19.5q36 0 58 19.5t22 53.5q0 27 -17 42.5t-49 15.5h-45l14 60h32q35 0 58 17t22 48q0 24 -17.5 38t-44.5 14q-30 0 -54.5 -18.5t-30.5 -52.5h-70q8 66 53.5 103t106.5 37q53 0 90.5 -31.5t37.5 -81.5
q0 -76 -71 -107q53 -26 53 -89q0 -57 -39.5 -97t-109.5 -40z" />
    <glyph glyph-name="four.numr" horiz-adv-x="389" 
d="M243 278l22 107h-221l12 56l286 269h62l-55 -261h58l-14 -64h-58l-23 -107h-69zM152 449h127l31 147z" />
    <glyph glyph-name="five.numr" horiz-adv-x="354" 
d="M204 272q-56 0 -101 33.5t-53 93.5h72q18 -59 85 -59q37 0 59.5 23t22.5 60q0 31 -18.5 52t-50.5 21q-52 0 -80 -44l-61 20l96 238h214l-14 -68h-155l-39 -94q26 12 57 12q52 0 86.5 -38t34.5 -93q0 -69 -40 -113t-115 -44z" />
    <glyph glyph-name="six.numr" horiz-adv-x="353" 
d="M209 272q-65 0 -106.5 39t-41.5 95q0 43 17 75.5t54 69.5l162 159h93l-153 -153q52 0 90 -39.5t38 -95.5q0 -63 -42.5 -106.5t-110.5 -43.5zM210 339q35 0 57.5 23.5t22.5 58.5q0 32 -22 53.5t-54 21.5q-36 0 -59 -23t-23 -59q0 -32 22.5 -53.5t55.5 -21.5z" />
    <glyph glyph-name="seven.numr" horiz-adv-x="334" 
d="M40 278l271 364h-205l14 68h294l-13 -60l-276 -372h-85z" />
    <glyph glyph-name="eight.numr" horiz-adv-x="364" 
d="M209 271q-68 0 -106.5 40t-38.5 89q0 42 21 75.5t62 50.5q-29 29 -29 72q0 55 39 87t98 32q56 0 88 -32t34 -76q0 -65 -59 -98q46 -33 46 -93q0 -71 -44 -109t-111 -38zM212 336q36 1 58.5 23.5t22.5 56.5q0 28 -19 49.5t-57 21.5q-37 -1 -59.5 -23.5t-22.5 -57.5
q0 -27 20 -48.5t57 -21.5zM244 541q29 0 46.5 16.5t17.5 45.5q0 19 -13.5 35t-42.5 16q-30 0 -47.5 -16.5t-17.5 -45.5q0 -18 13.5 -34.5t43.5 -16.5z" />
    <glyph glyph-name="nine.numr" horiz-adv-x="353" 
d="M63 278l155 154q-52 0 -90 38.5t-38 96.5q0 63 42.5 106.5t109.5 43.5q66 0 107.5 -39.5t41.5 -94.5q0 -44 -16.5 -76t-54.5 -69l-162 -160h-95zM238 492q35 0 58.5 24t23.5 58q0 32 -22.5 54t-54.5 22q-35 0 -58.5 -24t-23.5 -58q0 -33 22 -54.5t55 -21.5z" />
    <glyph glyph-name="zero.numr" horiz-adv-x="385" 
d="M211 272q-74 0 -112 49.5t-22 126.5l22 109q32 160 174 160q74 0 112 -49.5t22 -127.5l-23 -109q-34 -159 -173 -159zM216 340q80 0 100 95l24 115q10 45 -11 71.5t-62 26.5q-80 0 -99 -94l-24 -116q-10 -45 10.5 -71.5t61.5 -26.5z" />
    <glyph glyph-name="zero.numr_zero" horiz-adv-x="385" 
d="M211 272q-74 0 -112 49.5t-22 126.5l22 109q32 160 174 160q74 0 112 -49.5t22 -127.5l-23 -109q-34 -159 -173 -159zM216 340q80 0 100 95l17 81l-192 -104q0 -35 20.5 -53.5t54.5 -18.5zM168 554l-17 -80l192 104q-1 33 -21.5 51.5t-54.5 18.5q-80 0 -99 -94z" />
    <glyph glyph-name="one.dnom" horiz-adv-x="227" 
d="M42 1l78 363h-89l68 69h105l-92 -432h-70z" />
    <glyph glyph-name="two.dnom" horiz-adv-x="355" 
d="M-20 1l7 35q4 19 11.5 36.5t14 29.5t21.5 26t21.5 20.5t27.5 19t25.5 15t29.5 15.5t27 14q49 27 71 49.5t22 53.5q0 26 -17 41t-45 15q-31 0 -53.5 -18.5t-27.5 -52.5h-71q6 66 51 103t107 37q53 0 90.5 -32t37.5 -86q0 -58 -28.5 -94t-99.5 -73l-21 -10.5t-24 -12.5
t-21 -12.5t-21 -15t-14.5 -16t-10.5 -19.5h192l-14 -68h-288z" />
    <glyph glyph-name="three.dnom" horiz-adv-x="366" 
d="M158 -6q-61 0 -107.5 38.5t-40.5 104.5h68q-2 -35 22.5 -54.5t58.5 -19.5q36 0 58 19.5t22 53.5q0 27 -17 42.5t-49 15.5h-45l14 60h32q35 0 58 17t22 48q0 24 -17.5 38t-44.5 14q-30 0 -54.5 -18.5t-30.5 -52.5h-70q8 66 53.5 103t106.5 37q53 0 90.5 -31.5t37.5 -81.5
q0 -76 -71 -107q53 -26 53 -89q0 -57 -39.5 -97t-109.5 -40z" />
    <glyph glyph-name="four.dnom" horiz-adv-x="389" 
d="M185 1l22 107h-221l12 56l286 269h62l-55 -261h58l-14 -64h-58l-23 -107h-69zM94 172h127l31 147z" />
    <glyph glyph-name="five.dnom" horiz-adv-x="354" 
d="M146 -5q-56 0 -101 33.5t-53 93.5h72q18 -59 85 -59q37 0 59.5 23t22.5 60q0 31 -18.5 52t-50.5 21q-52 0 -80 -44l-61 20l96 238h214l-14 -68h-155l-39 -94q25 12 57 12q52 0 86.5 -38t34.5 -93q0 -69 -40 -113t-115 -44z" />
    <glyph glyph-name="six.dnom" horiz-adv-x="353" 
d="M151 -5q-65 0 -106.5 39t-41.5 95q0 43 17 75.5t54 69.5l162 159h93l-153 -153q52 0 90 -39.5t38 -95.5q0 -63 -42.5 -106.5t-110.5 -43.5zM152 62q35 0 57.5 24t22.5 58q0 32 -22 53.5t-54 21.5q-36 0 -59 -23t-23 -59q0 -32 22.5 -53.5t55.5 -21.5z" />
    <glyph glyph-name="seven.dnom" horiz-adv-x="334" 
d="M-17 1l271 364h-205l14 68h294l-13 -60l-276 -372h-85z" />
    <glyph glyph-name="eight.dnom" horiz-adv-x="364" 
d="M151 -6q-68 0 -106.5 40t-38.5 89q0 42 21 75.5t62 50.5q-29 29 -29 72q0 55 39 87t98 32q56 0 88 -32t34 -76q0 -65 -59 -98q46 -33 46 -93q0 -71 -44 -109t-111 -38zM154 59q36 1 58.5 23.5t22.5 56.5q0 28 -19 49.5t-57 21.5q-37 -1 -59.5 -23.5t-22.5 -57.5
q0 -27 20 -48.5t57 -21.5zM186 264q29 0 46.5 16.5t17.5 45.5q0 19 -13.5 35t-42.5 16q-30 0 -47.5 -16.5t-17.5 -45.5q0 -18 13.5 -34.5t43.5 -16.5z" />
    <glyph glyph-name="nine.dnom" horiz-adv-x="353" 
d="M5 1l155 154q-52 0 -90 38.5t-38 96.5q0 63 42.5 106.5t109.5 43.5q66 0 107.5 -39.5t41.5 -94.5q0 -44 -16.5 -76t-54.5 -69l-162 -160h-95zM180 215q35 0 58.5 24t23.5 58q0 32 -22.5 54t-54.5 22q-35 0 -58.5 -24t-23.5 -58q0 -33 22 -54.5t55 -21.5z" />
    <glyph glyph-name="zero.dnom" horiz-adv-x="385" 
d="M153 -5q-74 0 -112 49.5t-22 126.5l22 109q32 160 174 160q74 0 112 -49.5t22 -127.5l-23 -109q-34 -159 -173 -159zM158 63q80 0 100 95l24 115q10 45 -11 71.5t-62 26.5q-80 0 -99 -94l-24 -116q-10 -45 10.5 -71.5t61.5 -26.5z" />
    <glyph glyph-name="zero.dnom_zero" horiz-adv-x="386" 
d="M152 -6q-74 0 -112 49.5t-22 126.5l22 109q32 160 174 160q74 0 112 -49.5t22 -127.5l-23 -109q-34 -159 -173 -159zM157 62q80 0 100 95l17 81l-192 -104q0 -35 20.5 -53.5t54.5 -18.5zM109 276l-17 -80l192 104q-1 33 -21.5 51.5t-54.5 18.5q-80 0 -99 -94z" />
    <glyph glyph-name="hyphen.case" horiz-adv-x="395" 
d="M79 312l18 86h255l-18 -86h-255z" />
    <glyph glyph-name="uni00AD.case" horiz-adv-x="395" 
d="M79 312l18 86h255l-18 -86h-255z" />
    <glyph glyph-name="endash.case" horiz-adv-x="575" 
d="M79 312l18 86h434l-18 -86h-434z" />
    <glyph glyph-name="emdash.case" horiz-adv-x="645" 
d="M79 312l18 86h505l-19 -86h-504z" />
    <glyph glyph-name="questiondown.case" horiz-adv-x="516" 
d="M221 -12q-84 0 -138 50t-54 128q0 68 40 117t110 93q78 50 94 98h91q-19 -85 -126 -152q-121 -78 -121 -149q0 -45 31 -73t82 -28q57 0 101 35.5t50 97.5h86q-8 -100 -77 -158.5t-169 -58.5zM354 572q-32 0 -53 22t-21 53t21 53t53 22q30 0 52 -22.5t22 -52.5
q0 -31 -21.5 -53t-52.5 -22z" />
    <glyph glyph-name="exclamdown.case" horiz-adv-x="279" 
d="M213 474l-24 -189l-61 -285h-86l61 285l56 189h54zM221 572q-32 0 -53 22t-21 53t21 53t53 22q30 0 52 -22.5t22 -52.5q0 -31 -21.5 -53t-52.5 -22z" />
    <glyph glyph-name="guilsinglleft.case" horiz-adv-x="336" 
d="M72 355l186 217h75l-164 -229l71 -205h-69z" />
    <glyph glyph-name="guilsinglright.case" horiz-adv-x="336" 
d="M303 356l-186 -217h-75l164 229l-71 205h69z" />
    <glyph glyph-name="guillemotleft.case" horiz-adv-x="509" 
d="M245 355l186 217h75l-164 -229l71 -205h-69zM72 355l186 217h75l-164 -229l71 -205h-69z" />
    <glyph glyph-name="guillemotright.case" horiz-adv-x="509" 
d="M130 356l-186 -217h-75l164 229l-71 205h69zM303 356l-186 -217h-75l164 229l-71 205h69z" />
    <glyph glyph-name="parenleft.case" horiz-adv-x="301" 
d="M207 -123h-69q-75 221 -71 404q2 297 213 558h83q-214 -256 -220 -550q-2 -224 64 -412z" />
    <glyph glyph-name="parenright.case" horiz-adv-x="302" 
d="M136 841h69q75 -221 71 -404q-2 -297 -213 -558h-83q214 256 220 550q2 224 -64 412z" />
    <glyph glyph-name="bracketleft.case" horiz-adv-x="314" 
d="M12 -125l204 960h187l-15 -72h-109l-174 -816h109l-15 -72h-187z" />
    <glyph glyph-name="bracketright.case" horiz-adv-x="314" 
d="M342 835l-204 -960h-187l15 72h109l174 816h-109l15 72h187z" />
    <glyph glyph-name="braceleft.case" horiz-adv-x="323" 
d="M209 -125h-45q-63 0 -94 39t-16 109l49 233q9 37 -0.5 54t-42.5 17h-15l16 72h15q35 0 49.5 15.5t23.5 55.5l50 233q15 74 46.5 103t106.5 29h61l-15 -72h-48q-37 0 -53 -15.5t-24 -57.5l-48 -227q-9 -49 -26 -71t-51 -37q27 -14 33.5 -40.5t-3.5 -73.5l-48 -228
q-14 -66 46 -66h48z" />
    <glyph glyph-name="braceright.case" horiz-adv-x="324" 
d="M155 836h45q63 0 94 -39t16 -109l-49 -233q-9 -37 0.5 -54t42.5 -17h15l-16 -72h-15q-35 0 -49.5 -15.5t-23.5 -55.5l-50 -233q-15 -74 -46.5 -103t-106.5 -29h-61l15 72h48q37 0 53 15.5t24 57.5l48 227q9 49 26 71t51 37q-27 14 -33.5 40.5t3.5 73.5l48 228
q14 66 -46 66h-48z" />
    <glyph glyph-name="bar.case" horiz-adv-x="313" 
d="M137 -55v820h78v-820h-78z" />
    <glyph glyph-name="brokenbar.case" horiz-adv-x="313" 
d="M137 -55v362h78v-362h-78zM137 403v362h78v-362h-78z" />
    <glyph glyph-name="periodcentered.case" horiz-adv-x="277" 
d="M155 280q-32 0 -53 22t-21 53t21 53t53 22q30 0 52 -22.5t22 -52.5q0 -31 -21.5 -53t-52.5 -22z" />
    <glyph glyph-name="plus.case" horiz-adv-x="510" 
d="M63 316v77h172v172h79v-172h172v-77h-172v-172h-79v172h-172z" />
    <glyph glyph-name="minus.case" horiz-adv-x="579" 
d="M94 316v77h423v-77h-423z" />
    <glyph glyph-name="multiply.case" horiz-adv-x="525" 
d="M138 159l-56 55l143 141l-143 140l56 56l143 -140l142 140l56 -56l-143 -140l143 -141l-56 -55l-142 140z" />
    <glyph glyph-name="equal.case" horiz-adv-x="622" 
d="M114 208v76h423v-76h-423zM114 425v77h423v-77h-423z" />
    <glyph glyph-name="less.case" horiz-adv-x="487" 
d="M421 608l-253 -253l253 -253h-108l-253 253l253 253h108z" />
    <glyph glyph-name="greater.case" horiz-adv-x="490" 
d="M108 102l253 253l-253 253h108l253 -253l-253 -253h-108z" />
    <glyph glyph-name="acute.case" 
d="M70 770l107 157h111l-144 -157h-74z" />
    <glyph glyph-name="breve.case" 
d="M177 759q-67 0 -112 44.5t-29 113.5h56q-9 -50 16.5 -75.5t71.5 -25.5q91 0 114 101h59q-11 -73 -58.5 -115.5t-117.5 -42.5z" />
    <glyph glyph-name="caron.case" 
d="M359 932l-15 -82l-177 -83l-147 93l17 72l138 -88z" />
    <glyph glyph-name="cedilla.case" 
d="M-151 -204l11 53q31 -15 75 -15q32 0 54 12t22 32q0 27 -41 27q-23 0 -47 -10l-28 21l68 87h57l-43 -54q17 5 39 5q30 0 48 -18t18 -45q0 -52 -40.5 -81t-105.5 -29q-50 0 -87 15z" />
    <glyph glyph-name="circumflex.case" 
d="M1 767l16 81l177 84l147 -94l-17 -71l-138 87z" />
    <glyph glyph-name="dieresis.case" 
d="M68 785q-25 0 -42.5 17t-17.5 41t17.5 41.5t42.5 17.5q23 0 40 -17.5t17 -41.5t-17 -41t-40 -17zM293 785q-25 0 -42.5 17t-17.5 41t17.5 41.5t42.5 17.5q24 0 40.5 -17.5t16.5 -41.5t-16.5 -41t-40.5 -17z" />
    <glyph glyph-name="dotaccent.case" 
d="M180 785q-25 0 -42 17t-17 41t17 41.5t42 17.5q24 0 41 -17.5t17 -41.5t-17 -41t-41 -17z" />
    <glyph glyph-name="_671" 
d="M0 -58q-25 0 -42 17t-17 41t17 41.5t42 17.5q24 0 41 -17.5t17 -41.5t-17 -41t-41 -17z" />
    <glyph glyph-name="_672" 
d="M-27 -190q-25 0 -42 17t-17 41t17 41.5t42 17.5q24 0 41 -17.5t17 -41.5t-17 -41t-41 -17z" />
    <glyph glyph-name="_673" 
d="M-43 -273h-48l45 93h-45l22 104h106l-22 -104z" />
    <glyph glyph-name="grave.case" 
d="M256 770h-66l-89 157h106z" />
    <glyph glyph-name="hungarumlaut.case" 
d="M162 770l100 157h101l-138 -157h-63zM-5 770l100 157h102l-139 -157h-63z" />
    <glyph glyph-name="macron.case" 
d="M10 805l15 69h322l-15 -69h-322z" />
    <glyph glyph-name="ogonek.case" 
d="M-35 -219q-36 0 -59 20t-23 55q0 80 114 144h92q-61 -33 -89 -63.5t-28 -54.5q0 -27 35 -27q26 0 55 17l-15 -68q-34 -23 -82 -23z" />
    <glyph glyph-name="ring.case" 
d="M185 753q-50 0 -85.5 35t-35.5 85t35.5 85t85.5 35t86 -35.5t36 -84.5t-36 -84.5t-86 -35.5zM185 804q29 0 49.5 20t20.5 49t-20.5 49.5t-49.5 20.5t-49.5 -20.5t-20.5 -49.5t20.5 -49t49.5 -20z" />
    <glyph glyph-name="tilde.case" 
d="M-6 786l4 18q11 44 45 69.5t74 25.5q29 0 73 -22t57 -22q34 0 52 44h65l-4 -19q-11 -43 -45 -68.5t-74 -25.5q-30 0 -73 22t-57 22q-34 0 -52 -44h-65z" />
    <glyph glyph-name="_680" 
d="M-95 319l17 82h326l-17 -82h-326z" />
    <glyph glyph-name="_681" 
d="M487 676l-774 -696l-48 53l774 697z" />
    <glyph glyph-name="_682" 
d="M251 419l-369 -206l19 88l369 206z" />
    <glyph glyph-name="_683" 
d="M-130 338l17 81h405l-17 -81h-405z" />
    <glyph glyph-name="_684" 
d="M-247 533l15 72h721l-15 -72h-721z" />
    <glyph glyph-name="uni0449.locl" horiz-adv-x="918" 
d="M551 69q59 0 102.5 43.5t61.5 125.5l56 262h86l-82 -381q-5 -22 2.5 -31t28.5 -9h38l-43 -205h-81l26 126h-4q-30 0 -47.5 20t-8.5 51v1q-67 -82 -162 -82q-98 0 -131 91q-26 -40 -72.5 -65.5t-104.5 -25.5q-91 0 -131.5 64.5t-19.5 158.5l62 287h86l-61 -285
q-14 -66 7 -106t71 -40q58 0 101.5 43t59.5 117l58 271h86l-61 -285q-14 -66 6.5 -106t70.5 -40z" />
    <glyph glyph-name="uni0437.locl" horiz-adv-x="516" 
d="M-39 -51h92q25 -89 141 -89q63 0 101.5 41.5t38.5 107.5q0 51 -28 85.5t-82 34.5h-77l16 76h76q60 0 99.5 35t39.5 89q0 47 -28.5 74.5t-83.5 27.5q-42 0 -75.5 -21.5t-50.5 -62.5h-88q20 78 79.5 120.5t141.5 42.5q87 0 139 -49.5t52 -121.5q0 -59 -29.5 -107.5
t-85.5 -70.5q72 -48 72 -155q0 -101 -64.5 -163t-166.5 -62q-86 0 -153 44t-76 124z" />
    <glyph glyph-name="uni0446.locl" horiz-adv-x="611" 
d="M219 -10q-87 0 -130.5 64t-23.5 158l62 288h86l-61 -287q-14 -66 10.5 -105t78.5 -39q61 -1 105.5 42.5t62.5 126.5l56 262h86l-81 -381q-5 -22 2.5 -31t28.5 -9h38l-43 -205h-81l26 126h-5q-29 0 -47 19t-10 51v3q-63 -83 -160 -83z" />
    <glyph glyph-name="uni043F.locl" horiz-adv-x="590" 
d="M29 0l106 500h86l-14 -64q60 74 163 74q87 0 131.5 -63t24.5 -159l-63 -288h-86l61 285q15 68 -10.5 107t-83.5 39q-63 0 -109 -42.5t-64 -126.5l-56 -262h-86z" />
    <glyph glyph-name="uni044C.locl" horiz-adv-x="492" 
d="M226 -10h-9q-84 0 -129.5 52t-29.5 130l70 328h86l-38 -180h112q72 0 113.5 -43.5t41.5 -106.5q0 -80 -57.5 -130t-159.5 -50zM236 67q55 0 88 28t33 74q0 34 -22.5 53.5t-63.5 19.5h-112l-15 -74q-21 -101 92 -101z" />
    <glyph glyph-name="uni0432.locl" horiz-adv-x="557" 
d="M259 -10h-29q-93 0 -138.5 67.5t-23.5 169.5l73 348q19 93 69 138.5t141 45.5q90 0 139 -48.5t49 -126.5q0 -66 -29 -115.5t-82 -72.5q79 -46 79 -157q0 -116 -70.5 -182.5t-177.5 -66.5zM245 68h26q63 0 105.5 45.5t42.5 124.5q0 58 -28.5 91.5t-81.5 33.5h-125
l-29 -141q-15 -75 8.5 -114.5t81.5 -39.5zM228 578l-28 -138h107q67 0 106.5 36t39.5 104q0 106 -105 106q-98 0 -120 -108z" />
    <glyph glyph-name="uni041B.locl" horiz-adv-x="717" 
d="M-52 0l464 710h78l163 -710h-89l-133 580l-379 -580h-104z" />
    <glyph glyph-name="uni0448.locl" horiz-adv-x="886" 
d="M857 500l-106 -500h-86l14 64q-59 -74 -155 -74q-98 0 -131 91q-26 -40 -72.5 -65.5t-104.5 -25.5q-91 0 -131.5 64.5t-19.5 158.5l62 287h86l-61 -285q-14 -66 7 -106t71 -40q58 0 101.5 43t59.5 117l58 271h86l-61 -285q-14 -66 6.5 -106t70.5 -40q59 0 102.5 43.5
t61.5 125.5l56 262h86z" />
    <glyph glyph-name="uni0442.locl" horiz-adv-x="885" 
d="M29 0l106 500h86l-14 -64q59 74 155 74q98 0 131 -91q26 40 72 65.5t104 25.5q92 0 132.5 -65t19.5 -158l-62 -287h-86l61 285q14 66 -7 106t-71 40q-58 0 -101.5 -43t-59.5 -117l-58 -271h-86l61 285q14 66 -7 106t-71 40q-58 0 -102 -43.5t-61 -125.5l-56 -262h-86z
" />
    <glyph glyph-name="uni0434.locl" horiz-adv-x="633" 
d="M232 -219q-99 0 -162 50t-69 123h84q10 -45 50 -71t103 -26q66 0 115.5 42t63.5 120l10 55q-25 -33 -71.5 -53t-97.5 -20q-90 0 -152.5 61t-62.5 160q0 122 79.5 205t204.5 83q62 0 107.5 -29t65.5 -70l18 89h86l-104 -491q-48 -228 -268 -228zM276 79q82 0 140.5 57
t58.5 145q0 72 -40 111t-106 39q-82 0 -140.5 -56.5t-58.5 -144.5q0 -72 40.5 -111.5t105.5 -39.5z" />
    <glyph glyph-name="uni0433.locl" horiz-adv-x="459" 
d="M16 134q0 57 40 91t117 56l81 22q90 24 90 75q0 27 -20 43.5t-56 16.5q-75 0 -101 -71h-85q11 66 62 104.5t128 38.5q71 0 115 -35t44 -95q0 -58 -38 -93.5t-120 -59.5l-74 -21q-49 -14 -72.5 -31t-23.5 -45q0 -32 26 -49.5t69 -17.5q93 0 111 82h87q-12 -79 -65.5 -117
t-137.5 -38q-74 0 -125.5 37t-51.5 107z" />
    <glyph glyph-name="uni0438.locl" horiz-adv-x="580" 
d="M219 -10q-87 0 -130.5 64t-23.5 158l62 288h86l-61 -287q-14 -66 10.5 -105t78.5 -39q61 -1 105.5 42t62.5 126l56 263h86l-106 -500h-86l14 64q-58 -74 -154 -74z" />
    <glyph glyph-name="uni0414.locl" horiz-adv-x="724" 
d="M-72 -148l49 236h65l373 622h77l109 -622h65l-49 -236h-88l31 148h-513l-31 -148h-88zM431 568l-286 -480h369z" />
    <glyph glyph-name="uni043A.locl" horiz-adv-x="521" 
d="M371 0l-208 225l-48 -225h-86l159 750h86l-100 -472l263 222h114l-297 -252l226 -248h-109z" />
    <glyph glyph-name="uni0439.locl" horiz-adv-x="580" 
d="M219 -10q-87 0 -130.5 64t-23.5 158l62 288h86l-61 -287q-14 -66 10.5 -105t78.5 -39q61 -1 105.5 42t62.5 126l56 263h86l-106 -500h-86l14 64q-58 -74 -154 -74zM374 578q-67 0 -112 48t-30 124h65q-11 -55 13.5 -84.5t69.5 -29.5q85 0 104 114h65q-8 -81 -54 -126.5
t-121 -45.5z" />
    <glyph glyph-name="uni0436.locl" horiz-adv-x="772" 
d="M622 0l-199 223l-47 -223h-86l47 222l-273 -222h-119l321 261l-182 239h97l168 -222l100 472h86l-100 -472l250 222h111l-285 -255l214 -245h-103z" />
    <glyph glyph-name="uni0431.locl" horiz-adv-x="612" 
d="M144 582q0 77 54.5 122.5t166.5 45.5h225l-16 -77h-213q-62 0 -97.5 -23.5t-35.5 -69.5q0 -40 29.5 -62.5t78.5 -22.5h6q90 0 157.5 -66.5t67.5 -155.5q0 -132 -80.5 -207.5t-206.5 -75.5q-101 0 -170 64t-69 165q0 86 44 153.5t118 97.5q-59 38 -59 112zM130 224
q0 -72 46 -113t112 -41q85 0 137.5 53t52.5 145q0 62 -44.5 106t-112.5 44q-85 0 -138 -53t-53 -141z" />
    <glyph glyph-name="uni044E.locl" horiz-adv-x="804" 
d="M491 -10q-103 0 -163.5 65t-66.5 161h-100l-46 -216h-86l159 750h86l-97 -457h89q19 95 89.5 156t173.5 61q108 0 169.5 -70t61.5 -171q0 -117 -74.5 -198t-194.5 -81zM498 70q73 0 123.5 56t50.5 136q0 78 -41 123t-108 45q-74 0 -124.5 -55.5t-50.5 -135.5
q0 -78 41.5 -123.5t108.5 -45.5z" />
    <glyph glyph-name="uni043B.locl" horiz-adv-x="544" 
d="M361 500l125 -500h-86l-93 386l-256 -386h-99l337 500h72z" />
    <glyph glyph-name="uni044A.locl" horiz-adv-x="570" 
d="M292 500l-38 -180h111q72 0 113.5 -43.5t41.5 -106.5q0 -80 -57.5 -130t-159.5 -50h-9q-84 0 -129 52t-29 130l53 249h-140l17 79h226zM313 67q55 0 88 28t33 74q0 34 -22.5 53.5t-63.5 19.5h-112l-14 -74q-21 -101 91 -101z" />
    </font>
</defs>
</svg>
